%TF.GenerationSoftware,KiCad,Pcbnew,9.0.4-9.0.4-0~ubuntu24.04.1*%
%TF.CreationDate,2025-11-05T21:41:33+05:30*%
%TF.ProjectId,WeighingScalePCB,57656967-6869-46e6-9753-63616c655043,rev?*%
%TF.SameCoordinates,Original*%
%TF.FileFunction,Soldermask,Bot*%
%TF.FilePolarity,Negative*%
%FSLAX46Y46*%
G04 Gerber Fmt 4.6, Leading zero omitted, Abs format (unit mm)*
G04 Created by KiCad (PCBNEW 9.0.4-9.0.4-0~ubuntu24.04.1) date 2025-11-05 21:41:33*
%MOMM*%
%LPD*%
G01*
G04 APERTURE LIST*
G04 Aperture macros list*
%AMRoundRect*
0 Rectangle with rounded corners*
0 $1 Rounding radius*
0 $2 $3 $4 $5 $6 $7 $8 $9 X,Y pos of 4 corners*
0 Add a 4 corners polygon primitive as box body*
4,1,4,$2,$3,$4,$5,$6,$7,$8,$9,$2,$3,0*
0 Add four circle primitives for the rounded corners*
1,1,$1+$1,$2,$3*
1,1,$1+$1,$4,$5*
1,1,$1+$1,$6,$7*
1,1,$1+$1,$8,$9*
0 Add four rect primitives between the rounded corners*
20,1,$1+$1,$2,$3,$4,$5,0*
20,1,$1+$1,$4,$5,$6,$7,0*
20,1,$1+$1,$6,$7,$8,$9,0*
20,1,$1+$1,$8,$9,$2,$3,0*%
G04 Aperture macros list end*
%ADD10C,0.500000*%
%ADD11C,0.100000*%
%ADD12R,1.200000X2.500000*%
%ADD13C,1.200000*%
%ADD14R,1.400000X0.300000*%
%ADD15R,1.100000X0.700000*%
%ADD16R,1.600000X0.700000*%
%ADD17R,2.300000X1.250000*%
%ADD18RoundRect,0.225000X0.250000X-0.225000X0.250000X0.225000X-0.250000X0.225000X-0.250000X-0.225000X0*%
%ADD19RoundRect,0.225000X-0.250000X0.225000X-0.250000X-0.225000X0.250000X-0.225000X0.250000X0.225000X0*%
%ADD20RoundRect,0.050000X-0.300000X0.150000X-0.300000X-0.150000X0.300000X-0.150000X0.300000X0.150000X0*%
G04 APERTURE END LIST*
D10*
%TO.C,T2*%
X118447265Y-51776213D02*
X130145810Y-51776213D01*
X132138089Y-49776205D02*
X132138089Y-42949381D01*
X117478706Y-49130851D02*
G75*
G02*
X130083225Y-41567815I29509494J-34895549D01*
G01*
X118447265Y-51776213D02*
G75*
G02*
X117478706Y-49130851I-15J1499987D01*
G01*
X130083225Y-41567815D02*
G75*
G02*
X132138082Y-42949381I554825J-1393705D01*
G01*
X132138089Y-49776205D02*
G75*
G02*
X130145810Y-51776213I-2000022J-1D01*
G01*
D11*
X131480000Y-41720000D02*
X131480000Y-41720004D01*
X132100000Y-42550000D01*
X132138089Y-42973869D01*
X132138089Y-49840000D01*
X131552301Y-51190430D01*
X131150000Y-51420000D01*
X129740000Y-51760000D01*
X128130000Y-51750000D01*
X118120000Y-51776213D01*
X117940000Y-51776213D01*
X117390000Y-51250000D01*
X117130000Y-50880000D01*
X117010000Y-50300000D01*
X117130000Y-49680000D01*
X117340000Y-49340000D01*
X117820000Y-48870000D01*
X118580000Y-48310000D01*
X119970000Y-47240000D01*
X121170000Y-46310000D01*
X123250000Y-44960000D01*
X128170000Y-42380000D01*
X130083227Y-41567815D01*
X131140000Y-41567815D01*
X131480000Y-41720000D01*
G36*
X131480000Y-41720000D02*
G01*
X131480000Y-41720004D01*
X132100000Y-42550000D01*
X132138089Y-42973869D01*
X132138089Y-49840000D01*
X131552301Y-51190430D01*
X131150000Y-51420000D01*
X129740000Y-51760000D01*
X128130000Y-51750000D01*
X118120000Y-51776213D01*
X117940000Y-51776213D01*
X117390000Y-51250000D01*
X117130000Y-50880000D01*
X117010000Y-50300000D01*
X117130000Y-49680000D01*
X117340000Y-49340000D01*
X117820000Y-48870000D01*
X118580000Y-48310000D01*
X119970000Y-47240000D01*
X121170000Y-46310000D01*
X123250000Y-44960000D01*
X128170000Y-42380000D01*
X130083227Y-41567815D01*
X131140000Y-41567815D01*
X131480000Y-41720000D01*
G37*
D10*
%TO.C,T1*%
X161876949Y-49839567D02*
X161876949Y-43012743D01*
X175567773Y-51839575D02*
X163869228Y-51839575D01*
X161876949Y-43012743D02*
G75*
G02*
X163931813Y-41631177I1500025J-12125D01*
G01*
X163869228Y-51839575D02*
G75*
G02*
X161876949Y-49839567I7746J2000010D01*
G01*
X163931813Y-41631177D02*
G75*
G02*
X176536332Y-49194213I-16904751J-42458209D01*
G01*
X176536332Y-49194213D02*
G75*
G02*
X175567773Y-51839576I-968583J-1145361D01*
G01*
D11*
X165470000Y-42240000D02*
X170540148Y-44902592D01*
X172710000Y-46210000D01*
X175530000Y-48320000D01*
X176960000Y-49760000D01*
X177030000Y-50710000D01*
X176976310Y-51170000D01*
X176400000Y-51550000D01*
X175150000Y-51940000D01*
X173650000Y-51870000D01*
X163590000Y-51839575D01*
X163100000Y-51839575D01*
X162230000Y-50630000D01*
X161960000Y-50110000D01*
X161876949Y-49250000D01*
X161876949Y-42360000D01*
X162010000Y-42360000D01*
X162860000Y-41570000D01*
X165470000Y-42240000D01*
G36*
X165470000Y-42240000D02*
G01*
X170540148Y-44902592D01*
X172710000Y-46210000D01*
X175530000Y-48320000D01*
X176960000Y-49760000D01*
X177030000Y-50710000D01*
X176976310Y-51170000D01*
X176400000Y-51550000D01*
X175150000Y-51940000D01*
X173650000Y-51870000D01*
X163590000Y-51839575D01*
X163100000Y-51839575D01*
X162230000Y-50630000D01*
X161960000Y-50110000D01*
X161876949Y-49250000D01*
X161876949Y-42360000D01*
X162010000Y-42360000D01*
X162860000Y-41570000D01*
X165470000Y-42240000D01*
G37*
%TD*%
D12*
%TO.C,T2*%
X126413195Y-47836478D03*
%TD*%
D13*
%TO.C,J2*%
X180609518Y-53730482D03*
X175659771Y-58680229D03*
%TD*%
D12*
%TO.C,T1*%
X167060000Y-48420000D03*
%TD*%
D14*
%TO.C,J1*%
X134110000Y-43760000D03*
X134110000Y-44260000D03*
X134110000Y-44760000D03*
X134110000Y-45260000D03*
X134110000Y-45760000D03*
X134110000Y-46260000D03*
X134110000Y-46760000D03*
X134110000Y-47260000D03*
X134110000Y-47760000D03*
X134110000Y-48260000D03*
X134110000Y-48760000D03*
X134110000Y-49260000D03*
X134110000Y-49760000D03*
X134110000Y-50260000D03*
D15*
X135260000Y-53010000D03*
X135260000Y-41010000D03*
D16*
X135010000Y-41710000D03*
D17*
X135360000Y-42685000D03*
D16*
X135010000Y-52310000D03*
D17*
X135360000Y-51335000D03*
%TD*%
D18*
%TO.C,C12*%
X142190000Y-45255000D03*
X142190000Y-43705000D03*
%TD*%
D19*
%TO.C,C16*%
X126500000Y-53745000D03*
X126500000Y-55295000D03*
%TD*%
D20*
%TO.C,D3*%
X166480000Y-53310000D03*
X166480000Y-54010000D03*
%TD*%
D19*
%TO.C,C15*%
X159790000Y-44155000D03*
X159790000Y-45705000D03*
%TD*%
%TO.C,C13*%
X142960000Y-47805000D03*
X142960000Y-49355000D03*
%TD*%
D20*
%TO.C,D4*%
X122480000Y-52960000D03*
X122480000Y-53660000D03*
%TD*%
M02*
