%TF.GenerationSoftware,KiCad,Pcbnew,9.0.6-9.0.6~ubuntu24.04.1*%
%TF.CreationDate,2026-01-18T18:19:51+05:30*%
%TF.ProjectId,WeighingScalePCB,57656967-6869-46e6-9753-63616c655043,rev?*%
%TF.SameCoordinates,Original*%
%TF.FileFunction,Copper,L2,Bot*%
%TF.FilePolarity,Positive*%
%FSLAX46Y46*%
G04 Gerber Fmt 4.6, Leading zero omitted, Abs format (unit mm)*
G04 Created by KiCad (PCBNEW 9.0.6-9.0.6~ubuntu24.04.1) date 2026-01-18 18:19:51*
%MOMM*%
%LPD*%
G01*
G04 APERTURE LIST*
G04 Aperture macros list*
%AMRoundRect*
0 Rectangle with rounded corners*
0 $1 Rounding radius*
0 $2 $3 $4 $5 $6 $7 $8 $9 X,Y pos of 4 corners*
0 Add a 4 corners polygon primitive as box body*
4,1,4,$2,$3,$4,$5,$6,$7,$8,$9,$2,$3,0*
0 Add four circle primitives for the rounded corners*
1,1,$1+$1,$2,$3*
1,1,$1+$1,$4,$5*
1,1,$1+$1,$6,$7*
1,1,$1+$1,$8,$9*
0 Add four rect primitives between the rounded corners*
20,1,$1+$1,$2,$3,$4,$5,0*
20,1,$1+$1,$4,$5,$6,$7,0*
20,1,$1+$1,$6,$7,$8,$9,0*
20,1,$1+$1,$8,$9,$2,$3,0*%
G04 Aperture macros list end*
%TA.AperFunction,Conductor*%
%ADD10C,0.200000*%
%TD*%
%TA.AperFunction,EtchedComponent*%
%ADD11C,0.500000*%
%TD*%
%TA.AperFunction,EtchedComponent*%
%ADD12C,0.200000*%
%TD*%
%TA.AperFunction,SMDPad,CuDef*%
%ADD13R,1.200000X2.500000*%
%TD*%
%TA.AperFunction,SMDPad,CuDef*%
%ADD14R,1.400000X0.300000*%
%TD*%
%TA.AperFunction,SMDPad,CuDef*%
%ADD15R,1.100000X0.700000*%
%TD*%
%TA.AperFunction,SMDPad,CuDef*%
%ADD16R,1.600000X0.700000*%
%TD*%
%TA.AperFunction,SMDPad,CuDef*%
%ADD17R,2.300000X1.250000*%
%TD*%
%TA.AperFunction,SMDPad,CuDef*%
%ADD18RoundRect,0.225000X0.250000X-0.225000X0.250000X0.225000X-0.250000X0.225000X-0.250000X-0.225000X0*%
%TD*%
%TA.AperFunction,ViaPad*%
%ADD19C,0.500000*%
%TD*%
%TA.AperFunction,ViaPad*%
%ADD20C,0.600000*%
%TD*%
G04 APERTURE END LIST*
D10*
%TO.N,Net-(IC3-CS1)*%
X127035000Y-49340000D02*
X127035000Y-48000000D01*
%TO.N,/c12_1*%
X141575000Y-43900000D02*
X142345000Y-43900000D01*
%TO.N,Net-(IC3-CS1)*%
X127035000Y-48000000D02*
X126545000Y-48000000D01*
%TO.N,/c13_1*%
X135115000Y-44880000D02*
X135525000Y-45290000D01*
%TO.N,/c12_1*%
X141085000Y-44390000D02*
X141575000Y-43900000D01*
%TO.N,SDA*%
X134275000Y-48880000D02*
X133305000Y-48880000D01*
%TO.N,/c12_1*%
X135565000Y-43920000D02*
X135155000Y-43920000D01*
X136215000Y-44390000D02*
X135610000Y-43930000D01*
%TO.N,/c13_2*%
X141655000Y-49090000D02*
X142165000Y-49600000D01*
%TO.N,/c13_1*%
X134295000Y-44880000D02*
X135115000Y-44880000D01*
%TO.N,/c13_2*%
X134265000Y-45390000D02*
X135055000Y-45390000D01*
%TO.N,/c13_1*%
X135525000Y-45290000D02*
X136285000Y-46050000D01*
%TO.N,/c13_2*%
X142165000Y-49600000D02*
X143095000Y-49600000D01*
%TO.N,VCC*%
X133025000Y-46910000D02*
X133025000Y-46000000D01*
X134345000Y-47400000D02*
X133515000Y-47400000D01*
X134265000Y-45900000D02*
X133025000Y-45900000D01*
%TO.N,/c12_1*%
X136215000Y-44390000D02*
X141085000Y-44390000D01*
%TO.N,/c12_2*%
X134235000Y-44410000D02*
X135155000Y-44410000D01*
%TO.N,/c13_2*%
X135055000Y-45390000D02*
X135175000Y-45510000D01*
%TO.N,/c12_1*%
X135155000Y-43920000D02*
X134245000Y-43920000D01*
D11*
%TD*%
%TO.C,T2*%
X118587849Y-51933530D02*
X130286394Y-51933530D01*
D12*
%TO.C,T2*%
X126545000Y-46750000D02*
X123615477Y-44996551D01*
X126545000Y-49250000D02*
X117179290Y-50949260D01*
X127145000Y-46750000D02*
X131620582Y-41877317D01*
X127145000Y-48000000D02*
X131692885Y-51347747D01*
D11*
X132278673Y-49933522D02*
X132278673Y-43106698D01*
X117619290Y-49288168D02*
G75*
G02*
X130223809Y-41725131I29509275J-34895174D01*
G01*
X118587849Y-51933530D02*
G75*
G02*
X117619290Y-49288168I25J1500002D01*
G01*
X130223809Y-41725132D02*
G75*
G02*
X132278668Y-43106698I554836J-1393690D01*
G01*
X132278673Y-49933522D02*
G75*
G02*
X130286394Y-51933535I-2000028J0D01*
G01*
D12*
X131615622Y-41873960D02*
X131615634Y-41873968D01*
X132131805Y-42433522D01*
X132278673Y-50433522D01*
X130881805Y-51933522D01*
X118131805Y-51933530D01*
X117179290Y-50949260D01*
X117179290Y-50183522D01*
X117619290Y-49288168D01*
X120881805Y-46683522D01*
X125131805Y-44183522D01*
X128381805Y-42433522D01*
X130223811Y-41725132D01*
X131381805Y-41725132D01*
X131615622Y-41873960D01*
%TA.AperFunction,EtchedComponent*%
G36*
X131615622Y-41873960D02*
G01*
X131615634Y-41873968D01*
X132131805Y-42433522D01*
X132278673Y-50433522D01*
X130881805Y-51933522D01*
X118131805Y-51933530D01*
X117179290Y-50949260D01*
X117179290Y-50183522D01*
X117619290Y-49288168D01*
X120881805Y-46683522D01*
X125131805Y-44183522D01*
X128381805Y-42433522D01*
X130223811Y-41725132D01*
X131381805Y-41725132D01*
X131615622Y-41873960D01*
G37*
%TD.AperFunction*%
X131631805Y-41877317D02*
X131620582Y-41877317D01*
X131615634Y-41873968D01*
X131615622Y-41873955D01*
X131631805Y-41877317D01*
%TA.AperFunction,EtchedComponent*%
G36*
X131631805Y-41877317D02*
G01*
X131620582Y-41877317D01*
X131615634Y-41873968D01*
X131615622Y-41873955D01*
X131631805Y-41877317D01*
G37*
%TD.AperFunction*%
D11*
%TO.C,T1*%
X161962847Y-49923522D02*
X161962847Y-43096698D01*
D12*
X162170000Y-47240000D02*
X166420000Y-42990000D01*
X162420000Y-47240000D02*
X168670000Y-43990000D01*
X166420000Y-42990000D02*
X166670000Y-47740000D01*
X166670000Y-47740000D02*
X162420000Y-47240000D01*
X167170000Y-48240000D02*
X171170000Y-45490000D01*
X168170000Y-51990000D02*
X162170000Y-47240000D01*
X171170000Y-45490000D02*
X168170000Y-51990000D01*
D11*
X175653671Y-51923530D02*
X163955126Y-51923530D01*
X161962847Y-43096698D02*
G75*
G02*
X164017711Y-41715131I1500038J-12144D01*
G01*
X163955126Y-51923530D02*
G75*
G02*
X161962847Y-49923522I7743J2000007D01*
G01*
X164017711Y-41715132D02*
G75*
G02*
X176622230Y-49278168I-16904982J-42458594D01*
G01*
X176622230Y-49278168D02*
G75*
G02*
X175653671Y-51923530I-968544J-1145375D01*
G01*
D12*
X168773217Y-43966470D02*
X172773217Y-46216470D01*
X176725447Y-49254638D01*
X177165447Y-49884296D01*
X177165447Y-50915730D01*
X175756888Y-51899999D01*
X164058343Y-51900000D01*
X162649121Y-51311479D01*
X162649121Y-51311481D01*
X162273217Y-50716470D01*
X162023217Y-49216470D01*
X162066064Y-43073168D01*
X162066064Y-42466470D01*
X162523217Y-41966470D01*
X162729120Y-41840434D01*
X163011275Y-41691602D01*
X164120928Y-41691602D01*
X168773217Y-43966470D01*
%TA.AperFunction,EtchedComponent*%
G36*
X168773217Y-43966470D02*
G01*
X172773217Y-46216470D01*
X176725447Y-49254638D01*
X177165447Y-49884296D01*
X177165447Y-50915730D01*
X175756888Y-51899999D01*
X164058343Y-51900000D01*
X162649121Y-51311479D01*
X162649121Y-51311481D01*
X162273217Y-50716470D01*
X162023217Y-49216470D01*
X162066064Y-43073168D01*
X162066064Y-42466470D01*
X162523217Y-41966470D01*
X162729120Y-41840434D01*
X163011275Y-41691602D01*
X164120928Y-41691602D01*
X168773217Y-43966470D01*
G37*
%TD.AperFunction*%
%TD*%
D13*
%TO.P,T2,T2,Pad*%
%TO.N,Net-(IC3-CS1)*%
X126545000Y-48000000D03*
%TD*%
%TO.P,T1,T1,Pad*%
%TO.N,Net-(IC3-CS2)*%
X167170000Y-48490000D03*
%TD*%
D14*
%TO.P,J1,1,Pin_1*%
%TO.N,/c12_1*%
X134245000Y-43890000D03*
%TO.P,J1,2,Pin_2*%
%TO.N,/c12_2*%
X134245000Y-44390000D03*
%TO.P,J1,3,Pin_3*%
%TO.N,/c13_1*%
X134245000Y-44890000D03*
%TO.P,J1,4,Pin_4*%
%TO.N,/c13_2*%
X134245000Y-45390000D03*
%TO.P,J1,5,Pin_5*%
%TO.N,VCC*%
X134245000Y-45890000D03*
%TO.P,J1,6,Pin_6*%
%TO.N,unconnected-(J1-Pin_6-Pad6)*%
X134245000Y-46390000D03*
%TO.P,J1,7,Pin_7*%
%TO.N,GND*%
X134245000Y-46890000D03*
%TO.P,J1,8,Pin_8*%
%TO.N,VCC*%
X134245000Y-47390000D03*
%TO.P,J1,9,Pin_9*%
%TO.N,/d15*%
X134245000Y-47890000D03*
%TO.P,J1,10,Pin_10*%
%TO.N,SCL*%
X134245000Y-48390000D03*
%TO.P,J1,11,Pin_11*%
%TO.N,SDA*%
X134245000Y-48890000D03*
%TO.P,J1,12,Pin_12*%
%TO.N,/R5*%
X134245000Y-49390000D03*
%TO.P,J1,13,Pin_13*%
%TO.N,GND*%
X134245000Y-49890000D03*
%TO.P,J1,14,Pin_14*%
X134245000Y-50390000D03*
D15*
%TO.P,J1,15,MountPin*%
X135395000Y-53140000D03*
%TO.P,J1,16,MountPin*%
X135395000Y-41140000D03*
D16*
%TO.P,J1,17*%
%TO.N,N/C*%
X135145000Y-41840000D03*
D17*
%TO.P,J1,18*%
X135495000Y-42815000D03*
D16*
%TO.P,J1,19*%
X135145000Y-52440000D03*
D17*
%TO.P,J1,20*%
X135495000Y-51465000D03*
%TD*%
D18*
%TO.P,C12,1*%
%TO.N,/c12_2*%
X142325000Y-45385000D03*
%TO.P,C12,2*%
%TO.N,/c12_1*%
X142325000Y-43835000D03*
%TD*%
%TO.P,C13,1*%
%TO.N,/c13_2*%
X143095000Y-49485000D03*
%TO.P,C13,2*%
%TO.N,/c13_1*%
X143095000Y-47935000D03*
%TD*%
D19*
%TO.N,Net-(IC3-CS1)*%
X145370000Y-64080000D03*
X125630000Y-53180000D03*
X126560000Y-48050000D03*
%TO.N,Net-(IC3-CS2)*%
X167170000Y-48490000D03*
%TO.N,VCC*%
X129250000Y-68500000D03*
D20*
X142750000Y-71750000D03*
X121500000Y-55750000D03*
X143000000Y-71000000D03*
X143500000Y-70250000D03*
X133025000Y-46500000D03*
X141750000Y-69500000D03*
X124250000Y-53000000D03*
X123250000Y-56000000D03*
X124750000Y-55000000D03*
X141000000Y-70500000D03*
X123250000Y-55250000D03*
X142250000Y-69000000D03*
D19*
X130000000Y-72750000D03*
D20*
X121500000Y-55000000D03*
D19*
%TO.N,GND*%
X150110000Y-60220000D03*
X150770000Y-60860000D03*
X159170000Y-42440000D03*
X158920000Y-40130000D03*
X150690000Y-62070000D03*
X118140000Y-61370000D03*
X144440000Y-72750000D03*
X152500000Y-38820000D03*
X115390000Y-82250000D03*
X153310000Y-41480000D03*
X157880000Y-41490000D03*
X132750000Y-68130000D03*
X105010000Y-85040000D03*
X124190000Y-63610000D03*
X114220000Y-56050000D03*
X150690000Y-60260000D03*
X149530000Y-60250000D03*
X111475000Y-72645000D03*
X140410000Y-73130000D03*
X132320000Y-73590000D03*
X150770000Y-61540000D03*
X131240000Y-63660000D03*
X148950000Y-68810000D03*
X181730000Y-64890000D03*
X167330000Y-63680000D03*
X148920000Y-52780000D03*
X148070000Y-50720000D03*
X167150000Y-62600000D03*
X148490000Y-54640000D03*
X124500000Y-69750000D03*
X145280000Y-49600000D03*
X132185000Y-73460000D03*
X170300000Y-63150000D03*
X152700000Y-58650000D03*
X107310000Y-65800000D03*
X145290000Y-50710000D03*
X107350000Y-85050000D03*
X106920000Y-73980000D03*
X147310000Y-69690000D03*
X169890000Y-54790000D03*
X153140000Y-43030000D03*
X138427527Y-62226000D03*
X133230000Y-53560000D03*
X123010000Y-63710000D03*
X150290000Y-54520000D03*
X121710000Y-61620000D03*
X138160000Y-63930000D03*
%TO.N,/V_BAT*%
X142650000Y-62430000D03*
X139870000Y-61190000D03*
%TO.N,SCL*%
X132985000Y-48370000D03*
X142505000Y-51260000D03*
X139140000Y-52330000D03*
%TO.N,SDA*%
X139140000Y-49790000D03*
X132995000Y-49060000D03*
X143025000Y-50540000D03*
%TO.N,/d15*%
X135500000Y-47920000D03*
%TO.N,/enable*%
X137100000Y-47250000D03*
X142420000Y-53440000D03*
%TO.N,/R5*%
X130085000Y-53500000D03*
X130085000Y-53500000D03*
%TD*%
D10*
%TO.N,Net-(IC3-CS1)*%
X129831123Y-54680000D02*
X127635652Y-52484530D01*
X126325470Y-52484530D02*
X125630000Y-53180000D01*
X127635652Y-52484530D02*
X126325470Y-52484530D01*
X145370000Y-64080000D02*
X135970000Y-54680000D01*
X135970000Y-54680000D02*
X129831123Y-54680000D01*
%TO.N,VCC*%
X121750000Y-55250000D02*
X121500000Y-55000000D01*
X133515000Y-47400000D02*
X133303000Y-47400000D01*
X133303000Y-47400000D02*
X133025000Y-47122000D01*
X141500000Y-70500000D02*
X141000000Y-70500000D01*
X124750000Y-55000000D02*
X124750000Y-53500000D01*
X141750000Y-69750000D02*
X141750000Y-69500000D01*
X123250000Y-56000000D02*
X121750000Y-56000000D01*
X143000000Y-71000000D02*
X141750000Y-69750000D01*
X124750000Y-53500000D02*
X124250000Y-53000000D01*
X130000000Y-69250000D02*
X129250000Y-68500000D01*
X123250000Y-55250000D02*
X121750000Y-55250000D01*
X121750000Y-56000000D02*
X121500000Y-55750000D01*
X133025000Y-47122000D02*
X133025000Y-46910000D01*
X143500000Y-70250000D02*
X142250000Y-69000000D01*
X130000000Y-72750000D02*
X130000000Y-69250000D01*
X142750000Y-71750000D02*
X141500000Y-70500000D01*
%TO.N,GND*%
X135395000Y-53140000D02*
X133650000Y-53140000D01*
X134245000Y-46890000D02*
X134987900Y-46890000D01*
X115390000Y-82250000D02*
X115400000Y-82240000D01*
X133650000Y-53140000D02*
X133230000Y-53560000D01*
X134245000Y-49890000D02*
X134245000Y-50390000D01*
%TO.N,/V_BAT*%
X141110000Y-62430000D02*
X139870000Y-61190000D01*
X142650000Y-62430000D02*
X141110000Y-62430000D01*
%TO.N,SCL*%
X141435000Y-52330000D02*
X139140000Y-52330000D01*
X134245000Y-48390000D02*
X133005000Y-48390000D01*
X133005000Y-48390000D02*
X132985000Y-48370000D01*
X142505000Y-51260000D02*
X141435000Y-52330000D01*
%TO.N,SDA*%
X133305000Y-48880000D02*
X133125000Y-49060000D01*
X143025000Y-50540000D02*
X139890000Y-50540000D01*
X133125000Y-49060000D02*
X132995000Y-49060000D01*
X139890000Y-50540000D02*
X139140000Y-49790000D01*
%TO.N,/c12_2*%
X135212100Y-44410000D02*
X135155000Y-44410000D01*
X140541000Y-44791000D02*
X135593100Y-44791000D01*
X141135000Y-45385000D02*
X140541000Y-44791000D01*
X135593100Y-44791000D02*
X135212100Y-44410000D01*
X142325000Y-45385000D02*
X141135000Y-45385000D01*
%TO.N,/d15*%
X134275000Y-47920000D02*
X134245000Y-47890000D01*
X135500000Y-47920000D02*
X134275000Y-47920000D01*
%TO.N,/enable*%
X138536000Y-48686000D02*
X143521110Y-48686000D01*
X137100000Y-47250000D02*
X138536000Y-48686000D01*
X143521110Y-48686000D02*
X143871000Y-49035890D01*
X143871000Y-49035890D02*
X143871000Y-51989000D01*
X143871000Y-51989000D02*
X142420000Y-53440000D01*
%TO.N,/R5*%
X130085000Y-53500000D02*
X131085000Y-52500000D01*
X131085000Y-52500000D02*
X133000000Y-52500000D01*
X133444232Y-49390000D02*
X134245000Y-49390000D01*
X133000000Y-52500000D02*
X133000000Y-50250000D01*
X133006000Y-50244000D02*
X133006000Y-49828232D01*
X133000000Y-50250000D02*
X133006000Y-50244000D01*
X133006000Y-49828232D02*
X133444232Y-49390000D01*
%TO.N,/c13_1*%
X143095000Y-47935000D02*
X141809000Y-46649000D01*
X136884000Y-46649000D02*
X136285000Y-46050000D01*
X141809000Y-46649000D02*
X136884000Y-46649000D01*
%TO.N,/c13_2*%
X138160768Y-49090000D02*
X136500000Y-47429232D01*
X136500000Y-47429232D02*
X136500000Y-46750000D01*
X136500000Y-46750000D02*
X136415000Y-46750000D01*
X141655000Y-49090000D02*
X138160768Y-49090000D01*
X136415000Y-46750000D02*
X135175000Y-45510000D01*
%TD*%
%TA.AperFunction,Conductor*%
%TO.N,GND*%
G36*
X148368377Y-37391450D02*
G01*
X148371925Y-37391553D01*
X149722338Y-37450253D01*
X149725936Y-37450461D01*
X151074128Y-37548243D01*
X151077641Y-37548549D01*
X152422430Y-37685327D01*
X152425924Y-37685733D01*
X153766247Y-37861402D01*
X153769759Y-37861914D01*
X155104343Y-38076305D01*
X155107894Y-38076929D01*
X156435689Y-38329870D01*
X156439180Y-38330587D01*
X157759158Y-38621885D01*
X157762644Y-38622708D01*
X158684710Y-38854385D01*
X159073573Y-38952091D01*
X159077099Y-38953032D01*
X159384769Y-39039881D01*
X160377927Y-39320232D01*
X160381331Y-39321246D01*
X161671005Y-39725966D01*
X161674416Y-39727091D01*
X162951856Y-40168994D01*
X162955246Y-40170222D01*
X164219332Y-40648924D01*
X164222681Y-40650248D01*
X165472321Y-41165328D01*
X165475664Y-41166763D01*
X166709906Y-41717830D01*
X166713185Y-41719352D01*
X167638238Y-42164933D01*
X167930925Y-42305915D01*
X167934187Y-42307545D01*
X169134420Y-42929116D01*
X169137580Y-42930810D01*
X170319392Y-43586920D01*
X170322504Y-43588707D01*
X171012912Y-43998595D01*
X171484773Y-44278734D01*
X171487883Y-44280642D01*
X172629665Y-45004022D01*
X172632719Y-45006020D01*
X173753048Y-45762140D01*
X173756043Y-45764225D01*
X174018356Y-45952543D01*
X174854037Y-46552491D01*
X174856921Y-46554624D01*
X175859820Y-47319579D01*
X175931663Y-47374377D01*
X175934529Y-47376629D01*
X176958773Y-48205859D01*
X176985047Y-48227130D01*
X176987849Y-48229467D01*
X178013274Y-49110009D01*
X178016008Y-49112426D01*
X178380796Y-49444500D01*
X179015554Y-50022335D01*
X179018178Y-50024794D01*
X179988511Y-50960905D01*
X179990939Y-50963247D01*
X179993515Y-50965805D01*
X180271985Y-51250476D01*
X180938687Y-51932026D01*
X180941201Y-51934671D01*
X181858005Y-52927860D01*
X181860441Y-52930577D01*
X182743400Y-53944500D01*
X182748090Y-53949885D01*
X182750433Y-53952656D01*
X182957356Y-54204647D01*
X183608213Y-54997263D01*
X183610487Y-55000116D01*
X184437637Y-56069093D01*
X184439828Y-56072011D01*
X185235673Y-57164484D01*
X185237779Y-57167464D01*
X186001682Y-58282563D01*
X186003700Y-58285603D01*
X186287314Y-58726463D01*
X186689985Y-59352390D01*
X186734962Y-59422303D01*
X186736892Y-59425400D01*
X187434950Y-60582829D01*
X187436789Y-60585980D01*
X188101045Y-61763147D01*
X188102792Y-61766351D01*
X188418545Y-62365838D01*
X188699953Y-62900118D01*
X188732681Y-62962254D01*
X188734334Y-62965507D01*
X189329310Y-64179105D01*
X189330869Y-64182404D01*
X189890480Y-65412781D01*
X189891942Y-65416124D01*
X190415675Y-66662150D01*
X190417040Y-66665534D01*
X190904471Y-67926197D01*
X190905738Y-67929619D01*
X191356469Y-69203895D01*
X191357636Y-69207352D01*
X191771285Y-70494154D01*
X191772351Y-70497644D01*
X192148552Y-71795846D01*
X192149517Y-71799365D01*
X192397132Y-72756708D01*
X192475780Y-73060785D01*
X192487981Y-73107955D01*
X192488840Y-73111489D01*
X192587228Y-73543068D01*
X192789261Y-74429294D01*
X192790021Y-74432863D01*
X193052170Y-75758879D01*
X193052825Y-75762469D01*
X193276453Y-77095429D01*
X193277005Y-77099036D01*
X193461948Y-78437966D01*
X193462395Y-78441587D01*
X193608490Y-79785302D01*
X193608832Y-79788935D01*
X193715957Y-81136338D01*
X193716193Y-81139979D01*
X193784257Y-82489880D01*
X193784388Y-82493527D01*
X193813335Y-83844861D01*
X193813360Y-83848509D01*
X193803165Y-85200082D01*
X193803085Y-85203730D01*
X193753757Y-86554475D01*
X193753571Y-86558119D01*
X193702944Y-87330389D01*
X193678529Y-87397056D01*
X193621947Y-87439939D01*
X193577214Y-87448147D01*
X174641501Y-87448147D01*
X174573380Y-87428145D01*
X174526887Y-87374489D01*
X174515501Y-87322147D01*
X174515501Y-75105462D01*
X174490471Y-75012047D01*
X174481393Y-74978167D01*
X174415501Y-74864039D01*
X174415499Y-74864037D01*
X174415495Y-74864032D01*
X174322321Y-74770858D01*
X174322311Y-74770850D01*
X174208191Y-74704963D01*
X174208188Y-74704962D01*
X174208187Y-74704961D01*
X174208185Y-74704960D01*
X174208184Y-74704960D01*
X174174074Y-74695820D01*
X174080893Y-74670853D01*
X120080892Y-74670853D01*
X119949108Y-74670853D01*
X119880894Y-74689130D01*
X119821816Y-74704960D01*
X119821809Y-74704963D01*
X119707689Y-74770850D01*
X119707679Y-74770858D01*
X119614505Y-74864032D01*
X119614497Y-74864042D01*
X119548610Y-74978162D01*
X119548607Y-74978169D01*
X119514500Y-75105462D01*
X119514500Y-87322147D01*
X119494498Y-87390268D01*
X119440842Y-87436761D01*
X119388500Y-87448147D01*
X100452788Y-87448147D01*
X100384667Y-87428145D01*
X100338174Y-87374489D01*
X100327058Y-87330390D01*
X100276430Y-86558120D01*
X100276244Y-86554475D01*
X100253586Y-85934045D01*
X100226915Y-85203720D01*
X100226836Y-85200082D01*
X100216641Y-83848451D01*
X100216665Y-83844919D01*
X100245615Y-82493461D01*
X100245741Y-82489946D01*
X100313809Y-81139956D01*
X100314044Y-81136338D01*
X100421174Y-79788876D01*
X100421505Y-79785362D01*
X100567610Y-78441550D01*
X100568048Y-78438004D01*
X100753000Y-77099004D01*
X100753548Y-77095429D01*
X100977176Y-75762469D01*
X100977831Y-75758879D01*
X100995036Y-75671853D01*
X101239992Y-74432805D01*
X101240727Y-74429353D01*
X101541176Y-73111423D01*
X101542001Y-73108031D01*
X101712854Y-72447466D01*
X120468517Y-72447466D01*
X120468517Y-72500360D01*
X120468517Y-72683650D01*
X120505464Y-72916926D01*
X120578449Y-73141550D01*
X120618482Y-73220119D01*
X120685676Y-73351994D01*
X120824501Y-73543070D01*
X120991504Y-73710073D01*
X120991507Y-73710075D01*
X121182584Y-73848901D01*
X121393025Y-73956126D01*
X121617649Y-74029111D01*
X121850925Y-74066058D01*
X121850928Y-74066058D01*
X122087106Y-74066058D01*
X122087109Y-74066058D01*
X122320385Y-74029111D01*
X122545009Y-73956126D01*
X122755450Y-73848901D01*
X122946527Y-73710075D01*
X123113534Y-73543068D01*
X123252360Y-73351991D01*
X123359585Y-73141550D01*
X123432570Y-72916926D01*
X123469517Y-72683650D01*
X123469517Y-72447466D01*
X123432570Y-72214190D01*
X123359585Y-71989566D01*
X123252360Y-71779125D01*
X123113534Y-71588048D01*
X123113532Y-71588045D01*
X122946529Y-71421042D01*
X122755453Y-71282217D01*
X122755452Y-71282216D01*
X122755450Y-71282215D01*
X122545009Y-71174990D01*
X122320385Y-71102005D01*
X122087109Y-71065058D01*
X121850925Y-71065058D01*
X121617649Y-71102005D01*
X121617646Y-71102005D01*
X121617645Y-71102006D01*
X121393025Y-71174990D01*
X121393023Y-71174991D01*
X121182580Y-71282217D01*
X120991504Y-71421042D01*
X120824501Y-71588045D01*
X120685676Y-71779121D01*
X120578450Y-71989564D01*
X120578449Y-71989566D01*
X120517121Y-72178315D01*
X120505464Y-72214190D01*
X120468517Y-72447466D01*
X101712854Y-72447466D01*
X101880489Y-71799345D01*
X101881449Y-71795846D01*
X101895016Y-71749029D01*
X102257665Y-70497591D01*
X102258700Y-70494205D01*
X102672369Y-69207339D01*
X102673532Y-69203895D01*
X102689225Y-69159529D01*
X102899018Y-68566417D01*
X128745499Y-68566417D01*
X128779881Y-68694730D01*
X128846297Y-68809766D01*
X128846305Y-68809776D01*
X128940223Y-68903694D01*
X128940228Y-68903698D01*
X128940230Y-68903700D01*
X128940231Y-68903701D01*
X128940233Y-68903702D01*
X128978465Y-68925775D01*
X128993441Y-68935921D01*
X129005051Y-68945068D01*
X129005054Y-68945070D01*
X129335204Y-69113168D01*
X129371649Y-69131724D01*
X129403574Y-69154913D01*
X129608595Y-69359934D01*
X129642621Y-69422246D01*
X129645500Y-69449029D01*
X129645500Y-72178315D01*
X129639322Y-72217286D01*
X129512085Y-72608489D01*
X129507855Y-72622895D01*
X129507526Y-72624148D01*
X129504211Y-72638399D01*
X129503390Y-72645432D01*
X129502831Y-72645366D01*
X129499933Y-72667033D01*
X129495500Y-72683575D01*
X129495500Y-72816417D01*
X129495499Y-72816417D01*
X129529881Y-72944730D01*
X129596297Y-73059766D01*
X129596305Y-73059776D01*
X129690223Y-73153694D01*
X129690228Y-73153698D01*
X129690230Y-73153700D01*
X129805270Y-73220119D01*
X129933581Y-73254500D01*
X129933583Y-73254500D01*
X130066417Y-73254500D01*
X130066419Y-73254500D01*
X130194730Y-73220119D01*
X130309770Y-73153700D01*
X130403700Y-73059770D01*
X130470119Y-72944730D01*
X130504500Y-72816419D01*
X130504500Y-72683581D01*
X130493068Y-72640919D01*
X130489655Y-72623169D01*
X130487914Y-72608489D01*
X130360678Y-72217286D01*
X130354500Y-72178315D01*
X130354500Y-70426999D01*
X140445500Y-70426999D01*
X140445500Y-70573001D01*
X140450180Y-70590467D01*
X140483289Y-70714033D01*
X140556286Y-70840467D01*
X140556294Y-70840477D01*
X140659522Y-70943705D01*
X140659527Y-70943709D01*
X140659529Y-70943711D01*
X140659530Y-70943712D01*
X140659532Y-70943713D01*
X140785966Y-71016710D01*
X140785968Y-71016710D01*
X140785971Y-71016712D01*
X140926999Y-71054500D01*
X140927001Y-71054500D01*
X141072999Y-71054500D01*
X141073001Y-71054500D01*
X141214029Y-71016712D01*
X141214032Y-71016710D01*
X141214033Y-71016710D01*
X141321344Y-70954754D01*
X141390339Y-70938016D01*
X141457431Y-70961236D01*
X141473439Y-70974778D01*
X142158595Y-71659934D01*
X142192621Y-71722246D01*
X142195500Y-71749029D01*
X142195500Y-71823001D01*
X142228824Y-71947372D01*
X142233289Y-71964033D01*
X142306286Y-72090467D01*
X142306294Y-72090477D01*
X142409522Y-72193705D01*
X142409527Y-72193709D01*
X142409529Y-72193711D01*
X142409530Y-72193712D01*
X142409532Y-72193713D01*
X142535966Y-72266710D01*
X142535968Y-72266710D01*
X142535971Y-72266712D01*
X142676999Y-72304500D01*
X142677001Y-72304500D01*
X142822999Y-72304500D01*
X142823001Y-72304500D01*
X142964029Y-72266712D01*
X142964032Y-72266710D01*
X142964033Y-72266710D01*
X143055007Y-72214186D01*
X143090471Y-72193711D01*
X143193711Y-72090471D01*
X143251968Y-71989566D01*
X143266710Y-71964033D01*
X143266710Y-71964032D01*
X143266712Y-71964029D01*
X143304500Y-71823001D01*
X143304500Y-71676999D01*
X143280207Y-71586335D01*
X143281897Y-71515363D01*
X143321691Y-71456567D01*
X143338910Y-71444612D01*
X143340471Y-71443711D01*
X143443711Y-71340471D01*
X143516712Y-71214029D01*
X143554500Y-71073001D01*
X143554500Y-70926999D01*
X143554497Y-70926991D01*
X143554284Y-70925368D01*
X143554281Y-70925340D01*
X143553973Y-70922998D01*
X143554500Y-70919621D01*
X143554500Y-70918741D01*
X143554637Y-70918741D01*
X143555399Y-70913862D01*
X158111539Y-70913862D01*
X158111539Y-70966756D01*
X158111539Y-71150046D01*
X158148486Y-71383322D01*
X158221471Y-71607946D01*
X158319004Y-71799365D01*
X158328698Y-71818390D01*
X158467523Y-72009466D01*
X158634526Y-72176469D01*
X158690706Y-72217286D01*
X158825606Y-72315297D01*
X159036047Y-72422522D01*
X159260671Y-72495507D01*
X159493947Y-72532454D01*
X159493950Y-72532454D01*
X159730128Y-72532454D01*
X159730131Y-72532454D01*
X159963407Y-72495507D01*
X160188031Y-72422522D01*
X160398472Y-72315297D01*
X160589549Y-72176471D01*
X160756556Y-72009464D01*
X160895382Y-71818387D01*
X161002607Y-71607946D01*
X161075592Y-71383322D01*
X161112539Y-71150046D01*
X161112539Y-70913862D01*
X161075592Y-70680586D01*
X161002607Y-70455962D01*
X160895382Y-70245521D01*
X160757900Y-70056294D01*
X160756554Y-70054441D01*
X160589551Y-69887438D01*
X160398475Y-69748613D01*
X160398474Y-69748612D01*
X160398472Y-69748611D01*
X160188031Y-69641386D01*
X159963407Y-69568401D01*
X159730131Y-69531454D01*
X159493947Y-69531454D01*
X159260671Y-69568401D01*
X159260668Y-69568401D01*
X159260667Y-69568402D01*
X159036047Y-69641386D01*
X159036045Y-69641387D01*
X158825602Y-69748613D01*
X158634526Y-69887438D01*
X158467523Y-70054441D01*
X158328698Y-70245517D01*
X158221472Y-70455960D01*
X158221471Y-70455962D01*
X158177768Y-70590467D01*
X158148486Y-70680586D01*
X158111539Y-70913862D01*
X143555399Y-70913862D01*
X143564922Y-70852851D01*
X143612057Y-70799759D01*
X143646279Y-70784865D01*
X143714029Y-70766712D01*
X143840471Y-70693711D01*
X143943711Y-70590471D01*
X143980211Y-70527250D01*
X144016710Y-70464033D01*
X144016710Y-70464032D01*
X144016712Y-70464029D01*
X144054500Y-70323001D01*
X144054500Y-70176999D01*
X144016712Y-70035971D01*
X144016710Y-70035968D01*
X144016710Y-70035966D01*
X143943713Y-69909532D01*
X143943705Y-69909522D01*
X143840477Y-69806294D01*
X143840467Y-69806286D01*
X143714033Y-69733289D01*
X143697372Y-69728824D01*
X143573001Y-69695500D01*
X143572999Y-69695500D01*
X143499029Y-69695500D01*
X143430908Y-69675498D01*
X143409934Y-69658595D01*
X142841405Y-69090066D01*
X142807379Y-69027754D01*
X142804500Y-69000971D01*
X142804500Y-68927000D01*
X142804172Y-68925775D01*
X142766712Y-68785971D01*
X142766710Y-68785968D01*
X142766710Y-68785966D01*
X142693713Y-68659532D01*
X142693705Y-68659522D01*
X142590477Y-68556294D01*
X142590467Y-68556286D01*
X142464033Y-68483289D01*
X142447372Y-68478824D01*
X142323001Y-68445500D01*
X142176999Y-68445500D01*
X142090686Y-68468627D01*
X142035966Y-68483289D01*
X141909532Y-68556286D01*
X141909522Y-68556294D01*
X141806294Y-68659522D01*
X141806286Y-68659532D01*
X141733288Y-68785969D01*
X141710417Y-68871323D01*
X141673465Y-68931946D01*
X141621323Y-68960417D01*
X141535969Y-68983288D01*
X141409532Y-69056286D01*
X141409522Y-69056294D01*
X141306294Y-69159522D01*
X141306286Y-69159532D01*
X141233289Y-69285966D01*
X141233288Y-69285971D01*
X141195500Y-69426999D01*
X141195500Y-69573001D01*
X141233288Y-69714029D01*
X141268624Y-69775233D01*
X141285362Y-69844227D01*
X141262142Y-69911319D01*
X141206335Y-69955207D01*
X141135660Y-69961956D01*
X141126896Y-69959940D01*
X141073003Y-69945500D01*
X141073001Y-69945500D01*
X140926999Y-69945500D01*
X140873108Y-69959940D01*
X140785966Y-69983289D01*
X140659532Y-70056286D01*
X140659522Y-70056294D01*
X140556294Y-70159522D01*
X140556286Y-70159532D01*
X140483289Y-70285966D01*
X140483288Y-70285971D01*
X140445500Y-70426999D01*
X130354500Y-70426999D01*
X130354500Y-69203329D01*
X130354499Y-69203325D01*
X130342764Y-69159532D01*
X130330341Y-69113168D01*
X130297505Y-69056294D01*
X130283673Y-69032335D01*
X130283669Y-69032330D01*
X130252310Y-69000971D01*
X130217668Y-68966329D01*
X129904914Y-68653575D01*
X129881726Y-68621650D01*
X129695083Y-68255079D01*
X129695078Y-68255071D01*
X129695070Y-68255054D01*
X129688019Y-68242127D01*
X129688017Y-68242124D01*
X129688008Y-68242107D01*
X129687344Y-68240969D01*
X129679467Y-68228306D01*
X129675064Y-68222737D01*
X129675507Y-68222386D01*
X129662248Y-68205035D01*
X129653702Y-68190233D01*
X129653694Y-68190223D01*
X129559776Y-68096305D01*
X129559766Y-68096297D01*
X129444730Y-68029881D01*
X129316419Y-67995500D01*
X129183581Y-67995500D01*
X129098040Y-68018420D01*
X129055269Y-68029881D01*
X128940233Y-68096297D01*
X128940223Y-68096305D01*
X128846305Y-68190223D01*
X128846297Y-68190233D01*
X128779881Y-68305269D01*
X128779881Y-68305270D01*
X128758972Y-68383305D01*
X128745500Y-68433582D01*
X128745500Y-68566417D01*
X128745499Y-68566417D01*
X102899018Y-68566417D01*
X103124276Y-67929581D01*
X103125515Y-67926236D01*
X103612974Y-66665501D01*
X103614312Y-66662183D01*
X104138073Y-65416091D01*
X104139507Y-65412812D01*
X104334879Y-64983262D01*
X138631341Y-64983262D01*
X138631341Y-65036156D01*
X138631341Y-65219446D01*
X138668288Y-65452722D01*
X138741273Y-65677346D01*
X138839358Y-65869848D01*
X138848500Y-65887790D01*
X138987325Y-66078866D01*
X139154328Y-66245869D01*
X139154331Y-66245871D01*
X139345408Y-66384697D01*
X139555849Y-66491922D01*
X139780473Y-66564907D01*
X140013749Y-66601854D01*
X140013752Y-66601854D01*
X140249930Y-66601854D01*
X140249933Y-66601854D01*
X140483209Y-66564907D01*
X140707833Y-66491922D01*
X140918274Y-66384697D01*
X141109351Y-66245871D01*
X141276358Y-66078864D01*
X141415184Y-65887787D01*
X141522409Y-65677346D01*
X141595394Y-65452722D01*
X141632341Y-65219446D01*
X141632341Y-64983262D01*
X141595394Y-64749986D01*
X141522409Y-64525362D01*
X141415184Y-64314921D01*
X141367550Y-64249359D01*
X141276356Y-64123841D01*
X141109353Y-63956838D01*
X140918277Y-63818013D01*
X140918276Y-63818012D01*
X140918274Y-63818011D01*
X140707833Y-63710786D01*
X140483209Y-63637801D01*
X140249933Y-63600854D01*
X140013749Y-63600854D01*
X139780473Y-63637801D01*
X139780470Y-63637801D01*
X139780469Y-63637802D01*
X139555849Y-63710786D01*
X139555847Y-63710787D01*
X139345404Y-63818013D01*
X139154328Y-63956838D01*
X138987325Y-64123841D01*
X138848500Y-64314917D01*
X138836804Y-64337872D01*
X138741273Y-64525362D01*
X138668288Y-64749986D01*
X138631341Y-64983262D01*
X104334879Y-64983262D01*
X104699155Y-64182353D01*
X104700666Y-64179156D01*
X105295699Y-62965443D01*
X105297288Y-62962315D01*
X105927229Y-61766314D01*
X105928936Y-61763183D01*
X106593238Y-60585935D01*
X106595024Y-60582874D01*
X107293145Y-59425341D01*
X107295001Y-59422363D01*
X108026326Y-58285564D01*
X108028294Y-58282600D01*
X108792261Y-57167407D01*
X108794287Y-57164541D01*
X109590198Y-56071976D01*
X109592338Y-56069127D01*
X110419522Y-55000105D01*
X110421788Y-54997263D01*
X110479485Y-54926999D01*
X120945500Y-54926999D01*
X120945500Y-55073001D01*
X120968651Y-55159402D01*
X120983289Y-55214032D01*
X121039851Y-55312001D01*
X121056588Y-55380996D01*
X121039851Y-55437999D01*
X120983289Y-55535967D01*
X120983288Y-55535971D01*
X120945500Y-55676999D01*
X120945500Y-55823001D01*
X120973366Y-55926999D01*
X120983289Y-55964033D01*
X121056286Y-56090467D01*
X121056294Y-56090477D01*
X121159522Y-56193705D01*
X121159527Y-56193709D01*
X121159529Y-56193711D01*
X121159530Y-56193712D01*
X121159532Y-56193713D01*
X121285966Y-56266710D01*
X121285968Y-56266710D01*
X121285971Y-56266712D01*
X121426999Y-56304500D01*
X121534649Y-56304500D01*
X121550382Y-56308715D01*
X121564345Y-56308049D01*
X121597640Y-56321376D01*
X121601621Y-56323674D01*
X121601628Y-56323682D01*
X121601630Y-56323680D01*
X121613162Y-56330338D01*
X121613164Y-56330339D01*
X121613168Y-56330341D01*
X121613171Y-56330341D01*
X121613174Y-56330343D01*
X121703325Y-56354499D01*
X121703329Y-56354500D01*
X121796671Y-56354500D01*
X122768128Y-56354500D01*
X122836249Y-56374502D01*
X122857218Y-56391400D01*
X122909529Y-56443711D01*
X122909530Y-56443712D01*
X122909532Y-56443713D01*
X123035966Y-56516710D01*
X123035968Y-56516710D01*
X123035971Y-56516712D01*
X123176999Y-56554500D01*
X123177001Y-56554500D01*
X123322999Y-56554500D01*
X123323001Y-56554500D01*
X123464029Y-56516712D01*
X123464032Y-56516710D01*
X123464033Y-56516710D01*
X123527250Y-56480211D01*
X123590471Y-56443711D01*
X123693711Y-56340471D01*
X123766712Y-56214029D01*
X123804500Y-56073001D01*
X123804500Y-55926999D01*
X123766712Y-55785971D01*
X123766710Y-55785968D01*
X123766710Y-55785966D01*
X123710149Y-55688000D01*
X123693411Y-55619005D01*
X123710149Y-55562000D01*
X123766710Y-55464033D01*
X123766710Y-55464032D01*
X123766712Y-55464029D01*
X123804500Y-55323001D01*
X123804500Y-55176999D01*
X123766712Y-55035971D01*
X123766710Y-55035968D01*
X123766710Y-55035966D01*
X123693713Y-54909532D01*
X123693705Y-54909522D01*
X123590477Y-54806294D01*
X123590467Y-54806286D01*
X123464033Y-54733289D01*
X123447372Y-54728824D01*
X123323001Y-54695500D01*
X123176999Y-54695500D01*
X123090686Y-54718627D01*
X123035966Y-54733289D01*
X122909532Y-54806286D01*
X122909527Y-54806290D01*
X122893976Y-54821842D01*
X122857221Y-54858596D01*
X122794912Y-54892620D01*
X122768128Y-54895500D01*
X122142743Y-54895500D01*
X122074622Y-54875498D01*
X122028129Y-54821842D01*
X122021038Y-54802118D01*
X122016712Y-54785971D01*
X122016710Y-54785968D01*
X122016710Y-54785966D01*
X121943713Y-54659532D01*
X121943705Y-54659522D01*
X121840477Y-54556294D01*
X121840467Y-54556286D01*
X121714033Y-54483289D01*
X121697372Y-54478824D01*
X121573001Y-54445500D01*
X121426999Y-54445500D01*
X121340686Y-54468627D01*
X121285966Y-54483289D01*
X121159532Y-54556286D01*
X121159522Y-54556294D01*
X121056294Y-54659522D01*
X121056286Y-54659532D01*
X120983289Y-54785966D01*
X120973676Y-54821842D01*
X120945500Y-54926999D01*
X110479485Y-54926999D01*
X111279601Y-53952615D01*
X111281864Y-53949940D01*
X112169594Y-52930538D01*
X112171961Y-52927898D01*
X113088812Y-51934657D01*
X113091314Y-51932026D01*
X114036520Y-50965770D01*
X114039014Y-50963294D01*
X114562879Y-50457905D01*
X116578833Y-50457905D01*
X116578834Y-50457915D01*
X116600557Y-50729149D01*
X116656538Y-50984952D01*
X116658729Y-50994961D01*
X116676867Y-51044500D01*
X116752283Y-51250477D01*
X116831077Y-51399449D01*
X116879503Y-51491007D01*
X117038057Y-51712142D01*
X117038058Y-51712143D01*
X117225034Y-51909826D01*
X117433333Y-52077475D01*
X117437010Y-52080434D01*
X117617741Y-52189301D01*
X117670092Y-52220836D01*
X117670096Y-52220838D01*
X117750616Y-52255512D01*
X117920008Y-52328457D01*
X117920011Y-52328458D01*
X117920014Y-52328459D01*
X118182173Y-52401323D01*
X118208269Y-52404882D01*
X118451780Y-52438098D01*
X118587832Y-52438030D01*
X118654250Y-52438032D01*
X118654257Y-52438030D01*
X123723597Y-52438030D01*
X123791718Y-52458032D01*
X123838211Y-52511688D01*
X123848315Y-52581962D01*
X123818821Y-52646542D01*
X123812692Y-52653125D01*
X123806294Y-52659522D01*
X123806286Y-52659532D01*
X123733289Y-52785966D01*
X123717448Y-52845087D01*
X123695500Y-52926999D01*
X123695500Y-53073001D01*
X123718606Y-53159235D01*
X123733289Y-53214033D01*
X123806286Y-53340467D01*
X123806294Y-53340477D01*
X123909522Y-53443705D01*
X123909527Y-53443709D01*
X123909529Y-53443711D01*
X123909530Y-53443712D01*
X123909532Y-53443713D01*
X124035966Y-53516710D01*
X124035968Y-53516710D01*
X124035971Y-53516712D01*
X124176999Y-53554500D01*
X124250971Y-53554500D01*
X124280886Y-53563283D01*
X124311356Y-53569912D01*
X124316451Y-53573726D01*
X124319092Y-53574502D01*
X124340066Y-53591405D01*
X124358595Y-53609934D01*
X124392621Y-53672246D01*
X124395500Y-53699029D01*
X124395500Y-54518127D01*
X124375498Y-54586248D01*
X124358595Y-54607222D01*
X124306294Y-54659522D01*
X124306286Y-54659532D01*
X124233289Y-54785966D01*
X124223676Y-54821842D01*
X124195500Y-54926999D01*
X124195500Y-55073001D01*
X124218651Y-55159402D01*
X124233289Y-55214033D01*
X124306286Y-55340467D01*
X124306294Y-55340477D01*
X124409522Y-55443705D01*
X124409527Y-55443709D01*
X124409529Y-55443711D01*
X124409530Y-55443712D01*
X124409532Y-55443713D01*
X124535966Y-55516710D01*
X124535968Y-55516710D01*
X124535971Y-55516712D01*
X124676999Y-55554500D01*
X124677001Y-55554500D01*
X124822999Y-55554500D01*
X124823001Y-55554500D01*
X124964029Y-55516712D01*
X124964032Y-55516710D01*
X124964033Y-55516710D01*
X125055279Y-55464029D01*
X125090471Y-55443711D01*
X125193711Y-55340471D01*
X125266712Y-55214029D01*
X125304500Y-55073001D01*
X125304500Y-54926999D01*
X125266712Y-54785971D01*
X125266710Y-54785968D01*
X125266710Y-54785966D01*
X125193713Y-54659532D01*
X125193705Y-54659522D01*
X125141405Y-54607222D01*
X125107379Y-54544910D01*
X125104500Y-54518127D01*
X125104500Y-53672161D01*
X125124502Y-53604040D01*
X125178158Y-53557547D01*
X125248432Y-53547443D01*
X125313012Y-53576937D01*
X125319595Y-53583066D01*
X125320223Y-53583694D01*
X125320228Y-53583698D01*
X125320230Y-53583700D01*
X125320231Y-53583701D01*
X125320233Y-53583702D01*
X125364865Y-53609470D01*
X125435270Y-53650119D01*
X125563581Y-53684500D01*
X125563583Y-53684500D01*
X125696417Y-53684500D01*
X125696419Y-53684500D01*
X125824730Y-53650119D01*
X125939770Y-53583700D01*
X126033700Y-53489770D01*
X126055779Y-53451526D01*
X126065930Y-53436545D01*
X126068265Y-53433582D01*
X126075070Y-53424945D01*
X126261725Y-53058347D01*
X126263145Y-53056391D01*
X126263419Y-53055136D01*
X126284907Y-53026430D01*
X126435405Y-52875934D01*
X126497718Y-52841909D01*
X126524500Y-52839030D01*
X127436623Y-52839030D01*
X127504744Y-52859032D01*
X127525717Y-52875934D01*
X129547452Y-54897668D01*
X129613455Y-54963671D01*
X129613456Y-54963672D01*
X129613458Y-54963673D01*
X129694289Y-55010340D01*
X129694291Y-55010341D01*
X129784452Y-55034500D01*
X135770971Y-55034500D01*
X135839092Y-55054502D01*
X135860066Y-55071405D01*
X139196027Y-58407366D01*
X142530857Y-61742195D01*
X142564883Y-61804507D01*
X142559818Y-61875322D01*
X142517271Y-61932158D01*
X142480733Y-61951112D01*
X142117283Y-62069322D01*
X142078312Y-62075500D01*
X141309029Y-62075500D01*
X141240908Y-62055498D01*
X141219934Y-62038595D01*
X140524914Y-61343575D01*
X140501726Y-61311650D01*
X140315083Y-60945079D01*
X140315078Y-60945071D01*
X140315070Y-60945054D01*
X140308019Y-60932127D01*
X140308017Y-60932124D01*
X140308008Y-60932107D01*
X140307344Y-60930969D01*
X140299467Y-60918306D01*
X140295064Y-60912737D01*
X140295507Y-60912386D01*
X140282248Y-60895035D01*
X140273702Y-60880233D01*
X140273694Y-60880223D01*
X140179776Y-60786305D01*
X140179766Y-60786297D01*
X140064730Y-60719881D01*
X139936419Y-60685500D01*
X139803581Y-60685500D01*
X139718040Y-60708420D01*
X139675269Y-60719881D01*
X139560233Y-60786297D01*
X139560223Y-60786305D01*
X139466305Y-60880223D01*
X139466297Y-60880233D01*
X139399881Y-60995269D01*
X139365500Y-61123582D01*
X139365500Y-61256417D01*
X139365499Y-61256417D01*
X139399881Y-61384730D01*
X139466297Y-61499766D01*
X139466305Y-61499776D01*
X139560223Y-61593694D01*
X139560228Y-61593698D01*
X139560230Y-61593700D01*
X139560231Y-61593701D01*
X139560233Y-61593702D01*
X139598465Y-61615775D01*
X139613441Y-61625921D01*
X139625051Y-61635068D01*
X139625054Y-61635070D01*
X139957834Y-61804507D01*
X139991649Y-61821724D01*
X140023574Y-61844913D01*
X140826329Y-62647668D01*
X140892332Y-62713671D01*
X140892333Y-62713672D01*
X140892335Y-62713673D01*
X140973166Y-62760340D01*
X140973168Y-62760341D01*
X141063329Y-62784500D01*
X142078315Y-62784500D01*
X142117286Y-62790678D01*
X142508489Y-62917914D01*
X142522662Y-62922081D01*
X142522671Y-62922083D01*
X142522680Y-62922086D01*
X142523968Y-62922425D01*
X142538400Y-62925788D01*
X142545449Y-62926613D01*
X142545383Y-62927173D01*
X142567033Y-62930066D01*
X142583581Y-62934500D01*
X142583583Y-62934500D01*
X142716417Y-62934500D01*
X142716419Y-62934500D01*
X142844730Y-62900119D01*
X142959770Y-62833700D01*
X143053700Y-62739770D01*
X143120119Y-62624730D01*
X143125610Y-62604234D01*
X143162560Y-62543613D01*
X143226420Y-62512590D01*
X143296915Y-62521017D01*
X143336412Y-62547750D01*
X144715084Y-63926422D01*
X144738272Y-63958347D01*
X144924915Y-64324919D01*
X144931990Y-64337891D01*
X144932654Y-64339029D01*
X144940531Y-64351692D01*
X144944935Y-64357262D01*
X144944489Y-64357613D01*
X144957749Y-64374961D01*
X144966300Y-64389770D01*
X144966303Y-64389773D01*
X144966306Y-64389777D01*
X145060223Y-64483694D01*
X145060228Y-64483698D01*
X145060230Y-64483700D01*
X145175270Y-64550119D01*
X145303581Y-64584500D01*
X145303583Y-64584500D01*
X145436417Y-64584500D01*
X145436419Y-64584500D01*
X145564730Y-64550119D01*
X145679770Y-64483700D01*
X145773700Y-64389770D01*
X145790202Y-64361188D01*
X182881577Y-64361188D01*
X182881577Y-64414082D01*
X182881577Y-64597372D01*
X182918524Y-64830648D01*
X182991509Y-65055272D01*
X182991510Y-65055273D01*
X183098736Y-65265716D01*
X183237561Y-65456792D01*
X183404564Y-65623795D01*
X183404567Y-65623797D01*
X183595644Y-65762623D01*
X183806085Y-65869848D01*
X184030709Y-65942833D01*
X184263985Y-65979780D01*
X184263988Y-65979780D01*
X184500166Y-65979780D01*
X184500169Y-65979780D01*
X184733445Y-65942833D01*
X184958069Y-65869848D01*
X185168510Y-65762623D01*
X185359587Y-65623797D01*
X185526594Y-65456790D01*
X185665420Y-65265713D01*
X185772645Y-65055272D01*
X185845630Y-64830648D01*
X185882577Y-64597372D01*
X185882577Y-64361188D01*
X185845630Y-64127912D01*
X185772645Y-63903288D01*
X185665420Y-63692847D01*
X185526594Y-63501770D01*
X185526592Y-63501767D01*
X185359589Y-63334764D01*
X185168513Y-63195939D01*
X185168512Y-63195938D01*
X185168510Y-63195937D01*
X184958069Y-63088712D01*
X184733445Y-63015727D01*
X184500169Y-62978780D01*
X184263985Y-62978780D01*
X184030709Y-63015727D01*
X184030706Y-63015727D01*
X184030705Y-63015728D01*
X183806085Y-63088712D01*
X183806083Y-63088713D01*
X183595640Y-63195939D01*
X183404564Y-63334764D01*
X183237561Y-63501767D01*
X183098736Y-63692843D01*
X182991510Y-63903286D01*
X182991509Y-63903288D01*
X182919846Y-64123844D01*
X182918524Y-64127912D01*
X182881577Y-64361188D01*
X145790202Y-64361188D01*
X145813675Y-64320531D01*
X145829434Y-64293237D01*
X145832382Y-64288130D01*
X145840119Y-64274730D01*
X145874500Y-64146419D01*
X145874500Y-64013581D01*
X145840119Y-63885270D01*
X145773700Y-63770230D01*
X145773698Y-63770228D01*
X145773694Y-63770223D01*
X145679776Y-63676305D01*
X145679772Y-63676302D01*
X145679770Y-63676300D01*
X145641526Y-63654220D01*
X145626559Y-63644080D01*
X145614944Y-63634929D01*
X145614941Y-63634927D01*
X145614940Y-63634926D01*
X145248350Y-63448274D01*
X145216425Y-63425086D01*
X140600707Y-58809367D01*
X140517799Y-58726459D01*
X174944271Y-58726459D01*
X174944271Y-58726462D01*
X174944271Y-58893996D01*
X174976955Y-59058311D01*
X175041068Y-59213092D01*
X175041069Y-59213093D01*
X175134144Y-59352390D01*
X175134149Y-59352396D01*
X175252603Y-59470850D01*
X175252609Y-59470855D01*
X175391908Y-59563932D01*
X175546689Y-59628045D01*
X175711004Y-59660729D01*
X175711005Y-59660729D01*
X175878537Y-59660729D01*
X175878538Y-59660729D01*
X176042853Y-59628045D01*
X176197634Y-59563932D01*
X176336933Y-59470855D01*
X176455397Y-59352391D01*
X176548474Y-59213092D01*
X176612587Y-59058311D01*
X176645271Y-58893996D01*
X176645271Y-58726462D01*
X176612587Y-58562147D01*
X176548474Y-58407366D01*
X176455397Y-58268067D01*
X176455392Y-58268061D01*
X176336938Y-58149607D01*
X176336932Y-58149602D01*
X176197635Y-58056527D01*
X176197636Y-58056527D01*
X176197634Y-58056526D01*
X176088191Y-58011193D01*
X176042856Y-57992414D01*
X176042854Y-57992413D01*
X176042853Y-57992413D01*
X175960139Y-57975960D01*
X175878540Y-57959729D01*
X175878538Y-57959729D01*
X175711004Y-57959729D01*
X175711001Y-57959729D01*
X175588601Y-57984076D01*
X175546689Y-57992413D01*
X175546688Y-57992413D01*
X175546685Y-57992414D01*
X175391906Y-58056527D01*
X175252609Y-58149602D01*
X175252603Y-58149607D01*
X175134149Y-58268061D01*
X175134144Y-58268067D01*
X175041069Y-58407364D01*
X174976956Y-58562143D01*
X174944271Y-58726459D01*
X140517799Y-58726459D01*
X136187674Y-54396334D01*
X136187664Y-54396326D01*
X136106833Y-54349659D01*
X136016674Y-54325500D01*
X136016671Y-54325500D01*
X130030152Y-54325500D01*
X129962031Y-54305498D01*
X129941062Y-54288600D01*
X129857104Y-54204642D01*
X129823082Y-54142335D01*
X129828146Y-54071519D01*
X129870692Y-54014683D01*
X129937213Y-53989872D01*
X129978812Y-53993843D01*
X130018581Y-54004500D01*
X130018582Y-54004500D01*
X130151417Y-54004500D01*
X130151419Y-54004500D01*
X130279730Y-53970119D01*
X130394770Y-53903700D01*
X130488700Y-53809770D01*
X130510779Y-53771526D01*
X130520930Y-53756545D01*
X130526263Y-53749777D01*
X130530070Y-53744945D01*
X130716725Y-53378347D01*
X130739908Y-53346429D01*
X131194935Y-52891404D01*
X131257247Y-52857379D01*
X131284030Y-52854500D01*
X133046671Y-52854500D01*
X133136832Y-52830341D01*
X133217668Y-52783671D01*
X133283671Y-52717668D01*
X133330341Y-52636832D01*
X133354500Y-52546671D01*
X133354500Y-50914615D01*
X133374502Y-50846494D01*
X133428158Y-50800001D01*
X133498432Y-50789897D01*
X133505083Y-50791036D01*
X133519983Y-50793999D01*
X133964500Y-50793999D01*
X134032621Y-50814001D01*
X134079114Y-50867656D01*
X134090500Y-50919999D01*
X134090500Y-52815063D01*
X134090501Y-52815073D01*
X134105265Y-52889300D01*
X134161516Y-52973484D01*
X134245697Y-53029733D01*
X134245699Y-53029734D01*
X134319933Y-53044500D01*
X134509312Y-53044499D01*
X134577430Y-53064501D01*
X134623923Y-53118156D01*
X134634028Y-53188430D01*
X134604535Y-53253011D01*
X134598406Y-53259593D01*
X134591001Y-53266998D01*
X134591001Y-53515022D01*
X134605737Y-53589105D01*
X134605737Y-53589107D01*
X134661875Y-53673124D01*
X134745893Y-53729262D01*
X134745894Y-53729263D01*
X134819980Y-53743999D01*
X135268000Y-53743999D01*
X135268000Y-53266999D01*
X135260595Y-53259594D01*
X135249812Y-53239847D01*
X135235076Y-53222841D01*
X135233128Y-53209293D01*
X135226569Y-53197282D01*
X135228174Y-53174838D01*
X135224972Y-53152567D01*
X135230657Y-53140117D01*
X135231634Y-53126467D01*
X135245118Y-53108453D01*
X135254466Y-53087987D01*
X135265978Y-53080588D01*
X135274181Y-53069631D01*
X135295264Y-53061767D01*
X135314192Y-53049603D01*
X135336462Y-53046400D01*
X135340701Y-53044820D01*
X135349679Y-53044499D01*
X135440311Y-53044499D01*
X135508431Y-53064501D01*
X135554924Y-53118157D01*
X135565028Y-53188431D01*
X135535534Y-53253011D01*
X135529405Y-53259594D01*
X135522000Y-53266999D01*
X135522000Y-53743999D01*
X135970014Y-53743999D01*
X135970022Y-53743998D01*
X136044105Y-53729262D01*
X136044107Y-53729262D01*
X136128124Y-53673124D01*
X136184262Y-53589106D01*
X136184263Y-53589105D01*
X136198999Y-53515022D01*
X136199000Y-53515015D01*
X136199000Y-53267000D01*
X136104574Y-53267000D01*
X136071545Y-53257302D01*
X136038360Y-53248199D01*
X136037577Y-53247328D01*
X136036453Y-53246998D01*
X136013891Y-53220960D01*
X135990915Y-53195383D01*
X135990727Y-53194228D01*
X135989960Y-53193342D01*
X135985056Y-53159235D01*
X135979556Y-53125301D01*
X135980022Y-53124228D01*
X135979856Y-53123068D01*
X135994153Y-53091761D01*
X136007889Y-53060204D01*
X136009037Y-53059172D01*
X136009350Y-53058488D01*
X136034569Y-53036237D01*
X136037562Y-53034237D01*
X136105314Y-53013020D01*
X136107567Y-53013000D01*
X136198999Y-53013000D01*
X136198999Y-52826343D01*
X136199499Y-52816146D01*
X136199499Y-52815072D01*
X136199500Y-52815067D01*
X136199499Y-52470498D01*
X136219501Y-52402379D01*
X136273156Y-52355886D01*
X136325499Y-52344499D01*
X136670064Y-52344499D01*
X136670066Y-52344499D01*
X136670069Y-52344498D01*
X136670072Y-52344498D01*
X136706663Y-52337219D01*
X136744301Y-52329734D01*
X136828484Y-52273484D01*
X136884734Y-52189301D01*
X136899500Y-52115067D01*
X136899499Y-50814934D01*
X136899498Y-50814931D01*
X136899498Y-50814926D01*
X136884734Y-50740699D01*
X136836292Y-50668202D01*
X136828484Y-50656516D01*
X136826118Y-50654935D01*
X136744302Y-50600266D01*
X136670069Y-50585500D01*
X135319691Y-50585500D01*
X135251570Y-50565498D01*
X135230596Y-50548595D01*
X135199001Y-50517000D01*
X134371000Y-50517000D01*
X134362174Y-50514408D01*
X134353068Y-50515718D01*
X134328642Y-50504562D01*
X134302879Y-50496998D01*
X134296854Y-50490044D01*
X134288488Y-50486224D01*
X134273973Y-50463638D01*
X134256386Y-50443342D01*
X134254061Y-50432655D01*
X134250104Y-50426498D01*
X134245000Y-50391000D01*
X134245000Y-50389000D01*
X134265002Y-50320879D01*
X134318658Y-50274386D01*
X134371000Y-50263000D01*
X135198999Y-50263000D01*
X135198999Y-50214986D01*
X135198998Y-50214979D01*
X135188974Y-50164582D01*
X135188974Y-50115418D01*
X135198999Y-50065017D01*
X135199000Y-50065015D01*
X135199000Y-50017000D01*
X135104574Y-50017000D01*
X135071545Y-50007302D01*
X135038360Y-49998199D01*
X135037577Y-49997328D01*
X135036453Y-49996998D01*
X135013891Y-49970960D01*
X134990915Y-49945383D01*
X134990727Y-49944228D01*
X134989960Y-49943342D01*
X134985056Y-49909235D01*
X134979556Y-49875301D01*
X134980022Y-49874228D01*
X134979856Y-49873068D01*
X134994153Y-49841761D01*
X135007889Y-49810204D01*
X135009037Y-49809172D01*
X135009350Y-49808488D01*
X135034569Y-49786237D01*
X135037562Y-49784237D01*
X135105314Y-49763020D01*
X135107567Y-49763000D01*
X135198999Y-49763000D01*
X135198999Y-49714986D01*
X135198998Y-49714977D01*
X135189229Y-49665861D01*
X135189229Y-49616703D01*
X135199500Y-49565067D01*
X135199499Y-49214934D01*
X135199498Y-49214931D01*
X135199498Y-49214926D01*
X135189484Y-49164580D01*
X135189484Y-49115421D01*
X135199500Y-49065067D01*
X135199499Y-48714934D01*
X135199498Y-48714931D01*
X135199498Y-48714926D01*
X135189484Y-48664580D01*
X135189402Y-48662657D01*
X135188954Y-48661749D01*
X135189041Y-48654084D01*
X135187854Y-48625903D01*
X135188447Y-48620632D01*
X135199500Y-48565067D01*
X135199499Y-48522468D01*
X135200290Y-48515450D01*
X135211410Y-48488978D01*
X135219499Y-48461429D01*
X135224979Y-48456680D01*
X135227788Y-48449994D01*
X135251457Y-48433736D01*
X135273154Y-48414935D01*
X135280331Y-48413902D01*
X135286309Y-48409797D01*
X135315006Y-48408916D01*
X135343428Y-48404829D01*
X135356368Y-48407646D01*
X135357272Y-48407619D01*
X135357858Y-48407971D01*
X135361038Y-48408663D01*
X135370406Y-48411417D01*
X135372665Y-48412082D01*
X135373968Y-48412425D01*
X135388400Y-48415788D01*
X135395449Y-48416613D01*
X135395383Y-48417173D01*
X135417033Y-48420066D01*
X135433581Y-48424500D01*
X135433583Y-48424500D01*
X135566417Y-48424500D01*
X135566419Y-48424500D01*
X135694730Y-48390119D01*
X135809770Y-48323700D01*
X135903700Y-48229770D01*
X135970119Y-48114730D01*
X136004500Y-47986419D01*
X136004500Y-47853581D01*
X135970119Y-47725270D01*
X135924869Y-47646896D01*
X135903702Y-47610233D01*
X135903694Y-47610223D01*
X135809776Y-47516305D01*
X135809766Y-47516297D01*
X135694730Y-47449881D01*
X135566419Y-47415500D01*
X135433581Y-47415500D01*
X135433575Y-47415500D01*
X135390925Y-47426928D01*
X135377691Y-47429723D01*
X135375428Y-47430075D01*
X135358490Y-47432085D01*
X135354799Y-47433285D01*
X135344873Y-47434830D01*
X135313381Y-47430673D01*
X135281713Y-47428475D01*
X135278482Y-47426067D01*
X135274487Y-47425540D01*
X135250249Y-47405024D01*
X135224788Y-47386047D01*
X135223371Y-47382273D01*
X135220297Y-47379671D01*
X135210999Y-47349311D01*
X135199839Y-47319579D01*
X135199558Y-47311956D01*
X135199507Y-47311787D01*
X135199547Y-47311643D01*
X135199499Y-47310328D01*
X135199499Y-47214936D01*
X135199498Y-47214929D01*
X135189229Y-47163301D01*
X135189229Y-47114138D01*
X135198999Y-47065019D01*
X135199000Y-47065015D01*
X135199000Y-47017000D01*
X135107568Y-47017000D01*
X135089128Y-47011585D01*
X135069914Y-47011242D01*
X135041251Y-46997527D01*
X135039447Y-46996998D01*
X135037563Y-46995763D01*
X135036065Y-46994762D01*
X134990539Y-46940284D01*
X134981693Y-46869840D01*
X135012336Y-46805797D01*
X135036129Y-46785193D01*
X135037626Y-46784194D01*
X135057224Y-46778069D01*
X135072739Y-46768487D01*
X135087072Y-46768743D01*
X135105392Y-46763019D01*
X135107567Y-46763000D01*
X135198999Y-46763000D01*
X135198999Y-46714986D01*
X135198998Y-46714977D01*
X135189229Y-46665861D01*
X135189229Y-46616703D01*
X135199500Y-46565067D01*
X135199499Y-46340027D01*
X135219501Y-46271908D01*
X135273156Y-46225415D01*
X135343430Y-46215310D01*
X135408011Y-46244803D01*
X135414594Y-46250933D01*
X136108595Y-46944934D01*
X136142621Y-47007246D01*
X136145500Y-47034029D01*
X136145500Y-47475906D01*
X136169659Y-47566065D01*
X136216326Y-47646896D01*
X136216334Y-47646906D01*
X137877097Y-49307668D01*
X137943100Y-49373671D01*
X137943101Y-49373672D01*
X137943103Y-49373673D01*
X138019569Y-49417820D01*
X138023936Y-49420341D01*
X138114097Y-49444500D01*
X138546073Y-49444500D01*
X138614194Y-49464502D01*
X138660687Y-49518158D01*
X138670791Y-49588432D01*
X138667780Y-49603110D01*
X138637806Y-49714977D01*
X138635500Y-49723582D01*
X138635500Y-49856417D01*
X138635499Y-49856417D01*
X138669881Y-49984730D01*
X138736297Y-50099766D01*
X138736305Y-50099776D01*
X138830223Y-50193694D01*
X138830228Y-50193698D01*
X138830230Y-50193700D01*
X138830231Y-50193701D01*
X138830233Y-50193702D01*
X138868465Y-50215775D01*
X138883441Y-50225921D01*
X138895052Y-50235069D01*
X138895057Y-50235072D01*
X139261648Y-50421725D01*
X139293573Y-50444913D01*
X139672325Y-50823665D01*
X139672330Y-50823669D01*
X139672332Y-50823671D01*
X139753168Y-50870341D01*
X139843329Y-50894500D01*
X139936671Y-50894500D01*
X141915765Y-50894500D01*
X141983886Y-50914502D01*
X142030379Y-50968158D01*
X142040483Y-51038432D01*
X142028048Y-51077667D01*
X141969030Y-51193582D01*
X141873275Y-51381646D01*
X141850088Y-51413571D01*
X141325066Y-51938595D01*
X141262753Y-51972620D01*
X141235970Y-51975500D01*
X139711686Y-51975500D01*
X139672715Y-51969322D01*
X139281504Y-51842083D01*
X139267292Y-51837905D01*
X139266029Y-51837573D01*
X139266023Y-51837571D01*
X139266017Y-51837570D01*
X139261627Y-51836547D01*
X139251600Y-51834211D01*
X139244561Y-51833388D01*
X139244626Y-51832830D01*
X139222966Y-51829933D01*
X139206423Y-51825500D01*
X139206419Y-51825500D01*
X139073581Y-51825500D01*
X139011693Y-51842083D01*
X138945269Y-51859881D01*
X138830233Y-51926297D01*
X138830223Y-51926305D01*
X138736305Y-52020223D01*
X138736297Y-52020233D01*
X138669881Y-52135269D01*
X138635500Y-52263582D01*
X138635500Y-52396417D01*
X138635499Y-52396417D01*
X138669881Y-52524730D01*
X138736297Y-52639766D01*
X138736305Y-52639776D01*
X138830223Y-52733694D01*
X138830228Y-52733698D01*
X138830230Y-52733700D01*
X138830231Y-52733701D01*
X138830233Y-52733702D01*
X138859385Y-52750533D01*
X138945270Y-52800119D01*
X139073581Y-52834500D01*
X139073583Y-52834500D01*
X139206418Y-52834500D01*
X139206419Y-52834500D01*
X139249085Y-52823067D01*
X139266832Y-52819655D01*
X139281510Y-52817914D01*
X139672714Y-52690678D01*
X139711685Y-52684500D01*
X141481671Y-52684500D01*
X141571832Y-52660341D01*
X141652668Y-52613671D01*
X142351429Y-51914908D01*
X142383347Y-51891725D01*
X142749945Y-51705070D01*
X142762872Y-51698019D01*
X142764025Y-51697347D01*
X142776694Y-51689466D01*
X142782263Y-51685063D01*
X142782616Y-51685509D01*
X142799966Y-51672246D01*
X142814770Y-51663700D01*
X142908700Y-51569770D01*
X142975119Y-51454730D01*
X143009500Y-51326419D01*
X143009500Y-51193581D01*
X143009499Y-51193580D01*
X143008422Y-51185395D01*
X143010606Y-51185107D01*
X143012011Y-51125714D01*
X143051796Y-51066912D01*
X143099419Y-51042356D01*
X143219730Y-51010119D01*
X143327501Y-50947896D01*
X143396495Y-50931159D01*
X143463587Y-50954379D01*
X143507474Y-51010186D01*
X143516500Y-51057016D01*
X143516500Y-51789969D01*
X143496498Y-51858090D01*
X143479595Y-51879065D01*
X142573571Y-52785088D01*
X142541646Y-52808275D01*
X142175048Y-52994931D01*
X142161956Y-53002078D01*
X142160786Y-53002761D01*
X142148305Y-53010532D01*
X142142749Y-53014927D01*
X142142398Y-53014484D01*
X142125037Y-53027750D01*
X142110230Y-53036299D01*
X142110226Y-53036302D01*
X142016305Y-53130223D01*
X142016297Y-53130233D01*
X141949881Y-53245269D01*
X141915500Y-53373582D01*
X141915500Y-53506417D01*
X141915499Y-53506417D01*
X141949881Y-53634730D01*
X142016297Y-53749766D01*
X142016305Y-53749776D01*
X142110223Y-53843694D01*
X142110228Y-53843698D01*
X142110230Y-53843700D01*
X142225270Y-53910119D01*
X142353581Y-53944500D01*
X142353583Y-53944500D01*
X142486417Y-53944500D01*
X142486419Y-53944500D01*
X142614730Y-53910119D01*
X142729770Y-53843700D01*
X142796758Y-53776712D01*
X179894018Y-53776712D01*
X179894018Y-53944251D01*
X179908028Y-54014683D01*
X179921161Y-54080709D01*
X179926703Y-54108567D01*
X179945482Y-54153902D01*
X179990815Y-54263345D01*
X179990816Y-54263346D01*
X180083891Y-54402643D01*
X180083896Y-54402649D01*
X180202350Y-54521103D01*
X180202356Y-54521108D01*
X180341655Y-54614185D01*
X180496436Y-54678298D01*
X180660751Y-54710982D01*
X180660752Y-54710982D01*
X180828284Y-54710982D01*
X180828285Y-54710982D01*
X180992600Y-54678298D01*
X181147381Y-54614185D01*
X181286680Y-54521108D01*
X181405144Y-54402644D01*
X181498221Y-54263345D01*
X181562334Y-54108564D01*
X181595018Y-53944249D01*
X181595018Y-53776715D01*
X181562334Y-53612400D01*
X181498221Y-53457619D01*
X181405144Y-53318320D01*
X181405139Y-53318314D01*
X181286685Y-53199860D01*
X181286679Y-53199855D01*
X181215907Y-53152567D01*
X181147381Y-53106779D01*
X181017937Y-53053161D01*
X180992603Y-53042667D01*
X180992601Y-53042666D01*
X180992600Y-53042666D01*
X180909886Y-53026213D01*
X180828287Y-53009982D01*
X180828285Y-53009982D01*
X180660751Y-53009982D01*
X180660748Y-53009982D01*
X180571424Y-53027750D01*
X180496436Y-53042666D01*
X180496435Y-53042666D01*
X180496432Y-53042667D01*
X180387022Y-53087987D01*
X180366949Y-53096302D01*
X180341653Y-53106780D01*
X180202356Y-53199855D01*
X180202350Y-53199860D01*
X180083896Y-53318314D01*
X180083891Y-53318320D01*
X179990816Y-53457617D01*
X179926703Y-53612396D01*
X179926702Y-53612399D01*
X179926702Y-53612400D01*
X179919199Y-53650119D01*
X179894018Y-53776712D01*
X142796758Y-53776712D01*
X142823700Y-53749770D01*
X142845779Y-53711526D01*
X142855932Y-53696542D01*
X142859089Y-53692536D01*
X142859089Y-53692535D01*
X142865070Y-53684945D01*
X143051726Y-53318345D01*
X143074906Y-53286431D01*
X144154671Y-52206668D01*
X144170921Y-52178522D01*
X144201341Y-52125832D01*
X144225500Y-52035671D01*
X144225500Y-48989219D01*
X144201341Y-48899058D01*
X144197812Y-48892945D01*
X144154673Y-48818225D01*
X144154669Y-48818220D01*
X144088668Y-48752219D01*
X143816142Y-48479693D01*
X143782116Y-48417381D01*
X143787180Y-48346568D01*
X143818360Y-48262973D01*
X143824500Y-48205864D01*
X143824500Y-47664136D01*
X143818360Y-47607027D01*
X143770175Y-47477837D01*
X143770173Y-47477835D01*
X143770173Y-47477833D01*
X143770172Y-47477832D01*
X143731420Y-47426067D01*
X143687544Y-47367456D01*
X143640137Y-47331967D01*
X143577167Y-47284827D01*
X143577166Y-47284826D01*
X143540995Y-47271335D01*
X143447973Y-47236640D01*
X143440834Y-47235872D01*
X143390871Y-47230500D01*
X143390864Y-47230500D01*
X142944029Y-47230500D01*
X142875908Y-47210498D01*
X142854938Y-47193599D01*
X142026668Y-46365329D01*
X142026666Y-46365328D01*
X142026664Y-46365326D01*
X141970163Y-46332706D01*
X141970162Y-46332705D01*
X141945832Y-46318659D01*
X141855671Y-46294500D01*
X141823592Y-46294500D01*
X137083029Y-46294500D01*
X137014908Y-46274498D01*
X136993934Y-46257595D01*
X136096934Y-45360595D01*
X136062908Y-45298283D01*
X136067973Y-45227468D01*
X136110520Y-45170632D01*
X136177040Y-45145821D01*
X136186029Y-45145500D01*
X140341971Y-45145500D01*
X140410092Y-45165502D01*
X140431066Y-45182405D01*
X140851329Y-45602668D01*
X140917332Y-45668671D01*
X140917333Y-45668672D01*
X140917335Y-45668673D01*
X140994066Y-45712973D01*
X140998168Y-45715341D01*
X141088329Y-45739500D01*
X141524051Y-45739500D01*
X141592172Y-45759502D01*
X141638665Y-45813158D01*
X141642107Y-45821469D01*
X141649825Y-45842164D01*
X141649827Y-45842167D01*
X141696967Y-45905137D01*
X141732456Y-45952544D01*
X141795781Y-45999949D01*
X141842832Y-46035172D01*
X141842833Y-46035173D01*
X141842835Y-46035173D01*
X141842837Y-46035175D01*
X141972027Y-46083360D01*
X142029136Y-46089500D01*
X142036205Y-46089500D01*
X142620859Y-46089500D01*
X142620864Y-46089500D01*
X142677973Y-46083360D01*
X142807163Y-46035175D01*
X142917544Y-45952544D01*
X143000175Y-45842163D01*
X143048360Y-45712973D01*
X143054500Y-45655864D01*
X143054500Y-45114136D01*
X143048360Y-45057027D01*
X143000175Y-44927837D01*
X143000173Y-44927835D01*
X143000173Y-44927833D01*
X143000172Y-44927832D01*
X142959842Y-44873959D01*
X142917544Y-44817456D01*
X142870137Y-44781967D01*
X142807167Y-44734827D01*
X142807164Y-44734825D01*
X142799803Y-44732080D01*
X142789011Y-44728054D01*
X142732177Y-44685510D01*
X142707365Y-44618990D01*
X142722456Y-44549616D01*
X142772657Y-44499413D01*
X142789006Y-44491946D01*
X142807163Y-44485175D01*
X142917544Y-44402544D01*
X143000175Y-44292163D01*
X143048360Y-44162973D01*
X143054500Y-44105864D01*
X143054500Y-43564136D01*
X143048360Y-43507027D01*
X143000175Y-43377837D01*
X143000173Y-43377835D01*
X143000173Y-43377833D01*
X143000172Y-43377832D01*
X142917543Y-43267455D01*
X142917155Y-43267165D01*
X142856023Y-43221402D01*
X142807164Y-43184825D01*
X142746371Y-43162151D01*
X161457803Y-43162151D01*
X161458347Y-43170994D01*
X161458347Y-49979752D01*
X161458333Y-50074643D01*
X161494678Y-50374699D01*
X161494679Y-50374706D01*
X161566833Y-50668189D01*
X161566835Y-50668195D01*
X161566837Y-50668202D01*
X161594258Y-50740699D01*
X161673762Y-50950899D01*
X161673764Y-50950902D01*
X161680889Y-50964516D01*
X161813904Y-51218689D01*
X161813908Y-51218695D01*
X161813911Y-51218700D01*
X161985219Y-51467675D01*
X161985220Y-51467676D01*
X161985225Y-51467681D01*
X161985228Y-51467686D01*
X162185247Y-51694276D01*
X162292809Y-51789969D01*
X162411057Y-51895170D01*
X162411060Y-51895172D01*
X162659391Y-52067460D01*
X162769885Y-52125831D01*
X162926637Y-52208639D01*
X163070214Y-52263581D01*
X163208916Y-52316658D01*
X163502138Y-52389954D01*
X163802045Y-52427462D01*
X163802038Y-52427462D01*
X163807151Y-52427480D01*
X163887781Y-52427781D01*
X163888707Y-52428030D01*
X163954195Y-52428030D01*
X164019583Y-52428284D01*
X164019586Y-52428283D01*
X164025244Y-52428305D01*
X164029583Y-52428030D01*
X175728210Y-52428030D01*
X175728863Y-52427985D01*
X175789712Y-52428020D01*
X176059320Y-52391258D01*
X176321487Y-52318404D01*
X176571406Y-52210793D01*
X176787837Y-52080431D01*
X176804481Y-52070406D01*
X176804483Y-52070404D01*
X176804492Y-52070399D01*
X177016471Y-51899798D01*
X177203453Y-51702118D01*
X177362010Y-51480986D01*
X177489232Y-51240458D01*
X177582788Y-50984945D01*
X177640959Y-50719133D01*
X177662681Y-50447900D01*
X177662680Y-50447893D01*
X177662681Y-50447890D01*
X177647554Y-50176227D01*
X177647553Y-50176221D01*
X177647553Y-50176218D01*
X177595854Y-49909073D01*
X177508532Y-49651363D01*
X177387189Y-49407815D01*
X177234050Y-49182898D01*
X177051924Y-48980735D01*
X176948231Y-48893144D01*
X176947996Y-48892945D01*
X176947991Y-48892941D01*
X176897274Y-48850054D01*
X176897272Y-48850053D01*
X176891002Y-48844751D01*
X176890898Y-48844674D01*
X176473082Y-48491329D01*
X175726899Y-47894012D01*
X175501943Y-47713935D01*
X174510241Y-46962972D01*
X173498684Y-46238975D01*
X173498672Y-46238967D01*
X173498654Y-46238954D01*
X172468022Y-45542479D01*
X171973693Y-45227468D01*
X171418952Y-44873959D01*
X170352284Y-44233929D01*
X169268774Y-43622844D01*
X168169208Y-43041146D01*
X167054382Y-42489256D01*
X165925105Y-41967575D01*
X165925107Y-41967575D01*
X165925077Y-41967562D01*
X164782188Y-41476478D01*
X164273106Y-41273798D01*
X164273095Y-41273794D01*
X164266018Y-41270976D01*
X164266016Y-41270974D01*
X164259128Y-41268232D01*
X164252873Y-41265741D01*
X164252621Y-41265544D01*
X164083597Y-41198375D01*
X163831810Y-41134238D01*
X163573848Y-41103138D01*
X163314047Y-41105595D01*
X163314046Y-41105595D01*
X163314038Y-41105595D01*
X163314038Y-41105596D01*
X163056713Y-41141568D01*
X162987827Y-41160509D01*
X162806185Y-41210454D01*
X162566646Y-41311102D01*
X162566645Y-41311102D01*
X162342095Y-41441830D01*
X162136306Y-41600443D01*
X162136296Y-41600452D01*
X161952709Y-41784295D01*
X161952701Y-41784304D01*
X161794376Y-41990312D01*
X161663962Y-42215038D01*
X161663954Y-42215053D01*
X161563645Y-42454719D01*
X161495106Y-42705344D01*
X161459490Y-42962724D01*
X161459010Y-43018039D01*
X161458930Y-43027316D01*
X161458923Y-43028127D01*
X161458347Y-43030279D01*
X161458347Y-43094577D01*
X161458343Y-43095039D01*
X161458343Y-43095110D01*
X161457803Y-43162151D01*
X142746371Y-43162151D01*
X142738041Y-43159044D01*
X142677973Y-43136640D01*
X142670834Y-43135872D01*
X142620871Y-43130500D01*
X142620864Y-43130500D01*
X142029136Y-43130500D01*
X142029128Y-43130500D01*
X141972027Y-43136640D01*
X141842833Y-43184826D01*
X141842832Y-43184827D01*
X141732456Y-43267456D01*
X141649827Y-43377832D01*
X141649825Y-43377836D01*
X141649825Y-43377837D01*
X141616536Y-43467086D01*
X141573991Y-43523920D01*
X141531094Y-43544758D01*
X141438168Y-43569658D01*
X141438165Y-43569659D01*
X141384499Y-43600643D01*
X141384500Y-43600644D01*
X141357331Y-43616329D01*
X141357328Y-43616332D01*
X141258731Y-43714930D01*
X140975064Y-43998596D01*
X140912754Y-44032620D01*
X140885971Y-44035500D01*
X136376925Y-44035500D01*
X136354896Y-44029031D01*
X136332011Y-44027223D01*
X136313278Y-44016811D01*
X136308804Y-44015498D01*
X136300664Y-44009801D01*
X136183608Y-43920800D01*
X136141487Y-43863647D01*
X136136952Y-43792796D01*
X136171442Y-43730740D01*
X136234007Y-43697182D01*
X136259869Y-43694499D01*
X136670064Y-43694499D01*
X136670066Y-43694499D01*
X136670069Y-43694498D01*
X136670072Y-43694498D01*
X136706663Y-43687219D01*
X136744301Y-43679734D01*
X136828484Y-43623484D01*
X136884734Y-43539301D01*
X136899500Y-43465067D01*
X136899499Y-42164934D01*
X136899498Y-42164928D01*
X136899498Y-42164926D01*
X136884734Y-42090699D01*
X136828483Y-42006515D01*
X136744302Y-41950266D01*
X136670069Y-41935500D01*
X136670067Y-41935500D01*
X136325499Y-41935500D01*
X136257378Y-41915498D01*
X136210885Y-41861842D01*
X136199499Y-41809500D01*
X136199499Y-41463820D01*
X136198999Y-41453665D01*
X136199000Y-41267000D01*
X136107568Y-41267000D01*
X136089128Y-41261585D01*
X136069914Y-41261242D01*
X136041251Y-41247527D01*
X136039447Y-41246998D01*
X136037563Y-41245763D01*
X136034570Y-41243763D01*
X135989044Y-41189284D01*
X135980198Y-41118841D01*
X136010841Y-41054798D01*
X136071244Y-41017488D01*
X136104575Y-41013000D01*
X136198999Y-41013000D01*
X136198999Y-40764986D01*
X136198998Y-40764977D01*
X136184262Y-40690894D01*
X136184262Y-40690892D01*
X136128124Y-40606875D01*
X136044106Y-40550737D01*
X136044105Y-40550736D01*
X135970022Y-40536000D01*
X135522000Y-40536000D01*
X135522000Y-41013001D01*
X135529404Y-41020405D01*
X135540186Y-41040151D01*
X135554923Y-41057158D01*
X135556870Y-41070705D01*
X135563430Y-41082717D01*
X135561824Y-41105160D01*
X135565027Y-41127432D01*
X135559341Y-41139881D01*
X135558365Y-41153532D01*
X135544880Y-41171545D01*
X135535533Y-41192012D01*
X135524020Y-41199410D01*
X135515818Y-41210368D01*
X135494734Y-41218231D01*
X135475807Y-41230396D01*
X135453536Y-41233598D01*
X135449298Y-41235179D01*
X135440309Y-41235500D01*
X135349690Y-41235500D01*
X135281569Y-41215498D01*
X135235076Y-41161842D01*
X135224972Y-41091568D01*
X135254466Y-41026988D01*
X135260596Y-41020404D01*
X135268000Y-41013000D01*
X135268000Y-40536000D01*
X134819986Y-40536000D01*
X134819976Y-40536001D01*
X134745894Y-40550737D01*
X134745892Y-40550737D01*
X134661875Y-40606875D01*
X134605737Y-40690893D01*
X134605736Y-40690894D01*
X134591000Y-40764977D01*
X134591000Y-41013001D01*
X134598404Y-41020405D01*
X134632430Y-41082717D01*
X134627365Y-41153532D01*
X134584818Y-41210368D01*
X134518298Y-41235179D01*
X134509310Y-41235500D01*
X134319936Y-41235500D01*
X134319926Y-41235501D01*
X134245699Y-41250265D01*
X134161515Y-41306516D01*
X134105266Y-41390697D01*
X134090500Y-41464930D01*
X134090500Y-43359500D01*
X134070498Y-43427621D01*
X134016842Y-43474114D01*
X133964500Y-43485500D01*
X133519936Y-43485500D01*
X133519926Y-43485501D01*
X133445699Y-43500265D01*
X133361515Y-43556516D01*
X133305266Y-43640697D01*
X133290500Y-43714930D01*
X133290500Y-44065063D01*
X133290501Y-44065068D01*
X133300516Y-44115421D01*
X133300515Y-44164579D01*
X133290500Y-44214925D01*
X133290500Y-44565063D01*
X133290501Y-44565068D01*
X133300516Y-44615421D01*
X133300515Y-44664579D01*
X133290500Y-44714925D01*
X133290500Y-45065063D01*
X133290501Y-45065068D01*
X133300516Y-45115421D01*
X133300515Y-45164579D01*
X133290500Y-45214925D01*
X133290500Y-45214933D01*
X133290500Y-45360595D01*
X133290501Y-45419499D01*
X133270499Y-45487620D01*
X133216844Y-45534113D01*
X133164501Y-45545500D01*
X132978327Y-45545500D01*
X132941783Y-45555292D01*
X132870807Y-45553602D01*
X132812011Y-45513807D01*
X132784064Y-45448543D01*
X132783173Y-45433585D01*
X132783173Y-43171046D01*
X132783692Y-43169045D01*
X132783173Y-43104614D01*
X132783173Y-43040279D01*
X132783173Y-43038152D01*
X132782415Y-43027316D01*
X132781942Y-42972730D01*
X132781942Y-42972725D01*
X132746329Y-42715361D01*
X132677793Y-42464746D01*
X132655154Y-42410657D01*
X132577487Y-42225088D01*
X132577476Y-42225066D01*
X132447073Y-42000356D01*
X132447071Y-42000353D01*
X132288752Y-41794352D01*
X132288744Y-41794343D01*
X132105167Y-41610510D01*
X132105165Y-41610508D01*
X132092118Y-41600452D01*
X131899376Y-41451892D01*
X131899371Y-41451889D01*
X131899367Y-41451886D01*
X131674852Y-41321176D01*
X131674838Y-41321169D01*
X131435313Y-41220525D01*
X131331620Y-41192012D01*
X131184790Y-41151637D01*
X131184785Y-41151636D01*
X131184784Y-41151636D01*
X131184776Y-41151634D01*
X130927481Y-41115664D01*
X130927466Y-41115663D01*
X130667675Y-41113203D01*
X130409726Y-41144300D01*
X130409717Y-41144302D01*
X130157949Y-41208430D01*
X130157939Y-41208433D01*
X130106815Y-41228748D01*
X130106645Y-41228815D01*
X130099010Y-41231835D01*
X130098897Y-41231849D01*
X130086442Y-41236807D01*
X130085769Y-41237074D01*
X130085633Y-41237129D01*
X130085631Y-41237129D01*
X130085387Y-41237226D01*
X130085339Y-41237230D01*
X130037183Y-41256402D01*
X130000569Y-41270979D01*
X129459293Y-41486474D01*
X128316434Y-41977545D01*
X127337699Y-42429680D01*
X127187129Y-42499238D01*
X126118766Y-43028127D01*
X126072287Y-43051136D01*
X124972752Y-43632817D01*
X124972736Y-43632825D01*
X124972736Y-43632826D01*
X123889226Y-44243912D01*
X122822557Y-44883942D01*
X122822549Y-44883947D01*
X121773487Y-45552463D01*
X120742828Y-46248956D01*
X119731263Y-46972962D01*
X118739583Y-47723912D01*
X117768450Y-48501303D01*
X117515849Y-48714926D01*
X117356066Y-48850054D01*
X117344228Y-48860065D01*
X117344222Y-48860070D01*
X117333491Y-48869144D01*
X117333430Y-48869170D01*
X117333440Y-48869182D01*
X117189560Y-48990728D01*
X117007444Y-49192895D01*
X116854310Y-49417820D01*
X116732972Y-49661372D01*
X116732966Y-49661386D01*
X116645656Y-49919078D01*
X116645653Y-49919088D01*
X116593960Y-50186222D01*
X116593958Y-50186238D01*
X116578833Y-50457905D01*
X114562879Y-50457905D01*
X115011857Y-50024761D01*
X115014412Y-50022366D01*
X116014014Y-49112407D01*
X116016705Y-49110027D01*
X117042188Y-48229436D01*
X117044917Y-48227160D01*
X118095505Y-47376602D01*
X118098302Y-47374405D01*
X119173112Y-46554599D01*
X119175930Y-46552515D01*
X120273981Y-45764208D01*
X120276928Y-45762156D01*
X121397310Y-45006001D01*
X121400308Y-45004039D01*
X122542141Y-44280627D01*
X122545204Y-44278748D01*
X123707527Y-43588689D01*
X123710579Y-43586936D01*
X124892449Y-42930795D01*
X124895551Y-42929132D01*
X126095842Y-42307530D01*
X126099046Y-42305929D01*
X127316842Y-41719339D01*
X127320069Y-41717842D01*
X128554362Y-41166751D01*
X128557645Y-41165342D01*
X129807344Y-40650238D01*
X129810645Y-40648932D01*
X131074777Y-40170214D01*
X131078123Y-40169002D01*
X132355605Y-39727084D01*
X132358975Y-39725973D01*
X133648689Y-39321240D01*
X133652055Y-39320237D01*
X134952905Y-38953031D01*
X134956428Y-38952091D01*
X136267373Y-38622704D01*
X136270828Y-38621889D01*
X137590835Y-38330584D01*
X137594298Y-38329873D01*
X138922119Y-38076926D01*
X138925646Y-38076307D01*
X140260252Y-37861913D01*
X140263744Y-37861403D01*
X141604085Y-37685732D01*
X141607563Y-37685328D01*
X142952366Y-37548548D01*
X142955867Y-37548243D01*
X144304069Y-37450461D01*
X144307659Y-37450253D01*
X145658079Y-37391553D01*
X145661622Y-37391450D01*
X147013206Y-37371878D01*
X147016796Y-37371878D01*
X148368377Y-37391450D01*
G37*
%TD.AperFunction*%
%TD*%
%TA.AperFunction,Conductor*%
%TO.N,Net-(IC3-CS1)*%
G36*
X125915454Y-52765141D02*
G01*
X126044858Y-52894545D01*
X126048285Y-52902818D01*
X126047011Y-52908127D01*
X125843819Y-53307202D01*
X125837012Y-53313019D01*
X125828084Y-53312319D01*
X125826931Y-53311647D01*
X125631273Y-53182018D01*
X125627981Y-53178726D01*
X125498352Y-52983068D01*
X125496640Y-52974279D01*
X125501644Y-52966852D01*
X125502783Y-52966187D01*
X125901875Y-52762987D01*
X125910800Y-52762288D01*
X125915454Y-52765141D01*
G37*
%TD.AperFunction*%
%TD*%
%TA.AperFunction,Conductor*%
%TO.N,Net-(IC3-CS1)*%
G36*
X145098123Y-63662987D02*
G01*
X145497202Y-63866180D01*
X145503019Y-63872987D01*
X145502319Y-63881915D01*
X145501647Y-63883068D01*
X145372018Y-64078726D01*
X145368726Y-64082018D01*
X145173068Y-64211647D01*
X145164279Y-64213359D01*
X145156852Y-64208355D01*
X145156180Y-64207202D01*
X145092442Y-64082018D01*
X144952987Y-63808125D01*
X144952288Y-63799199D01*
X144955139Y-63794547D01*
X145084546Y-63665140D01*
X145092818Y-63661714D01*
X145098123Y-63662987D01*
G37*
%TD.AperFunction*%
%TD*%
%TA.AperFunction,Conductor*%
%TO.N,VCC*%
G36*
X129463147Y-68371644D02*
G01*
X129463819Y-68372797D01*
X129529233Y-68501273D01*
X129667011Y-68771872D01*
X129667711Y-68780800D01*
X129664858Y-68785454D01*
X129535454Y-68914858D01*
X129527181Y-68918285D01*
X129521873Y-68917011D01*
X129122797Y-68713819D01*
X129116980Y-68707012D01*
X129117680Y-68698084D01*
X129118352Y-68696931D01*
X129247981Y-68501273D01*
X129251273Y-68497981D01*
X129440222Y-68372797D01*
X129446931Y-68368351D01*
X129455720Y-68366640D01*
X129463147Y-68371644D01*
G37*
%TD.AperFunction*%
%TD*%
%TA.AperFunction,Conductor*%
%TO.N,VCC*%
G36*
X130099775Y-72258231D02*
G01*
X130102628Y-72262885D01*
X130241138Y-72688751D01*
X130240438Y-72697679D01*
X130233631Y-72703496D01*
X130232340Y-72703836D01*
X130002328Y-72750527D01*
X129997672Y-72750527D01*
X129767659Y-72703836D01*
X129760233Y-72698832D01*
X129758521Y-72690042D01*
X129758857Y-72688762D01*
X129897372Y-72262885D01*
X129903189Y-72256078D01*
X129908498Y-72254804D01*
X130091502Y-72254804D01*
X130099775Y-72258231D01*
G37*
%TD.AperFunction*%
%TD*%
%TA.AperFunction,Conductor*%
%TO.N,GND*%
G36*
X133650867Y-53280554D02*
G01*
X133437867Y-53698893D01*
X133229293Y-53560707D01*
X133091107Y-53352133D01*
X133509446Y-53139133D01*
X133650867Y-53280554D01*
G37*
%TD.AperFunction*%
%TD*%
%TA.AperFunction,Conductor*%
%TO.N,/V_BAT*%
G36*
X140083147Y-61061644D02*
G01*
X140083819Y-61062797D01*
X140149233Y-61191273D01*
X140287011Y-61461872D01*
X140287711Y-61470800D01*
X140284858Y-61475454D01*
X140155454Y-61604858D01*
X140147181Y-61608285D01*
X140141873Y-61607011D01*
X139742797Y-61403819D01*
X139736980Y-61397012D01*
X139737680Y-61388084D01*
X139738352Y-61386931D01*
X139867981Y-61191273D01*
X139871273Y-61187981D01*
X140060222Y-61062797D01*
X140066931Y-61058351D01*
X140075720Y-61056640D01*
X140083147Y-61061644D01*
G37*
%TD.AperFunction*%
%TD*%
%TA.AperFunction,Conductor*%
%TO.N,/V_BAT*%
G36*
X142597679Y-62189561D02*
G01*
X142603496Y-62196368D01*
X142603836Y-62197659D01*
X142650527Y-62427672D01*
X142650527Y-62432328D01*
X142603836Y-62662340D01*
X142598832Y-62669766D01*
X142590042Y-62671478D01*
X142588751Y-62671138D01*
X142162885Y-62532628D01*
X142156078Y-62526811D01*
X142154804Y-62521502D01*
X142154804Y-62338497D01*
X142158231Y-62330224D01*
X142162882Y-62327372D01*
X142588752Y-62188861D01*
X142597679Y-62189561D01*
G37*
%TD.AperFunction*%
%TD*%
%TA.AperFunction,Conductor*%
%TO.N,SCL*%
G36*
X139201241Y-52088859D02*
G01*
X139627116Y-52227372D01*
X139633922Y-52233188D01*
X139635196Y-52238497D01*
X139635196Y-52421502D01*
X139631769Y-52429775D01*
X139627115Y-52432628D01*
X139201248Y-52571138D01*
X139192320Y-52570438D01*
X139186503Y-52563631D01*
X139186163Y-52562340D01*
X139139472Y-52332325D01*
X139139472Y-52327674D01*
X139186163Y-52097657D01*
X139191167Y-52090233D01*
X139199957Y-52088521D01*
X139201241Y-52088859D01*
G37*
%TD.AperFunction*%
%TD*%
%TA.AperFunction,Conductor*%
%TO.N,SCL*%
G36*
X133046574Y-48129541D02*
G01*
X133472557Y-48287173D01*
X133479126Y-48293257D01*
X133480196Y-48298145D01*
X133480196Y-48481130D01*
X133476769Y-48489403D01*
X133471655Y-48492395D01*
X133061140Y-48607520D01*
X133059109Y-48607900D01*
X133058911Y-48607919D01*
X133047363Y-48608843D01*
X133044586Y-48609236D01*
X133043924Y-48609371D01*
X133043305Y-48609431D01*
X133039550Y-48608285D01*
X133035695Y-48607526D01*
X133035342Y-48607001D01*
X133034740Y-48606818D01*
X133032919Y-48603397D01*
X133030711Y-48600114D01*
X133006558Y-48481130D01*
X132984472Y-48372325D01*
X132984472Y-48367674D01*
X133031056Y-48138185D01*
X133036059Y-48130762D01*
X133044849Y-48129050D01*
X133046574Y-48129541D01*
G37*
%TD.AperFunction*%
%TD*%
%TA.AperFunction,Conductor*%
%TO.N,SCL*%
G36*
X142306915Y-51127680D02*
G01*
X142308068Y-51128352D01*
X142503726Y-51257981D01*
X142507018Y-51261273D01*
X142636647Y-51456931D01*
X142638359Y-51465720D01*
X142633355Y-51473147D01*
X142632202Y-51473819D01*
X142233127Y-51677011D01*
X142224199Y-51677711D01*
X142219545Y-51674858D01*
X142090141Y-51545454D01*
X142086714Y-51537181D01*
X142087986Y-51531877D01*
X142291181Y-51132795D01*
X142297987Y-51126980D01*
X142306915Y-51127680D01*
G37*
%TD.AperFunction*%
%TD*%
%TA.AperFunction,Conductor*%
%TO.N,SDA*%
G36*
X133237649Y-48812653D02*
G01*
X133237809Y-48812810D01*
X133368785Y-48943786D01*
X133372212Y-48952059D01*
X133370113Y-48958746D01*
X133209400Y-49189512D01*
X133201860Y-49194342D01*
X133193337Y-49192579D01*
X132998374Y-49063411D01*
X132993370Y-49055985D01*
X132950066Y-48834444D01*
X132951842Y-48825668D01*
X132959305Y-48820717D01*
X132961549Y-48820500D01*
X133044310Y-48820500D01*
X133047925Y-48819530D01*
X133073381Y-48812709D01*
X133076158Y-48812316D01*
X133229312Y-48809385D01*
X133237649Y-48812653D01*
G37*
%TD.AperFunction*%
%TD*%
%TA.AperFunction,Conductor*%
%TO.N,SDA*%
G36*
X142972679Y-50299561D02*
G01*
X142978496Y-50306368D01*
X142978836Y-50307659D01*
X143025527Y-50537672D01*
X143025527Y-50542328D01*
X142978836Y-50772340D01*
X142973832Y-50779766D01*
X142965042Y-50781478D01*
X142963751Y-50781138D01*
X142537885Y-50642628D01*
X142531078Y-50636811D01*
X142529804Y-50631502D01*
X142529804Y-50448497D01*
X142533231Y-50440224D01*
X142537882Y-50437372D01*
X142963752Y-50298861D01*
X142972679Y-50299561D01*
G37*
%TD.AperFunction*%
%TD*%
%TA.AperFunction,Conductor*%
%TO.N,SDA*%
G36*
X139353147Y-49661644D02*
G01*
X139353819Y-49662797D01*
X139419233Y-49791273D01*
X139557011Y-50061872D01*
X139557711Y-50070800D01*
X139554858Y-50075454D01*
X139425454Y-50204858D01*
X139417181Y-50208285D01*
X139411873Y-50207011D01*
X139012797Y-50003819D01*
X139006980Y-49997012D01*
X139007680Y-49988084D01*
X139008352Y-49986931D01*
X139137981Y-49791273D01*
X139141273Y-49787981D01*
X139330222Y-49662797D01*
X139336931Y-49658351D01*
X139345720Y-49656640D01*
X139353147Y-49661644D01*
G37*
%TD.AperFunction*%
%TD*%
%TA.AperFunction,Conductor*%
%TO.N,/d15*%
G36*
X135447679Y-47679561D02*
G01*
X135453496Y-47686368D01*
X135453836Y-47687659D01*
X135500527Y-47917672D01*
X135500527Y-47922328D01*
X135453836Y-48152340D01*
X135448832Y-48159766D01*
X135440042Y-48161478D01*
X135438751Y-48161138D01*
X135012885Y-48022628D01*
X135006078Y-48016811D01*
X135004804Y-48011502D01*
X135004804Y-47828497D01*
X135008231Y-47820224D01*
X135012882Y-47817372D01*
X135438752Y-47678861D01*
X135447679Y-47679561D01*
G37*
%TD.AperFunction*%
%TD*%
%TA.AperFunction,Conductor*%
%TO.N,/enable*%
G36*
X137313147Y-47121644D02*
G01*
X137313819Y-47122797D01*
X137379233Y-47251273D01*
X137517011Y-47521872D01*
X137517711Y-47530800D01*
X137514858Y-47535454D01*
X137385454Y-47664858D01*
X137377181Y-47668285D01*
X137371873Y-47667011D01*
X136972797Y-47463819D01*
X136966980Y-47457012D01*
X136967680Y-47448084D01*
X136968352Y-47446931D01*
X137097981Y-47251273D01*
X137101273Y-47247981D01*
X137290222Y-47122797D01*
X137296931Y-47118351D01*
X137305720Y-47116640D01*
X137313147Y-47121644D01*
G37*
%TD.AperFunction*%
%TD*%
%TA.AperFunction,Conductor*%
%TO.N,/enable*%
G36*
X142705454Y-53025141D02*
G01*
X142834858Y-53154545D01*
X142838285Y-53162818D01*
X142837011Y-53168127D01*
X142633819Y-53567202D01*
X142627012Y-53573019D01*
X142618084Y-53572319D01*
X142616931Y-53571647D01*
X142421273Y-53442018D01*
X142417981Y-53438726D01*
X142288352Y-53243068D01*
X142286640Y-53234279D01*
X142291644Y-53226852D01*
X142292783Y-53226187D01*
X142691875Y-53022987D01*
X142700800Y-53022288D01*
X142705454Y-53025141D01*
G37*
%TD.AperFunction*%
%TD*%
%TA.AperFunction,Conductor*%
%TO.N,/R5*%
G36*
X130370454Y-53085141D02*
G01*
X130499858Y-53214545D01*
X130503285Y-53222818D01*
X130502011Y-53228127D01*
X130298819Y-53627202D01*
X130292012Y-53633019D01*
X130283084Y-53632319D01*
X130281931Y-53631647D01*
X130086273Y-53502018D01*
X130082981Y-53498726D01*
X129953352Y-53303068D01*
X129951640Y-53294279D01*
X129956644Y-53286852D01*
X129957783Y-53286187D01*
X130356875Y-53082987D01*
X130365800Y-53082288D01*
X130370454Y-53085141D01*
G37*
%TD.AperFunction*%
%TD*%
%TA.AperFunction,Conductor*%
%TO.N,/R5*%
G36*
X130370454Y-53085141D02*
G01*
X130499858Y-53214545D01*
X130503285Y-53222818D01*
X130502011Y-53228127D01*
X130298819Y-53627202D01*
X130292012Y-53633019D01*
X130283084Y-53632319D01*
X130281931Y-53631647D01*
X130086273Y-53502018D01*
X130082981Y-53498726D01*
X129953352Y-53303068D01*
X129951640Y-53294279D01*
X129956644Y-53286852D01*
X129957783Y-53286187D01*
X130356875Y-53082987D01*
X130365800Y-53082288D01*
X130370454Y-53085141D01*
G37*
%TD.AperFunction*%
%TD*%
M02*
