M48
; DRILL file {KiCad 9.0.4-9.0.4-0~ubuntu24.04.1} date 2025-11-05T21:41:06+0530
; FORMAT={-:-/ absolute / metric / decimal}
; #@! TF.CreationDate,2025-11-05T21:41:06+05:30
; #@! TF.GenerationSoftware,Kicad,Pcbnew,9.0.4-9.0.4-0~ubuntu24.04.1
; #@! TF.FileFunction,Plated,1,2,PTH
FMAT,2
METRIC
; #@! TA.AperFunction,Plated,PTH,ViaDrill
T1C0.300
%
G90
G05
T1
X102.76Y-72.99
X103.46Y-72.655
X104.35Y-73.04
X107.01Y-66.96
X107.48Y-64.03
X111.1Y-55.84
X111.71Y-59.1
X112.5Y-81.96
X112.81Y-54.62
X114.15Y-78.84
X114.21Y-55.82
X116.15Y-54.57
X118.086Y-56.764
X118.18Y-66.8
X118.23Y-62.53
X120.187Y-56.436
X120.81Y-61.22
X121.39Y-63.8
X122.95Y-56.68
X123.5Y-70.44
X123.52Y-62.32
X127.95Y-57.8
X128.21Y-54.71
X129.66Y-61.39
X129.79Y-62.58
X129.94Y-53.36
X129.94Y-54.58
X131.11Y-67.43
X132.43Y-67.43
X132.49Y-71.9
X132.51Y-71.03
X132.51Y-72.86
X132.52Y-73.93
X132.83Y-48.92
X132.84Y-48.23
X132.87Y-45.76
X132.9Y-47.39
X133.02Y-54.06
X137.11Y-73.77
X137.92Y-57.72
X138.22Y-59.19
X138.51Y-69.72
X138.51Y-70.61
X138.55Y-71.7
X140.16Y-57.68
X141.29Y-60.43
X141.39Y-42.16
X142.24Y-69.21
X143.93Y-39.32
X148.35Y-69.62
X149.7Y-51.97
X149.71Y-50.88
X149.73Y-53.12
X149.73Y-54.58
X151.09Y-72.34
X151.1Y-73.32
X151.11Y-74.33
X152.47Y-42.62
X153.01Y-67.75
X157.72Y-41.29
X158.32Y-55.58
X159.29Y-52.78
X163.48Y-54.71
X164.01Y-53.73
X167.27Y-62.18
X167.53Y-65.745
X168.86Y-64.485
X170.15Y-65.805
X171.1Y-64.3
X173.63Y-71.22
X177.42Y-66.46
X180.06Y-72.32
X183.43Y-62.17
X184.02Y-71.68
X188.55Y-75.37
X189.85Y-76.59
X191.23Y-75.35
M30
