M48
; DRILL file {KiCad 9.0.6-9.0.6~ubuntu24.04.1} date 2026-01-18T18:11:21+0530
; FORMAT={-:-/ absolute / metric / decimal}
; #@! TF.CreationDate,2026-01-18T18:11:21+05:30
; #@! TF.GenerationSoftware,Kicad,Pcbnew,9.0.6-9.0.6~ubuntu24.04.1
; #@! TF.FileFunction,Plated,1,2,PTH
FMAT,2
METRIC
; #@! TA.AperFunction,Plated,PTH,ViaDrill
T1C0.200
; #@! TA.AperFunction,Plated,PTH,ViaDrill
T2C0.300
%
G90
G05
T1
X105.01Y-85.04
X106.92Y-73.98
X107.31Y-65.8
X107.35Y-85.05
X111.475Y-72.645
X114.22Y-56.05
X115.39Y-82.25
X118.14Y-61.37
X121.71Y-61.62
X123.01Y-63.71
X124.19Y-63.61
X124.5Y-69.75
X125.63Y-53.18
X126.56Y-48.05
X129.25Y-68.5
X130.0Y-72.75
X130.085Y-53.5
X130.085Y-53.5
X131.24Y-63.66
X132.185Y-73.46
X132.32Y-73.59
X132.75Y-68.13
X132.985Y-48.37
X132.995Y-49.06
X133.23Y-53.56
X135.5Y-47.92
X137.1Y-47.25
X138.16Y-63.93
X138.428Y-62.226
X139.14Y-49.79
X139.14Y-52.33
X139.87Y-61.19
X140.41Y-73.13
X142.42Y-53.44
X142.505Y-51.26
X142.65Y-62.43
X143.025Y-50.54
X144.44Y-72.75
X145.28Y-49.6
X145.29Y-50.71
X145.37Y-64.08
X147.31Y-69.69
X148.07Y-50.72
X148.49Y-54.64
X148.92Y-52.78
X148.95Y-68.81
X149.53Y-60.25
X150.11Y-60.22
X150.29Y-54.52
X150.69Y-60.26
X150.69Y-62.07
X150.77Y-60.86
X150.77Y-61.54
X152.5Y-38.82
X152.7Y-58.65
X153.14Y-43.03
X153.31Y-41.48
X157.88Y-41.49
X158.92Y-40.13
X159.17Y-42.44
X167.15Y-62.6
X167.17Y-48.49
X167.33Y-63.68
X169.89Y-54.79
X170.3Y-63.15
X181.73Y-64.89
T2
X121.5Y-55.0
X121.5Y-55.75
X123.25Y-55.25
X123.25Y-56.0
X124.25Y-53.0
X124.75Y-55.0
X133.025Y-46.5
X141.0Y-70.5
X141.75Y-69.5
X142.25Y-69.0
X142.75Y-71.75
X143.0Y-71.0
X143.5Y-70.25
M30
