%TF.GenerationSoftware,KiCad,Pcbnew,9.0.6-9.0.6~ubuntu24.04.1*%
%TF.CreationDate,2026-01-18T20:47:34+05:30*%
%TF.ProjectId,WeighingScalePCB,57656967-6869-46e6-9753-63616c655043,rev?*%
%TF.SameCoordinates,Original*%
%TF.FileFunction,Profile,NP*%
%FSLAX46Y46*%
G04 Gerber Fmt 4.6, Leading zero omitted, Abs format (unit mm)*
G04 Created by KiCad (PCBNEW 9.0.6-9.0.6~ubuntu24.04.1) date 2026-01-18 20:47:34*
%MOMM*%
%LPD*%
G01*
G04 APERTURE LIST*
%ADD10C,0.100000*%
%TA.AperFunction,Profile*%
%ADD11C,0.350000*%
%TD*%
G04 APERTURE END LIST*
D10*
X138125312Y-83777180D02*
X138077693Y-83824800D01*
X138077693Y-83824800D02*
X137934836Y-83872419D01*
X137934836Y-83872419D02*
X137839598Y-83872419D01*
X137839598Y-83872419D02*
X137696741Y-83824800D01*
X137696741Y-83824800D02*
X137601503Y-83729561D01*
X137601503Y-83729561D02*
X137553884Y-83634323D01*
X137553884Y-83634323D02*
X137506265Y-83443847D01*
X137506265Y-83443847D02*
X137506265Y-83300990D01*
X137506265Y-83300990D02*
X137553884Y-83110514D01*
X137553884Y-83110514D02*
X137601503Y-83015276D01*
X137601503Y-83015276D02*
X137696741Y-82920038D01*
X137696741Y-82920038D02*
X137839598Y-82872419D01*
X137839598Y-82872419D02*
X137934836Y-82872419D01*
X137934836Y-82872419D02*
X138077693Y-82920038D01*
X138077693Y-82920038D02*
X138125312Y-82967657D01*
X138696741Y-83872419D02*
X138601503Y-83824800D01*
X138601503Y-83824800D02*
X138553884Y-83777180D01*
X138553884Y-83777180D02*
X138506265Y-83681942D01*
X138506265Y-83681942D02*
X138506265Y-83396228D01*
X138506265Y-83396228D02*
X138553884Y-83300990D01*
X138553884Y-83300990D02*
X138601503Y-83253371D01*
X138601503Y-83253371D02*
X138696741Y-83205752D01*
X138696741Y-83205752D02*
X138839598Y-83205752D01*
X138839598Y-83205752D02*
X138934836Y-83253371D01*
X138934836Y-83253371D02*
X138982455Y-83300990D01*
X138982455Y-83300990D02*
X139030074Y-83396228D01*
X139030074Y-83396228D02*
X139030074Y-83681942D01*
X139030074Y-83681942D02*
X138982455Y-83777180D01*
X138982455Y-83777180D02*
X138934836Y-83824800D01*
X138934836Y-83824800D02*
X138839598Y-83872419D01*
X138839598Y-83872419D02*
X138696741Y-83872419D01*
X139887217Y-83872419D02*
X139887217Y-83348609D01*
X139887217Y-83348609D02*
X139839598Y-83253371D01*
X139839598Y-83253371D02*
X139744360Y-83205752D01*
X139744360Y-83205752D02*
X139553884Y-83205752D01*
X139553884Y-83205752D02*
X139458646Y-83253371D01*
X139887217Y-83824800D02*
X139791979Y-83872419D01*
X139791979Y-83872419D02*
X139553884Y-83872419D01*
X139553884Y-83872419D02*
X139458646Y-83824800D01*
X139458646Y-83824800D02*
X139411027Y-83729561D01*
X139411027Y-83729561D02*
X139411027Y-83634323D01*
X139411027Y-83634323D02*
X139458646Y-83539085D01*
X139458646Y-83539085D02*
X139553884Y-83491466D01*
X139553884Y-83491466D02*
X139791979Y-83491466D01*
X139791979Y-83491466D02*
X139887217Y-83443847D01*
X140315789Y-83824800D02*
X140411027Y-83872419D01*
X140411027Y-83872419D02*
X140601503Y-83872419D01*
X140601503Y-83872419D02*
X140696741Y-83824800D01*
X140696741Y-83824800D02*
X140744360Y-83729561D01*
X140744360Y-83729561D02*
X140744360Y-83681942D01*
X140744360Y-83681942D02*
X140696741Y-83586704D01*
X140696741Y-83586704D02*
X140601503Y-83539085D01*
X140601503Y-83539085D02*
X140458646Y-83539085D01*
X140458646Y-83539085D02*
X140363408Y-83491466D01*
X140363408Y-83491466D02*
X140315789Y-83396228D01*
X140315789Y-83396228D02*
X140315789Y-83348609D01*
X140315789Y-83348609D02*
X140363408Y-83253371D01*
X140363408Y-83253371D02*
X140458646Y-83205752D01*
X140458646Y-83205752D02*
X140601503Y-83205752D01*
X140601503Y-83205752D02*
X140696741Y-83253371D01*
X141030075Y-83205752D02*
X141411027Y-83205752D01*
X141172932Y-82872419D02*
X141172932Y-83729561D01*
X141172932Y-83729561D02*
X141220551Y-83824800D01*
X141220551Y-83824800D02*
X141315789Y-83872419D01*
X141315789Y-83872419D02*
X141411027Y-83872419D01*
X142125313Y-83824800D02*
X142030075Y-83872419D01*
X142030075Y-83872419D02*
X141839599Y-83872419D01*
X141839599Y-83872419D02*
X141744361Y-83824800D01*
X141744361Y-83824800D02*
X141696742Y-83729561D01*
X141696742Y-83729561D02*
X141696742Y-83348609D01*
X141696742Y-83348609D02*
X141744361Y-83253371D01*
X141744361Y-83253371D02*
X141839599Y-83205752D01*
X141839599Y-83205752D02*
X142030075Y-83205752D01*
X142030075Y-83205752D02*
X142125313Y-83253371D01*
X142125313Y-83253371D02*
X142172932Y-83348609D01*
X142172932Y-83348609D02*
X142172932Y-83443847D01*
X142172932Y-83443847D02*
X141696742Y-83539085D01*
X142601504Y-83872419D02*
X142601504Y-83205752D01*
X142601504Y-83396228D02*
X142649123Y-83300990D01*
X142649123Y-83300990D02*
X142696742Y-83253371D01*
X142696742Y-83253371D02*
X142791980Y-83205752D01*
X142791980Y-83205752D02*
X142887218Y-83205752D01*
X144553885Y-83872419D02*
X144220552Y-83396228D01*
X143982457Y-83872419D02*
X143982457Y-82872419D01*
X143982457Y-82872419D02*
X144363409Y-82872419D01*
X144363409Y-82872419D02*
X144458647Y-82920038D01*
X144458647Y-82920038D02*
X144506266Y-82967657D01*
X144506266Y-82967657D02*
X144553885Y-83062895D01*
X144553885Y-83062895D02*
X144553885Y-83205752D01*
X144553885Y-83205752D02*
X144506266Y-83300990D01*
X144506266Y-83300990D02*
X144458647Y-83348609D01*
X144458647Y-83348609D02*
X144363409Y-83396228D01*
X144363409Y-83396228D02*
X143982457Y-83396228D01*
X145363409Y-83824800D02*
X145268171Y-83872419D01*
X145268171Y-83872419D02*
X145077695Y-83872419D01*
X145077695Y-83872419D02*
X144982457Y-83824800D01*
X144982457Y-83824800D02*
X144934838Y-83729561D01*
X144934838Y-83729561D02*
X144934838Y-83348609D01*
X144934838Y-83348609D02*
X144982457Y-83253371D01*
X144982457Y-83253371D02*
X145077695Y-83205752D01*
X145077695Y-83205752D02*
X145268171Y-83205752D01*
X145268171Y-83205752D02*
X145363409Y-83253371D01*
X145363409Y-83253371D02*
X145411028Y-83348609D01*
X145411028Y-83348609D02*
X145411028Y-83443847D01*
X145411028Y-83443847D02*
X144934838Y-83539085D01*
X145744362Y-83205752D02*
X145982457Y-83872419D01*
X145982457Y-83872419D02*
X146220552Y-83205752D01*
X147887219Y-83872419D02*
X147315791Y-83872419D01*
X147601505Y-83872419D02*
X147601505Y-82872419D01*
X147601505Y-82872419D02*
X147506267Y-83015276D01*
X147506267Y-83015276D02*
X147411029Y-83110514D01*
X147411029Y-83110514D02*
X147315791Y-83158133D01*
D11*
X120015000Y-75171353D02*
X120015000Y-87948647D01*
X174015001Y-87948647D02*
X194163935Y-87948647D01*
X174015001Y-75171353D02*
X120015000Y-75171353D01*
X99866067Y-87948647D02*
G75*
G02*
X194163935Y-87948647I47148934J3777296D01*
G01*
X160612039Y-71031954D02*
G75*
G02*
X158612039Y-71031954I-1000000J0D01*
G01*
X158612039Y-71031954D02*
G75*
G02*
X160612039Y-71031954I1000000J0D01*
G01*
X174015001Y-87948647D02*
X174015001Y-75171353D01*
X99866067Y-87948647D02*
X120015000Y-87948647D01*
X122969017Y-72565558D02*
G75*
G02*
X120969017Y-72565558I-1000000J0D01*
G01*
X120969017Y-72565558D02*
G75*
G02*
X122969017Y-72565558I1000000J0D01*
G01*
X141131841Y-65101354D02*
G75*
G02*
X139131841Y-65101354I-1000000J0D01*
G01*
X139131841Y-65101354D02*
G75*
G02*
X141131841Y-65101354I1000000J0D01*
G01*
X185382077Y-64479280D02*
G75*
G02*
X183382077Y-64479280I-1000000J0D01*
G01*
X183382077Y-64479280D02*
G75*
G02*
X185382077Y-64479280I1000000J0D01*
G01*
M02*
