%TF.GenerationSoftware,KiCad,Pcbnew,9.0.6-9.0.6~ubuntu24.04.1*%
%TF.CreationDate,2026-01-18T18:11:30+05:30*%
%TF.ProjectId,WeighingScalePCB,57656967-6869-46e6-9753-63616c655043,rev?*%
%TF.SameCoordinates,Original*%
%TF.FileFunction,Legend,Top*%
%TF.FilePolarity,Positive*%
%FSLAX46Y46*%
G04 Gerber Fmt 4.6, Leading zero omitted, Abs format (unit mm)*
G04 Created by KiCad (PCBNEW 9.0.6-9.0.6~ubuntu24.04.1) date 2026-01-18 18:11:30*
%MOMM*%
%LPD*%
G01*
G04 APERTURE LIST*
%ADD10C,0.150000*%
%ADD11C,0.254000*%
%ADD12C,0.106680*%
%ADD13C,0.100000*%
%ADD14C,0.120000*%
%ADD15C,0.200000*%
%ADD16C,0.127000*%
%ADD17C,0.504000*%
G04 APERTURE END LIST*
D10*
X170754580Y-67397857D02*
X170802200Y-67445476D01*
X170802200Y-67445476D02*
X170849819Y-67588333D01*
X170849819Y-67588333D02*
X170849819Y-67683571D01*
X170849819Y-67683571D02*
X170802200Y-67826428D01*
X170802200Y-67826428D02*
X170706961Y-67921666D01*
X170706961Y-67921666D02*
X170611723Y-67969285D01*
X170611723Y-67969285D02*
X170421247Y-68016904D01*
X170421247Y-68016904D02*
X170278390Y-68016904D01*
X170278390Y-68016904D02*
X170087914Y-67969285D01*
X170087914Y-67969285D02*
X169992676Y-67921666D01*
X169992676Y-67921666D02*
X169897438Y-67826428D01*
X169897438Y-67826428D02*
X169849819Y-67683571D01*
X169849819Y-67683571D02*
X169849819Y-67588333D01*
X169849819Y-67588333D02*
X169897438Y-67445476D01*
X169897438Y-67445476D02*
X169945057Y-67397857D01*
X170849819Y-66445476D02*
X170849819Y-67016904D01*
X170849819Y-66731190D02*
X169849819Y-66731190D01*
X169849819Y-66731190D02*
X169992676Y-66826428D01*
X169992676Y-66826428D02*
X170087914Y-66921666D01*
X170087914Y-66921666D02*
X170135533Y-67016904D01*
X169849819Y-66112142D02*
X169849819Y-65445476D01*
X169849819Y-65445476D02*
X170849819Y-65874047D01*
X144867142Y-68609580D02*
X144819523Y-68657200D01*
X144819523Y-68657200D02*
X144676666Y-68704819D01*
X144676666Y-68704819D02*
X144581428Y-68704819D01*
X144581428Y-68704819D02*
X144438571Y-68657200D01*
X144438571Y-68657200D02*
X144343333Y-68561961D01*
X144343333Y-68561961D02*
X144295714Y-68466723D01*
X144295714Y-68466723D02*
X144248095Y-68276247D01*
X144248095Y-68276247D02*
X144248095Y-68133390D01*
X144248095Y-68133390D02*
X144295714Y-67942914D01*
X144295714Y-67942914D02*
X144343333Y-67847676D01*
X144343333Y-67847676D02*
X144438571Y-67752438D01*
X144438571Y-67752438D02*
X144581428Y-67704819D01*
X144581428Y-67704819D02*
X144676666Y-67704819D01*
X144676666Y-67704819D02*
X144819523Y-67752438D01*
X144819523Y-67752438D02*
X144867142Y-67800057D01*
X145819523Y-68704819D02*
X145248095Y-68704819D01*
X145533809Y-68704819D02*
X145533809Y-67704819D01*
X145533809Y-67704819D02*
X145438571Y-67847676D01*
X145438571Y-67847676D02*
X145343333Y-67942914D01*
X145343333Y-67942914D02*
X145248095Y-67990533D01*
X146438571Y-67704819D02*
X146533809Y-67704819D01*
X146533809Y-67704819D02*
X146629047Y-67752438D01*
X146629047Y-67752438D02*
X146676666Y-67800057D01*
X146676666Y-67800057D02*
X146724285Y-67895295D01*
X146724285Y-67895295D02*
X146771904Y-68085771D01*
X146771904Y-68085771D02*
X146771904Y-68323866D01*
X146771904Y-68323866D02*
X146724285Y-68514342D01*
X146724285Y-68514342D02*
X146676666Y-68609580D01*
X146676666Y-68609580D02*
X146629047Y-68657200D01*
X146629047Y-68657200D02*
X146533809Y-68704819D01*
X146533809Y-68704819D02*
X146438571Y-68704819D01*
X146438571Y-68704819D02*
X146343333Y-68657200D01*
X146343333Y-68657200D02*
X146295714Y-68609580D01*
X146295714Y-68609580D02*
X146248095Y-68514342D01*
X146248095Y-68514342D02*
X146200476Y-68323866D01*
X146200476Y-68323866D02*
X146200476Y-68085771D01*
X146200476Y-68085771D02*
X146248095Y-67895295D01*
X146248095Y-67895295D02*
X146295714Y-67800057D01*
X146295714Y-67800057D02*
X146343333Y-67752438D01*
X146343333Y-67752438D02*
X146438571Y-67704819D01*
X127098333Y-69379580D02*
X127050714Y-69427200D01*
X127050714Y-69427200D02*
X126907857Y-69474819D01*
X126907857Y-69474819D02*
X126812619Y-69474819D01*
X126812619Y-69474819D02*
X126669762Y-69427200D01*
X126669762Y-69427200D02*
X126574524Y-69331961D01*
X126574524Y-69331961D02*
X126526905Y-69236723D01*
X126526905Y-69236723D02*
X126479286Y-69046247D01*
X126479286Y-69046247D02*
X126479286Y-68903390D01*
X126479286Y-68903390D02*
X126526905Y-68712914D01*
X126526905Y-68712914D02*
X126574524Y-68617676D01*
X126574524Y-68617676D02*
X126669762Y-68522438D01*
X126669762Y-68522438D02*
X126812619Y-68474819D01*
X126812619Y-68474819D02*
X126907857Y-68474819D01*
X126907857Y-68474819D02*
X127050714Y-68522438D01*
X127050714Y-68522438D02*
X127098333Y-68570057D01*
X128050714Y-69474819D02*
X127479286Y-69474819D01*
X127765000Y-69474819D02*
X127765000Y-68474819D01*
X127765000Y-68474819D02*
X127669762Y-68617676D01*
X127669762Y-68617676D02*
X127574524Y-68712914D01*
X127574524Y-68712914D02*
X127479286Y-68760533D01*
X171839819Y-62798094D02*
X170839819Y-62798094D01*
X170839819Y-62798094D02*
X170839819Y-62559999D01*
X170839819Y-62559999D02*
X170887438Y-62417142D01*
X170887438Y-62417142D02*
X170982676Y-62321904D01*
X170982676Y-62321904D02*
X171077914Y-62274285D01*
X171077914Y-62274285D02*
X171268390Y-62226666D01*
X171268390Y-62226666D02*
X171411247Y-62226666D01*
X171411247Y-62226666D02*
X171601723Y-62274285D01*
X171601723Y-62274285D02*
X171696961Y-62321904D01*
X171696961Y-62321904D02*
X171792200Y-62417142D01*
X171792200Y-62417142D02*
X171839819Y-62559999D01*
X171839819Y-62559999D02*
X171839819Y-62798094D01*
X170839819Y-61369523D02*
X170839819Y-61559999D01*
X170839819Y-61559999D02*
X170887438Y-61655237D01*
X170887438Y-61655237D02*
X170935057Y-61702856D01*
X170935057Y-61702856D02*
X171077914Y-61798094D01*
X171077914Y-61798094D02*
X171268390Y-61845713D01*
X171268390Y-61845713D02*
X171649342Y-61845713D01*
X171649342Y-61845713D02*
X171744580Y-61798094D01*
X171744580Y-61798094D02*
X171792200Y-61750475D01*
X171792200Y-61750475D02*
X171839819Y-61655237D01*
X171839819Y-61655237D02*
X171839819Y-61464761D01*
X171839819Y-61464761D02*
X171792200Y-61369523D01*
X171792200Y-61369523D02*
X171744580Y-61321904D01*
X171744580Y-61321904D02*
X171649342Y-61274285D01*
X171649342Y-61274285D02*
X171411247Y-61274285D01*
X171411247Y-61274285D02*
X171316009Y-61321904D01*
X171316009Y-61321904D02*
X171268390Y-61369523D01*
X171268390Y-61369523D02*
X171220771Y-61464761D01*
X171220771Y-61464761D02*
X171220771Y-61655237D01*
X171220771Y-61655237D02*
X171268390Y-61750475D01*
X171268390Y-61750475D02*
X171316009Y-61798094D01*
X171316009Y-61798094D02*
X171411247Y-61845713D01*
X139388333Y-71019580D02*
X139340714Y-71067200D01*
X139340714Y-71067200D02*
X139197857Y-71114819D01*
X139197857Y-71114819D02*
X139102619Y-71114819D01*
X139102619Y-71114819D02*
X138959762Y-71067200D01*
X138959762Y-71067200D02*
X138864524Y-70971961D01*
X138864524Y-70971961D02*
X138816905Y-70876723D01*
X138816905Y-70876723D02*
X138769286Y-70686247D01*
X138769286Y-70686247D02*
X138769286Y-70543390D01*
X138769286Y-70543390D02*
X138816905Y-70352914D01*
X138816905Y-70352914D02*
X138864524Y-70257676D01*
X138864524Y-70257676D02*
X138959762Y-70162438D01*
X138959762Y-70162438D02*
X139102619Y-70114819D01*
X139102619Y-70114819D02*
X139197857Y-70114819D01*
X139197857Y-70114819D02*
X139340714Y-70162438D01*
X139340714Y-70162438D02*
X139388333Y-70210057D01*
X139959762Y-70543390D02*
X139864524Y-70495771D01*
X139864524Y-70495771D02*
X139816905Y-70448152D01*
X139816905Y-70448152D02*
X139769286Y-70352914D01*
X139769286Y-70352914D02*
X139769286Y-70305295D01*
X139769286Y-70305295D02*
X139816905Y-70210057D01*
X139816905Y-70210057D02*
X139864524Y-70162438D01*
X139864524Y-70162438D02*
X139959762Y-70114819D01*
X139959762Y-70114819D02*
X140150238Y-70114819D01*
X140150238Y-70114819D02*
X140245476Y-70162438D01*
X140245476Y-70162438D02*
X140293095Y-70210057D01*
X140293095Y-70210057D02*
X140340714Y-70305295D01*
X140340714Y-70305295D02*
X140340714Y-70352914D01*
X140340714Y-70352914D02*
X140293095Y-70448152D01*
X140293095Y-70448152D02*
X140245476Y-70495771D01*
X140245476Y-70495771D02*
X140150238Y-70543390D01*
X140150238Y-70543390D02*
X139959762Y-70543390D01*
X139959762Y-70543390D02*
X139864524Y-70591009D01*
X139864524Y-70591009D02*
X139816905Y-70638628D01*
X139816905Y-70638628D02*
X139769286Y-70733866D01*
X139769286Y-70733866D02*
X139769286Y-70924342D01*
X139769286Y-70924342D02*
X139816905Y-71019580D01*
X139816905Y-71019580D02*
X139864524Y-71067200D01*
X139864524Y-71067200D02*
X139959762Y-71114819D01*
X139959762Y-71114819D02*
X140150238Y-71114819D01*
X140150238Y-71114819D02*
X140245476Y-71067200D01*
X140245476Y-71067200D02*
X140293095Y-71019580D01*
X140293095Y-71019580D02*
X140340714Y-70924342D01*
X140340714Y-70924342D02*
X140340714Y-70733866D01*
X140340714Y-70733866D02*
X140293095Y-70638628D01*
X140293095Y-70638628D02*
X140245476Y-70591009D01*
X140245476Y-70591009D02*
X140150238Y-70543390D01*
D11*
X142629318Y-60139762D02*
X141359318Y-60139762D01*
X142508365Y-58809285D02*
X142568842Y-58869761D01*
X142568842Y-58869761D02*
X142629318Y-59051190D01*
X142629318Y-59051190D02*
X142629318Y-59172142D01*
X142629318Y-59172142D02*
X142568842Y-59353571D01*
X142568842Y-59353571D02*
X142447889Y-59474523D01*
X142447889Y-59474523D02*
X142326937Y-59535000D01*
X142326937Y-59535000D02*
X142085032Y-59595476D01*
X142085032Y-59595476D02*
X141903603Y-59595476D01*
X141903603Y-59595476D02*
X141661699Y-59535000D01*
X141661699Y-59535000D02*
X141540746Y-59474523D01*
X141540746Y-59474523D02*
X141419794Y-59353571D01*
X141419794Y-59353571D02*
X141359318Y-59172142D01*
X141359318Y-59172142D02*
X141359318Y-59051190D01*
X141359318Y-59051190D02*
X141419794Y-58869761D01*
X141419794Y-58869761D02*
X141480270Y-58809285D01*
X141480270Y-58325476D02*
X141419794Y-58265000D01*
X141419794Y-58265000D02*
X141359318Y-58144047D01*
X141359318Y-58144047D02*
X141359318Y-57841666D01*
X141359318Y-57841666D02*
X141419794Y-57720714D01*
X141419794Y-57720714D02*
X141480270Y-57660238D01*
X141480270Y-57660238D02*
X141601222Y-57599761D01*
X141601222Y-57599761D02*
X141722175Y-57599761D01*
X141722175Y-57599761D02*
X141903603Y-57660238D01*
X141903603Y-57660238D02*
X142629318Y-58385952D01*
X142629318Y-58385952D02*
X142629318Y-57599761D01*
D10*
X148291666Y-58814819D02*
X148291666Y-59529104D01*
X148291666Y-59529104D02*
X148244047Y-59671961D01*
X148244047Y-59671961D02*
X148148809Y-59767200D01*
X148148809Y-59767200D02*
X148005952Y-59814819D01*
X148005952Y-59814819D02*
X147910714Y-59814819D01*
X149196428Y-59148152D02*
X149196428Y-59814819D01*
X148958333Y-58767200D02*
X148720238Y-59481485D01*
X148720238Y-59481485D02*
X149339285Y-59481485D01*
D12*
X138178050Y-34844891D02*
X138178050Y-35478198D01*
X138178050Y-35478198D02*
X138215304Y-35552704D01*
X138215304Y-35552704D02*
X138252557Y-35589958D01*
X138252557Y-35589958D02*
X138327064Y-35627211D01*
X138327064Y-35627211D02*
X138476077Y-35627211D01*
X138476077Y-35627211D02*
X138550584Y-35589958D01*
X138550584Y-35589958D02*
X138587837Y-35552704D01*
X138587837Y-35552704D02*
X138625090Y-35478198D01*
X138625090Y-35478198D02*
X138625090Y-34844891D01*
X139407410Y-35627211D02*
X138960370Y-35627211D01*
X139183890Y-35627211D02*
X139183890Y-34844891D01*
X139183890Y-34844891D02*
X139109383Y-34956651D01*
X139109383Y-34956651D02*
X139034877Y-35031158D01*
X139034877Y-35031158D02*
X138960370Y-35068411D01*
D11*
X184938358Y-60703614D02*
X185579804Y-61345061D01*
X185579804Y-61345061D02*
X185665331Y-61516113D01*
X185665331Y-61516113D02*
X185665331Y-61687166D01*
X185665331Y-61687166D02*
X185579804Y-61858218D01*
X185579804Y-61858218D02*
X185494278Y-61943744D01*
X185408752Y-60404272D02*
X185408752Y-60318746D01*
X185408752Y-60318746D02*
X185451515Y-60190456D01*
X185451515Y-60190456D02*
X185665331Y-59976641D01*
X185665331Y-59976641D02*
X185793620Y-59933878D01*
X185793620Y-59933878D02*
X185879146Y-59933878D01*
X185879146Y-59933878D02*
X186007436Y-59976641D01*
X186007436Y-59976641D02*
X186092962Y-60062167D01*
X186092962Y-60062167D02*
X186178488Y-60233219D01*
X186178488Y-60233219D02*
X186178488Y-61259534D01*
X186178488Y-61259534D02*
X186734409Y-60703614D01*
D10*
X138657142Y-68174819D02*
X138323809Y-67698628D01*
X138085714Y-68174819D02*
X138085714Y-67174819D01*
X138085714Y-67174819D02*
X138466666Y-67174819D01*
X138466666Y-67174819D02*
X138561904Y-67222438D01*
X138561904Y-67222438D02*
X138609523Y-67270057D01*
X138609523Y-67270057D02*
X138657142Y-67365295D01*
X138657142Y-67365295D02*
X138657142Y-67508152D01*
X138657142Y-67508152D02*
X138609523Y-67603390D01*
X138609523Y-67603390D02*
X138561904Y-67651009D01*
X138561904Y-67651009D02*
X138466666Y-67698628D01*
X138466666Y-67698628D02*
X138085714Y-67698628D01*
X139609523Y-68174819D02*
X139038095Y-68174819D01*
X139323809Y-68174819D02*
X139323809Y-67174819D01*
X139323809Y-67174819D02*
X139228571Y-67317676D01*
X139228571Y-67317676D02*
X139133333Y-67412914D01*
X139133333Y-67412914D02*
X139038095Y-67460533D01*
X139990476Y-67270057D02*
X140038095Y-67222438D01*
X140038095Y-67222438D02*
X140133333Y-67174819D01*
X140133333Y-67174819D02*
X140371428Y-67174819D01*
X140371428Y-67174819D02*
X140466666Y-67222438D01*
X140466666Y-67222438D02*
X140514285Y-67270057D01*
X140514285Y-67270057D02*
X140561904Y-67365295D01*
X140561904Y-67365295D02*
X140561904Y-67460533D01*
X140561904Y-67460533D02*
X140514285Y-67603390D01*
X140514285Y-67603390D02*
X139942857Y-68174819D01*
X139942857Y-68174819D02*
X140561904Y-68174819D01*
X135253333Y-48724819D02*
X134920000Y-48248628D01*
X134681905Y-48724819D02*
X134681905Y-47724819D01*
X134681905Y-47724819D02*
X135062857Y-47724819D01*
X135062857Y-47724819D02*
X135158095Y-47772438D01*
X135158095Y-47772438D02*
X135205714Y-47820057D01*
X135205714Y-47820057D02*
X135253333Y-47915295D01*
X135253333Y-47915295D02*
X135253333Y-48058152D01*
X135253333Y-48058152D02*
X135205714Y-48153390D01*
X135205714Y-48153390D02*
X135158095Y-48201009D01*
X135158095Y-48201009D02*
X135062857Y-48248628D01*
X135062857Y-48248628D02*
X134681905Y-48248628D01*
X135824762Y-48153390D02*
X135729524Y-48105771D01*
X135729524Y-48105771D02*
X135681905Y-48058152D01*
X135681905Y-48058152D02*
X135634286Y-47962914D01*
X135634286Y-47962914D02*
X135634286Y-47915295D01*
X135634286Y-47915295D02*
X135681905Y-47820057D01*
X135681905Y-47820057D02*
X135729524Y-47772438D01*
X135729524Y-47772438D02*
X135824762Y-47724819D01*
X135824762Y-47724819D02*
X136015238Y-47724819D01*
X136015238Y-47724819D02*
X136110476Y-47772438D01*
X136110476Y-47772438D02*
X136158095Y-47820057D01*
X136158095Y-47820057D02*
X136205714Y-47915295D01*
X136205714Y-47915295D02*
X136205714Y-47962914D01*
X136205714Y-47962914D02*
X136158095Y-48058152D01*
X136158095Y-48058152D02*
X136110476Y-48105771D01*
X136110476Y-48105771D02*
X136015238Y-48153390D01*
X136015238Y-48153390D02*
X135824762Y-48153390D01*
X135824762Y-48153390D02*
X135729524Y-48201009D01*
X135729524Y-48201009D02*
X135681905Y-48248628D01*
X135681905Y-48248628D02*
X135634286Y-48343866D01*
X135634286Y-48343866D02*
X135634286Y-48534342D01*
X135634286Y-48534342D02*
X135681905Y-48629580D01*
X135681905Y-48629580D02*
X135729524Y-48677200D01*
X135729524Y-48677200D02*
X135824762Y-48724819D01*
X135824762Y-48724819D02*
X136015238Y-48724819D01*
X136015238Y-48724819D02*
X136110476Y-48677200D01*
X136110476Y-48677200D02*
X136158095Y-48629580D01*
X136158095Y-48629580D02*
X136205714Y-48534342D01*
X136205714Y-48534342D02*
X136205714Y-48343866D01*
X136205714Y-48343866D02*
X136158095Y-48248628D01*
X136158095Y-48248628D02*
X136110476Y-48201009D01*
X136110476Y-48201009D02*
X136015238Y-48153390D01*
X147778333Y-57944819D02*
X147445000Y-57468628D01*
X147206905Y-57944819D02*
X147206905Y-56944819D01*
X147206905Y-56944819D02*
X147587857Y-56944819D01*
X147587857Y-56944819D02*
X147683095Y-56992438D01*
X147683095Y-56992438D02*
X147730714Y-57040057D01*
X147730714Y-57040057D02*
X147778333Y-57135295D01*
X147778333Y-57135295D02*
X147778333Y-57278152D01*
X147778333Y-57278152D02*
X147730714Y-57373390D01*
X147730714Y-57373390D02*
X147683095Y-57421009D01*
X147683095Y-57421009D02*
X147587857Y-57468628D01*
X147587857Y-57468628D02*
X147206905Y-57468628D01*
X148635476Y-56944819D02*
X148445000Y-56944819D01*
X148445000Y-56944819D02*
X148349762Y-56992438D01*
X148349762Y-56992438D02*
X148302143Y-57040057D01*
X148302143Y-57040057D02*
X148206905Y-57182914D01*
X148206905Y-57182914D02*
X148159286Y-57373390D01*
X148159286Y-57373390D02*
X148159286Y-57754342D01*
X148159286Y-57754342D02*
X148206905Y-57849580D01*
X148206905Y-57849580D02*
X148254524Y-57897200D01*
X148254524Y-57897200D02*
X148349762Y-57944819D01*
X148349762Y-57944819D02*
X148540238Y-57944819D01*
X148540238Y-57944819D02*
X148635476Y-57897200D01*
X148635476Y-57897200D02*
X148683095Y-57849580D01*
X148683095Y-57849580D02*
X148730714Y-57754342D01*
X148730714Y-57754342D02*
X148730714Y-57516247D01*
X148730714Y-57516247D02*
X148683095Y-57421009D01*
X148683095Y-57421009D02*
X148635476Y-57373390D01*
X148635476Y-57373390D02*
X148540238Y-57325771D01*
X148540238Y-57325771D02*
X148349762Y-57325771D01*
X148349762Y-57325771D02*
X148254524Y-57373390D01*
X148254524Y-57373390D02*
X148206905Y-57421009D01*
X148206905Y-57421009D02*
X148159286Y-57516247D01*
X123944580Y-68206666D02*
X123992200Y-68254285D01*
X123992200Y-68254285D02*
X124039819Y-68397142D01*
X124039819Y-68397142D02*
X124039819Y-68492380D01*
X124039819Y-68492380D02*
X123992200Y-68635237D01*
X123992200Y-68635237D02*
X123896961Y-68730475D01*
X123896961Y-68730475D02*
X123801723Y-68778094D01*
X123801723Y-68778094D02*
X123611247Y-68825713D01*
X123611247Y-68825713D02*
X123468390Y-68825713D01*
X123468390Y-68825713D02*
X123277914Y-68778094D01*
X123277914Y-68778094D02*
X123182676Y-68730475D01*
X123182676Y-68730475D02*
X123087438Y-68635237D01*
X123087438Y-68635237D02*
X123039819Y-68492380D01*
X123039819Y-68492380D02*
X123039819Y-68397142D01*
X123039819Y-68397142D02*
X123087438Y-68254285D01*
X123087438Y-68254285D02*
X123135057Y-68206666D01*
X123135057Y-67825713D02*
X123087438Y-67778094D01*
X123087438Y-67778094D02*
X123039819Y-67682856D01*
X123039819Y-67682856D02*
X123039819Y-67444761D01*
X123039819Y-67444761D02*
X123087438Y-67349523D01*
X123087438Y-67349523D02*
X123135057Y-67301904D01*
X123135057Y-67301904D02*
X123230295Y-67254285D01*
X123230295Y-67254285D02*
X123325533Y-67254285D01*
X123325533Y-67254285D02*
X123468390Y-67301904D01*
X123468390Y-67301904D02*
X124039819Y-67873332D01*
X124039819Y-67873332D02*
X124039819Y-67254285D01*
X112872142Y-85224819D02*
X112538809Y-84748628D01*
X112300714Y-85224819D02*
X112300714Y-84224819D01*
X112300714Y-84224819D02*
X112681666Y-84224819D01*
X112681666Y-84224819D02*
X112776904Y-84272438D01*
X112776904Y-84272438D02*
X112824523Y-84320057D01*
X112824523Y-84320057D02*
X112872142Y-84415295D01*
X112872142Y-84415295D02*
X112872142Y-84558152D01*
X112872142Y-84558152D02*
X112824523Y-84653390D01*
X112824523Y-84653390D02*
X112776904Y-84701009D01*
X112776904Y-84701009D02*
X112681666Y-84748628D01*
X112681666Y-84748628D02*
X112300714Y-84748628D01*
X113824523Y-85224819D02*
X113253095Y-85224819D01*
X113538809Y-85224819D02*
X113538809Y-84224819D01*
X113538809Y-84224819D02*
X113443571Y-84367676D01*
X113443571Y-84367676D02*
X113348333Y-84462914D01*
X113348333Y-84462914D02*
X113253095Y-84510533D01*
X114157857Y-84224819D02*
X114776904Y-84224819D01*
X114776904Y-84224819D02*
X114443571Y-84605771D01*
X114443571Y-84605771D02*
X114586428Y-84605771D01*
X114586428Y-84605771D02*
X114681666Y-84653390D01*
X114681666Y-84653390D02*
X114729285Y-84701009D01*
X114729285Y-84701009D02*
X114776904Y-84796247D01*
X114776904Y-84796247D02*
X114776904Y-85034342D01*
X114776904Y-85034342D02*
X114729285Y-85129580D01*
X114729285Y-85129580D02*
X114681666Y-85177200D01*
X114681666Y-85177200D02*
X114586428Y-85224819D01*
X114586428Y-85224819D02*
X114300714Y-85224819D01*
X114300714Y-85224819D02*
X114205476Y-85177200D01*
X114205476Y-85177200D02*
X114157857Y-85129580D01*
D11*
X133147380Y-62814318D02*
X133147380Y-63842413D01*
X133147380Y-63842413D02*
X133207857Y-63963365D01*
X133207857Y-63963365D02*
X133268333Y-64023842D01*
X133268333Y-64023842D02*
X133389285Y-64084318D01*
X133389285Y-64084318D02*
X133631190Y-64084318D01*
X133631190Y-64084318D02*
X133752142Y-64023842D01*
X133752142Y-64023842D02*
X133812619Y-63963365D01*
X133812619Y-63963365D02*
X133873095Y-63842413D01*
X133873095Y-63842413D02*
X133873095Y-62814318D01*
X135022142Y-63237651D02*
X135022142Y-64084318D01*
X134719761Y-62753842D02*
X134417380Y-63660984D01*
X134417380Y-63660984D02*
X135203571Y-63660984D01*
D10*
X130310833Y-70029580D02*
X130263214Y-70077200D01*
X130263214Y-70077200D02*
X130120357Y-70124819D01*
X130120357Y-70124819D02*
X130025119Y-70124819D01*
X130025119Y-70124819D02*
X129882262Y-70077200D01*
X129882262Y-70077200D02*
X129787024Y-69981961D01*
X129787024Y-69981961D02*
X129739405Y-69886723D01*
X129739405Y-69886723D02*
X129691786Y-69696247D01*
X129691786Y-69696247D02*
X129691786Y-69553390D01*
X129691786Y-69553390D02*
X129739405Y-69362914D01*
X129739405Y-69362914D02*
X129787024Y-69267676D01*
X129787024Y-69267676D02*
X129882262Y-69172438D01*
X129882262Y-69172438D02*
X130025119Y-69124819D01*
X130025119Y-69124819D02*
X130120357Y-69124819D01*
X130120357Y-69124819D02*
X130263214Y-69172438D01*
X130263214Y-69172438D02*
X130310833Y-69220057D01*
X131167976Y-69458152D02*
X131167976Y-70124819D01*
X130929881Y-69077200D02*
X130691786Y-69791485D01*
X130691786Y-69791485D02*
X131310833Y-69791485D01*
X150818333Y-57944819D02*
X150485000Y-57468628D01*
X150246905Y-57944819D02*
X150246905Y-56944819D01*
X150246905Y-56944819D02*
X150627857Y-56944819D01*
X150627857Y-56944819D02*
X150723095Y-56992438D01*
X150723095Y-56992438D02*
X150770714Y-57040057D01*
X150770714Y-57040057D02*
X150818333Y-57135295D01*
X150818333Y-57135295D02*
X150818333Y-57278152D01*
X150818333Y-57278152D02*
X150770714Y-57373390D01*
X150770714Y-57373390D02*
X150723095Y-57421009D01*
X150723095Y-57421009D02*
X150627857Y-57468628D01*
X150627857Y-57468628D02*
X150246905Y-57468628D01*
X151294524Y-57944819D02*
X151485000Y-57944819D01*
X151485000Y-57944819D02*
X151580238Y-57897200D01*
X151580238Y-57897200D02*
X151627857Y-57849580D01*
X151627857Y-57849580D02*
X151723095Y-57706723D01*
X151723095Y-57706723D02*
X151770714Y-57516247D01*
X151770714Y-57516247D02*
X151770714Y-57135295D01*
X151770714Y-57135295D02*
X151723095Y-57040057D01*
X151723095Y-57040057D02*
X151675476Y-56992438D01*
X151675476Y-56992438D02*
X151580238Y-56944819D01*
X151580238Y-56944819D02*
X151389762Y-56944819D01*
X151389762Y-56944819D02*
X151294524Y-56992438D01*
X151294524Y-56992438D02*
X151246905Y-57040057D01*
X151246905Y-57040057D02*
X151199286Y-57135295D01*
X151199286Y-57135295D02*
X151199286Y-57373390D01*
X151199286Y-57373390D02*
X151246905Y-57468628D01*
X151246905Y-57468628D02*
X151294524Y-57516247D01*
X151294524Y-57516247D02*
X151389762Y-57563866D01*
X151389762Y-57563866D02*
X151580238Y-57563866D01*
X151580238Y-57563866D02*
X151675476Y-57516247D01*
X151675476Y-57516247D02*
X151723095Y-57468628D01*
X151723095Y-57468628D02*
X151770714Y-57373390D01*
X127129819Y-69986666D02*
X126653628Y-70319999D01*
X127129819Y-70558094D02*
X126129819Y-70558094D01*
X126129819Y-70558094D02*
X126129819Y-70177142D01*
X126129819Y-70177142D02*
X126177438Y-70081904D01*
X126177438Y-70081904D02*
X126225057Y-70034285D01*
X126225057Y-70034285D02*
X126320295Y-69986666D01*
X126320295Y-69986666D02*
X126463152Y-69986666D01*
X126463152Y-69986666D02*
X126558390Y-70034285D01*
X126558390Y-70034285D02*
X126606009Y-70081904D01*
X126606009Y-70081904D02*
X126653628Y-70177142D01*
X126653628Y-70177142D02*
X126653628Y-70558094D01*
X126225057Y-69605713D02*
X126177438Y-69558094D01*
X126177438Y-69558094D02*
X126129819Y-69462856D01*
X126129819Y-69462856D02*
X126129819Y-69224761D01*
X126129819Y-69224761D02*
X126177438Y-69129523D01*
X126177438Y-69129523D02*
X126225057Y-69081904D01*
X126225057Y-69081904D02*
X126320295Y-69034285D01*
X126320295Y-69034285D02*
X126415533Y-69034285D01*
X126415533Y-69034285D02*
X126558390Y-69081904D01*
X126558390Y-69081904D02*
X127129819Y-69653332D01*
X127129819Y-69653332D02*
X127129819Y-69034285D01*
X125559819Y-70156666D02*
X125083628Y-70489999D01*
X125559819Y-70728094D02*
X124559819Y-70728094D01*
X124559819Y-70728094D02*
X124559819Y-70347142D01*
X124559819Y-70347142D02*
X124607438Y-70251904D01*
X124607438Y-70251904D02*
X124655057Y-70204285D01*
X124655057Y-70204285D02*
X124750295Y-70156666D01*
X124750295Y-70156666D02*
X124893152Y-70156666D01*
X124893152Y-70156666D02*
X124988390Y-70204285D01*
X124988390Y-70204285D02*
X125036009Y-70251904D01*
X125036009Y-70251904D02*
X125083628Y-70347142D01*
X125083628Y-70347142D02*
X125083628Y-70728094D01*
X125559819Y-69204285D02*
X125559819Y-69775713D01*
X125559819Y-69489999D02*
X124559819Y-69489999D01*
X124559819Y-69489999D02*
X124702676Y-69585237D01*
X124702676Y-69585237D02*
X124797914Y-69680475D01*
X124797914Y-69680475D02*
X124845533Y-69775713D01*
X136154580Y-66157857D02*
X136202200Y-66205476D01*
X136202200Y-66205476D02*
X136249819Y-66348333D01*
X136249819Y-66348333D02*
X136249819Y-66443571D01*
X136249819Y-66443571D02*
X136202200Y-66586428D01*
X136202200Y-66586428D02*
X136106961Y-66681666D01*
X136106961Y-66681666D02*
X136011723Y-66729285D01*
X136011723Y-66729285D02*
X135821247Y-66776904D01*
X135821247Y-66776904D02*
X135678390Y-66776904D01*
X135678390Y-66776904D02*
X135487914Y-66729285D01*
X135487914Y-66729285D02*
X135392676Y-66681666D01*
X135392676Y-66681666D02*
X135297438Y-66586428D01*
X135297438Y-66586428D02*
X135249819Y-66443571D01*
X135249819Y-66443571D02*
X135249819Y-66348333D01*
X135249819Y-66348333D02*
X135297438Y-66205476D01*
X135297438Y-66205476D02*
X135345057Y-66157857D01*
X136249819Y-65205476D02*
X136249819Y-65776904D01*
X136249819Y-65491190D02*
X135249819Y-65491190D01*
X135249819Y-65491190D02*
X135392676Y-65586428D01*
X135392676Y-65586428D02*
X135487914Y-65681666D01*
X135487914Y-65681666D02*
X135535533Y-65776904D01*
X135249819Y-64300714D02*
X135249819Y-64776904D01*
X135249819Y-64776904D02*
X135726009Y-64824523D01*
X135726009Y-64824523D02*
X135678390Y-64776904D01*
X135678390Y-64776904D02*
X135630771Y-64681666D01*
X135630771Y-64681666D02*
X135630771Y-64443571D01*
X135630771Y-64443571D02*
X135678390Y-64348333D01*
X135678390Y-64348333D02*
X135726009Y-64300714D01*
X135726009Y-64300714D02*
X135821247Y-64253095D01*
X135821247Y-64253095D02*
X136059342Y-64253095D01*
X136059342Y-64253095D02*
X136154580Y-64300714D01*
X136154580Y-64300714D02*
X136202200Y-64348333D01*
X136202200Y-64348333D02*
X136249819Y-64443571D01*
X136249819Y-64443571D02*
X136249819Y-64681666D01*
X136249819Y-64681666D02*
X136202200Y-64776904D01*
X136202200Y-64776904D02*
X136154580Y-64824523D01*
X115018333Y-51784819D02*
X114685000Y-51308628D01*
X114446905Y-51784819D02*
X114446905Y-50784819D01*
X114446905Y-50784819D02*
X114827857Y-50784819D01*
X114827857Y-50784819D02*
X114923095Y-50832438D01*
X114923095Y-50832438D02*
X114970714Y-50880057D01*
X114970714Y-50880057D02*
X115018333Y-50975295D01*
X115018333Y-50975295D02*
X115018333Y-51118152D01*
X115018333Y-51118152D02*
X114970714Y-51213390D01*
X114970714Y-51213390D02*
X114923095Y-51261009D01*
X114923095Y-51261009D02*
X114827857Y-51308628D01*
X114827857Y-51308628D02*
X114446905Y-51308628D01*
X115875476Y-51118152D02*
X115875476Y-51784819D01*
X115637381Y-50737200D02*
X115399286Y-51451485D01*
X115399286Y-51451485D02*
X116018333Y-51451485D01*
X130902142Y-72519580D02*
X130854523Y-72567200D01*
X130854523Y-72567200D02*
X130711666Y-72614819D01*
X130711666Y-72614819D02*
X130616428Y-72614819D01*
X130616428Y-72614819D02*
X130473571Y-72567200D01*
X130473571Y-72567200D02*
X130378333Y-72471961D01*
X130378333Y-72471961D02*
X130330714Y-72376723D01*
X130330714Y-72376723D02*
X130283095Y-72186247D01*
X130283095Y-72186247D02*
X130283095Y-72043390D01*
X130283095Y-72043390D02*
X130330714Y-71852914D01*
X130330714Y-71852914D02*
X130378333Y-71757676D01*
X130378333Y-71757676D02*
X130473571Y-71662438D01*
X130473571Y-71662438D02*
X130616428Y-71614819D01*
X130616428Y-71614819D02*
X130711666Y-71614819D01*
X130711666Y-71614819D02*
X130854523Y-71662438D01*
X130854523Y-71662438D02*
X130902142Y-71710057D01*
X131854523Y-72614819D02*
X131283095Y-72614819D01*
X131568809Y-72614819D02*
X131568809Y-71614819D01*
X131568809Y-71614819D02*
X131473571Y-71757676D01*
X131473571Y-71757676D02*
X131378333Y-71852914D01*
X131378333Y-71852914D02*
X131283095Y-71900533D01*
X132806904Y-72614819D02*
X132235476Y-72614819D01*
X132521190Y-72614819D02*
X132521190Y-71614819D01*
X132521190Y-71614819D02*
X132425952Y-71757676D01*
X132425952Y-71757676D02*
X132330714Y-71852914D01*
X132330714Y-71852914D02*
X132235476Y-71900533D01*
X110524580Y-64431666D02*
X110572200Y-64479285D01*
X110572200Y-64479285D02*
X110619819Y-64622142D01*
X110619819Y-64622142D02*
X110619819Y-64717380D01*
X110619819Y-64717380D02*
X110572200Y-64860237D01*
X110572200Y-64860237D02*
X110476961Y-64955475D01*
X110476961Y-64955475D02*
X110381723Y-65003094D01*
X110381723Y-65003094D02*
X110191247Y-65050713D01*
X110191247Y-65050713D02*
X110048390Y-65050713D01*
X110048390Y-65050713D02*
X109857914Y-65003094D01*
X109857914Y-65003094D02*
X109762676Y-64955475D01*
X109762676Y-64955475D02*
X109667438Y-64860237D01*
X109667438Y-64860237D02*
X109619819Y-64717380D01*
X109619819Y-64717380D02*
X109619819Y-64622142D01*
X109619819Y-64622142D02*
X109667438Y-64479285D01*
X109667438Y-64479285D02*
X109715057Y-64431666D01*
X109619819Y-63574523D02*
X109619819Y-63764999D01*
X109619819Y-63764999D02*
X109667438Y-63860237D01*
X109667438Y-63860237D02*
X109715057Y-63907856D01*
X109715057Y-63907856D02*
X109857914Y-64003094D01*
X109857914Y-64003094D02*
X110048390Y-64050713D01*
X110048390Y-64050713D02*
X110429342Y-64050713D01*
X110429342Y-64050713D02*
X110524580Y-64003094D01*
X110524580Y-64003094D02*
X110572200Y-63955475D01*
X110572200Y-63955475D02*
X110619819Y-63860237D01*
X110619819Y-63860237D02*
X110619819Y-63669761D01*
X110619819Y-63669761D02*
X110572200Y-63574523D01*
X110572200Y-63574523D02*
X110524580Y-63526904D01*
X110524580Y-63526904D02*
X110429342Y-63479285D01*
X110429342Y-63479285D02*
X110191247Y-63479285D01*
X110191247Y-63479285D02*
X110096009Y-63526904D01*
X110096009Y-63526904D02*
X110048390Y-63574523D01*
X110048390Y-63574523D02*
X110000771Y-63669761D01*
X110000771Y-63669761D02*
X110000771Y-63860237D01*
X110000771Y-63860237D02*
X110048390Y-63955475D01*
X110048390Y-63955475D02*
X110096009Y-64003094D01*
X110096009Y-64003094D02*
X110191247Y-64050713D01*
X179826905Y-64004819D02*
X179826905Y-63004819D01*
X179826905Y-63004819D02*
X180065000Y-63004819D01*
X180065000Y-63004819D02*
X180207857Y-63052438D01*
X180207857Y-63052438D02*
X180303095Y-63147676D01*
X180303095Y-63147676D02*
X180350714Y-63242914D01*
X180350714Y-63242914D02*
X180398333Y-63433390D01*
X180398333Y-63433390D02*
X180398333Y-63576247D01*
X180398333Y-63576247D02*
X180350714Y-63766723D01*
X180350714Y-63766723D02*
X180303095Y-63861961D01*
X180303095Y-63861961D02*
X180207857Y-63957200D01*
X180207857Y-63957200D02*
X180065000Y-64004819D01*
X180065000Y-64004819D02*
X179826905Y-64004819D01*
X180731667Y-63004819D02*
X181398333Y-63004819D01*
X181398333Y-63004819D02*
X180969762Y-64004819D01*
X131448333Y-55804819D02*
X131115000Y-55328628D01*
X130876905Y-55804819D02*
X130876905Y-54804819D01*
X130876905Y-54804819D02*
X131257857Y-54804819D01*
X131257857Y-54804819D02*
X131353095Y-54852438D01*
X131353095Y-54852438D02*
X131400714Y-54900057D01*
X131400714Y-54900057D02*
X131448333Y-54995295D01*
X131448333Y-54995295D02*
X131448333Y-55138152D01*
X131448333Y-55138152D02*
X131400714Y-55233390D01*
X131400714Y-55233390D02*
X131353095Y-55281009D01*
X131353095Y-55281009D02*
X131257857Y-55328628D01*
X131257857Y-55328628D02*
X130876905Y-55328628D01*
X132353095Y-54804819D02*
X131876905Y-54804819D01*
X131876905Y-54804819D02*
X131829286Y-55281009D01*
X131829286Y-55281009D02*
X131876905Y-55233390D01*
X131876905Y-55233390D02*
X131972143Y-55185771D01*
X131972143Y-55185771D02*
X132210238Y-55185771D01*
X132210238Y-55185771D02*
X132305476Y-55233390D01*
X132305476Y-55233390D02*
X132353095Y-55281009D01*
X132353095Y-55281009D02*
X132400714Y-55376247D01*
X132400714Y-55376247D02*
X132400714Y-55614342D01*
X132400714Y-55614342D02*
X132353095Y-55709580D01*
X132353095Y-55709580D02*
X132305476Y-55757200D01*
X132305476Y-55757200D02*
X132210238Y-55804819D01*
X132210238Y-55804819D02*
X131972143Y-55804819D01*
X131972143Y-55804819D02*
X131876905Y-55757200D01*
X131876905Y-55757200D02*
X131829286Y-55709580D01*
X132963095Y-65962319D02*
X132963095Y-66771842D01*
X132963095Y-66771842D02*
X133010714Y-66867080D01*
X133010714Y-66867080D02*
X133058333Y-66914700D01*
X133058333Y-66914700D02*
X133153571Y-66962319D01*
X133153571Y-66962319D02*
X133344047Y-66962319D01*
X133344047Y-66962319D02*
X133439285Y-66914700D01*
X133439285Y-66914700D02*
X133486904Y-66867080D01*
X133486904Y-66867080D02*
X133534523Y-66771842D01*
X133534523Y-66771842D02*
X133534523Y-65962319D01*
X133915476Y-65962319D02*
X134534523Y-65962319D01*
X134534523Y-65962319D02*
X134201190Y-66343271D01*
X134201190Y-66343271D02*
X134344047Y-66343271D01*
X134344047Y-66343271D02*
X134439285Y-66390890D01*
X134439285Y-66390890D02*
X134486904Y-66438509D01*
X134486904Y-66438509D02*
X134534523Y-66533747D01*
X134534523Y-66533747D02*
X134534523Y-66771842D01*
X134534523Y-66771842D02*
X134486904Y-66867080D01*
X134486904Y-66867080D02*
X134439285Y-66914700D01*
X134439285Y-66914700D02*
X134344047Y-66962319D01*
X134344047Y-66962319D02*
X134058333Y-66962319D01*
X134058333Y-66962319D02*
X133963095Y-66914700D01*
X133963095Y-66914700D02*
X133915476Y-66867080D01*
X103627080Y-68252857D02*
X103674700Y-68300476D01*
X103674700Y-68300476D02*
X103722319Y-68443333D01*
X103722319Y-68443333D02*
X103722319Y-68538571D01*
X103722319Y-68538571D02*
X103674700Y-68681428D01*
X103674700Y-68681428D02*
X103579461Y-68776666D01*
X103579461Y-68776666D02*
X103484223Y-68824285D01*
X103484223Y-68824285D02*
X103293747Y-68871904D01*
X103293747Y-68871904D02*
X103150890Y-68871904D01*
X103150890Y-68871904D02*
X102960414Y-68824285D01*
X102960414Y-68824285D02*
X102865176Y-68776666D01*
X102865176Y-68776666D02*
X102769938Y-68681428D01*
X102769938Y-68681428D02*
X102722319Y-68538571D01*
X102722319Y-68538571D02*
X102722319Y-68443333D01*
X102722319Y-68443333D02*
X102769938Y-68300476D01*
X102769938Y-68300476D02*
X102817557Y-68252857D01*
X103722319Y-67300476D02*
X103722319Y-67871904D01*
X103722319Y-67586190D02*
X102722319Y-67586190D01*
X102722319Y-67586190D02*
X102865176Y-67681428D01*
X102865176Y-67681428D02*
X102960414Y-67776666D01*
X102960414Y-67776666D02*
X103008033Y-67871904D01*
X103055652Y-66443333D02*
X103722319Y-66443333D01*
X102674700Y-66681428D02*
X103388985Y-66919523D01*
X103388985Y-66919523D02*
X103388985Y-66300476D01*
X116780833Y-61154819D02*
X116447500Y-60678628D01*
X116209405Y-61154819D02*
X116209405Y-60154819D01*
X116209405Y-60154819D02*
X116590357Y-60154819D01*
X116590357Y-60154819D02*
X116685595Y-60202438D01*
X116685595Y-60202438D02*
X116733214Y-60250057D01*
X116733214Y-60250057D02*
X116780833Y-60345295D01*
X116780833Y-60345295D02*
X116780833Y-60488152D01*
X116780833Y-60488152D02*
X116733214Y-60583390D01*
X116733214Y-60583390D02*
X116685595Y-60631009D01*
X116685595Y-60631009D02*
X116590357Y-60678628D01*
X116590357Y-60678628D02*
X116209405Y-60678628D01*
X117114167Y-60154819D02*
X117733214Y-60154819D01*
X117733214Y-60154819D02*
X117399881Y-60535771D01*
X117399881Y-60535771D02*
X117542738Y-60535771D01*
X117542738Y-60535771D02*
X117637976Y-60583390D01*
X117637976Y-60583390D02*
X117685595Y-60631009D01*
X117685595Y-60631009D02*
X117733214Y-60726247D01*
X117733214Y-60726247D02*
X117733214Y-60964342D01*
X117733214Y-60964342D02*
X117685595Y-61059580D01*
X117685595Y-61059580D02*
X117637976Y-61107200D01*
X117637976Y-61107200D02*
X117542738Y-61154819D01*
X117542738Y-61154819D02*
X117257024Y-61154819D01*
X117257024Y-61154819D02*
X117161786Y-61107200D01*
X117161786Y-61107200D02*
X117114167Y-61059580D01*
D11*
X117531667Y-75714318D02*
X117531667Y-76621461D01*
X117531667Y-76621461D02*
X117471190Y-76802889D01*
X117471190Y-76802889D02*
X117350238Y-76923842D01*
X117350238Y-76923842D02*
X117168809Y-76984318D01*
X117168809Y-76984318D02*
X117047857Y-76984318D01*
X118680714Y-75714318D02*
X118438809Y-75714318D01*
X118438809Y-75714318D02*
X118317857Y-75774794D01*
X118317857Y-75774794D02*
X118257381Y-75835270D01*
X118257381Y-75835270D02*
X118136428Y-76016699D01*
X118136428Y-76016699D02*
X118075952Y-76258603D01*
X118075952Y-76258603D02*
X118075952Y-76742413D01*
X118075952Y-76742413D02*
X118136428Y-76863365D01*
X118136428Y-76863365D02*
X118196905Y-76923842D01*
X118196905Y-76923842D02*
X118317857Y-76984318D01*
X118317857Y-76984318D02*
X118559762Y-76984318D01*
X118559762Y-76984318D02*
X118680714Y-76923842D01*
X118680714Y-76923842D02*
X118741190Y-76863365D01*
X118741190Y-76863365D02*
X118801667Y-76742413D01*
X118801667Y-76742413D02*
X118801667Y-76440032D01*
X118801667Y-76440032D02*
X118741190Y-76319080D01*
X118741190Y-76319080D02*
X118680714Y-76258603D01*
X118680714Y-76258603D02*
X118559762Y-76198127D01*
X118559762Y-76198127D02*
X118317857Y-76198127D01*
X118317857Y-76198127D02*
X118196905Y-76258603D01*
X118196905Y-76258603D02*
X118136428Y-76319080D01*
X118136428Y-76319080D02*
X118075952Y-76440032D01*
D10*
X159448333Y-43149580D02*
X159400714Y-43197200D01*
X159400714Y-43197200D02*
X159257857Y-43244819D01*
X159257857Y-43244819D02*
X159162619Y-43244819D01*
X159162619Y-43244819D02*
X159019762Y-43197200D01*
X159019762Y-43197200D02*
X158924524Y-43101961D01*
X158924524Y-43101961D02*
X158876905Y-43006723D01*
X158876905Y-43006723D02*
X158829286Y-42816247D01*
X158829286Y-42816247D02*
X158829286Y-42673390D01*
X158829286Y-42673390D02*
X158876905Y-42482914D01*
X158876905Y-42482914D02*
X158924524Y-42387676D01*
X158924524Y-42387676D02*
X159019762Y-42292438D01*
X159019762Y-42292438D02*
X159162619Y-42244819D01*
X159162619Y-42244819D02*
X159257857Y-42244819D01*
X159257857Y-42244819D02*
X159400714Y-42292438D01*
X159400714Y-42292438D02*
X159448333Y-42340057D01*
X160353095Y-42244819D02*
X159876905Y-42244819D01*
X159876905Y-42244819D02*
X159829286Y-42721009D01*
X159829286Y-42721009D02*
X159876905Y-42673390D01*
X159876905Y-42673390D02*
X159972143Y-42625771D01*
X159972143Y-42625771D02*
X160210238Y-42625771D01*
X160210238Y-42625771D02*
X160305476Y-42673390D01*
X160305476Y-42673390D02*
X160353095Y-42721009D01*
X160353095Y-42721009D02*
X160400714Y-42816247D01*
X160400714Y-42816247D02*
X160400714Y-43054342D01*
X160400714Y-43054342D02*
X160353095Y-43149580D01*
X160353095Y-43149580D02*
X160305476Y-43197200D01*
X160305476Y-43197200D02*
X160210238Y-43244819D01*
X160210238Y-43244819D02*
X159972143Y-43244819D01*
X159972143Y-43244819D02*
X159876905Y-43197200D01*
X159876905Y-43197200D02*
X159829286Y-43149580D01*
D11*
X144405237Y-66194318D02*
X144405237Y-64924318D01*
X145735714Y-66073365D02*
X145675238Y-66133842D01*
X145675238Y-66133842D02*
X145493809Y-66194318D01*
X145493809Y-66194318D02*
X145372857Y-66194318D01*
X145372857Y-66194318D02*
X145191428Y-66133842D01*
X145191428Y-66133842D02*
X145070476Y-66012889D01*
X145070476Y-66012889D02*
X145009999Y-65891937D01*
X145009999Y-65891937D02*
X144949523Y-65650032D01*
X144949523Y-65650032D02*
X144949523Y-65468603D01*
X144949523Y-65468603D02*
X145009999Y-65226699D01*
X145009999Y-65226699D02*
X145070476Y-65105746D01*
X145070476Y-65105746D02*
X145191428Y-64984794D01*
X145191428Y-64984794D02*
X145372857Y-64924318D01*
X145372857Y-64924318D02*
X145493809Y-64924318D01*
X145493809Y-64924318D02*
X145675238Y-64984794D01*
X145675238Y-64984794D02*
X145735714Y-65045270D01*
X146159047Y-64924318D02*
X146945238Y-64924318D01*
X146945238Y-64924318D02*
X146521904Y-65408127D01*
X146521904Y-65408127D02*
X146703333Y-65408127D01*
X146703333Y-65408127D02*
X146824285Y-65468603D01*
X146824285Y-65468603D02*
X146884761Y-65529080D01*
X146884761Y-65529080D02*
X146945238Y-65650032D01*
X146945238Y-65650032D02*
X146945238Y-65952413D01*
X146945238Y-65952413D02*
X146884761Y-66073365D01*
X146884761Y-66073365D02*
X146824285Y-66133842D01*
X146824285Y-66133842D02*
X146703333Y-66194318D01*
X146703333Y-66194318D02*
X146340476Y-66194318D01*
X146340476Y-66194318D02*
X146219523Y-66133842D01*
X146219523Y-66133842D02*
X146159047Y-66073365D01*
D10*
X121148214Y-55714819D02*
X121148214Y-54714819D01*
X121148214Y-54714819D02*
X121386309Y-54714819D01*
X121386309Y-54714819D02*
X121529166Y-54762438D01*
X121529166Y-54762438D02*
X121624404Y-54857676D01*
X121624404Y-54857676D02*
X121672023Y-54952914D01*
X121672023Y-54952914D02*
X121719642Y-55143390D01*
X121719642Y-55143390D02*
X121719642Y-55286247D01*
X121719642Y-55286247D02*
X121672023Y-55476723D01*
X121672023Y-55476723D02*
X121624404Y-55571961D01*
X121624404Y-55571961D02*
X121529166Y-55667200D01*
X121529166Y-55667200D02*
X121386309Y-55714819D01*
X121386309Y-55714819D02*
X121148214Y-55714819D01*
X122672023Y-55714819D02*
X122100595Y-55714819D01*
X122386309Y-55714819D02*
X122386309Y-54714819D01*
X122386309Y-54714819D02*
X122291071Y-54857676D01*
X122291071Y-54857676D02*
X122195833Y-54952914D01*
X122195833Y-54952914D02*
X122100595Y-55000533D01*
X123576785Y-54714819D02*
X123100595Y-54714819D01*
X123100595Y-54714819D02*
X123052976Y-55191009D01*
X123052976Y-55191009D02*
X123100595Y-55143390D01*
X123100595Y-55143390D02*
X123195833Y-55095771D01*
X123195833Y-55095771D02*
X123433928Y-55095771D01*
X123433928Y-55095771D02*
X123529166Y-55143390D01*
X123529166Y-55143390D02*
X123576785Y-55191009D01*
X123576785Y-55191009D02*
X123624404Y-55286247D01*
X123624404Y-55286247D02*
X123624404Y-55524342D01*
X123624404Y-55524342D02*
X123576785Y-55619580D01*
X123576785Y-55619580D02*
X123529166Y-55667200D01*
X123529166Y-55667200D02*
X123433928Y-55714819D01*
X123433928Y-55714819D02*
X123195833Y-55714819D01*
X123195833Y-55714819D02*
X123100595Y-55667200D01*
X123100595Y-55667200D02*
X123052976Y-55619580D01*
D13*
X90791390Y-82409047D02*
X90743771Y-82551904D01*
X90743771Y-82551904D02*
X90696152Y-82599523D01*
X90696152Y-82599523D02*
X90600914Y-82647142D01*
X90600914Y-82647142D02*
X90458057Y-82647142D01*
X90458057Y-82647142D02*
X90362819Y-82599523D01*
X90362819Y-82599523D02*
X90315200Y-82551904D01*
X90315200Y-82551904D02*
X90267580Y-82456666D01*
X90267580Y-82456666D02*
X90267580Y-82075714D01*
X90267580Y-82075714D02*
X91267580Y-82075714D01*
X91267580Y-82075714D02*
X91267580Y-82409047D01*
X91267580Y-82409047D02*
X91219961Y-82504285D01*
X91219961Y-82504285D02*
X91172342Y-82551904D01*
X91172342Y-82551904D02*
X91077104Y-82599523D01*
X91077104Y-82599523D02*
X90981866Y-82599523D01*
X90981866Y-82599523D02*
X90886628Y-82551904D01*
X90886628Y-82551904D02*
X90839009Y-82504285D01*
X90839009Y-82504285D02*
X90791390Y-82409047D01*
X90791390Y-82409047D02*
X90791390Y-82075714D01*
X91267580Y-82980476D02*
X91267580Y-83647142D01*
X91267580Y-83647142D02*
X90267580Y-82980476D01*
X90267580Y-82980476D02*
X90267580Y-83647142D01*
X90267580Y-84551904D02*
X90267580Y-83980476D01*
X90267580Y-84266190D02*
X91267580Y-84266190D01*
X91267580Y-84266190D02*
X91124723Y-84170952D01*
X91124723Y-84170952D02*
X91029485Y-84075714D01*
X91029485Y-84075714D02*
X90981866Y-83980476D01*
X100873646Y-85042419D02*
X101492693Y-85042419D01*
X101492693Y-85042419D02*
X101159360Y-85423371D01*
X101159360Y-85423371D02*
X101302217Y-85423371D01*
X101302217Y-85423371D02*
X101397455Y-85470990D01*
X101397455Y-85470990D02*
X101445074Y-85518609D01*
X101445074Y-85518609D02*
X101492693Y-85613847D01*
X101492693Y-85613847D02*
X101492693Y-85851942D01*
X101492693Y-85851942D02*
X101445074Y-85947180D01*
X101445074Y-85947180D02*
X101397455Y-85994800D01*
X101397455Y-85994800D02*
X101302217Y-86042419D01*
X101302217Y-86042419D02*
X101016503Y-86042419D01*
X101016503Y-86042419D02*
X100921265Y-85994800D01*
X100921265Y-85994800D02*
X100873646Y-85947180D01*
X100981265Y-79987657D02*
X101028884Y-79940038D01*
X101028884Y-79940038D02*
X101124122Y-79892419D01*
X101124122Y-79892419D02*
X101362217Y-79892419D01*
X101362217Y-79892419D02*
X101457455Y-79940038D01*
X101457455Y-79940038D02*
X101505074Y-79987657D01*
X101505074Y-79987657D02*
X101552693Y-80082895D01*
X101552693Y-80082895D02*
X101552693Y-80178133D01*
X101552693Y-80178133D02*
X101505074Y-80320990D01*
X101505074Y-80320990D02*
X100933646Y-80892419D01*
X100933646Y-80892419D02*
X101552693Y-80892419D01*
X112267455Y-85765752D02*
X112267455Y-86432419D01*
X112029360Y-85384800D02*
X111791265Y-86099085D01*
X111791265Y-86099085D02*
X112410312Y-86099085D01*
X112362693Y-78882419D02*
X111791265Y-78882419D01*
X112076979Y-78882419D02*
X112076979Y-77882419D01*
X112076979Y-77882419D02*
X111981741Y-78025276D01*
X111981741Y-78025276D02*
X111886503Y-78120514D01*
X111886503Y-78120514D02*
X111791265Y-78168133D01*
D10*
X117169819Y-63331904D02*
X117979342Y-63331904D01*
X117979342Y-63331904D02*
X118074580Y-63284285D01*
X118074580Y-63284285D02*
X118122200Y-63236666D01*
X118122200Y-63236666D02*
X118169819Y-63141428D01*
X118169819Y-63141428D02*
X118169819Y-62950952D01*
X118169819Y-62950952D02*
X118122200Y-62855714D01*
X118122200Y-62855714D02*
X118074580Y-62808095D01*
X118074580Y-62808095D02*
X117979342Y-62760476D01*
X117979342Y-62760476D02*
X117169819Y-62760476D01*
X117265057Y-62331904D02*
X117217438Y-62284285D01*
X117217438Y-62284285D02*
X117169819Y-62189047D01*
X117169819Y-62189047D02*
X117169819Y-61950952D01*
X117169819Y-61950952D02*
X117217438Y-61855714D01*
X117217438Y-61855714D02*
X117265057Y-61808095D01*
X117265057Y-61808095D02*
X117360295Y-61760476D01*
X117360295Y-61760476D02*
X117455533Y-61760476D01*
X117455533Y-61760476D02*
X117598390Y-61808095D01*
X117598390Y-61808095D02*
X118169819Y-62379523D01*
X118169819Y-62379523D02*
X118169819Y-61760476D01*
X145328333Y-73459580D02*
X145280714Y-73507200D01*
X145280714Y-73507200D02*
X145137857Y-73554819D01*
X145137857Y-73554819D02*
X145042619Y-73554819D01*
X145042619Y-73554819D02*
X144899762Y-73507200D01*
X144899762Y-73507200D02*
X144804524Y-73411961D01*
X144804524Y-73411961D02*
X144756905Y-73316723D01*
X144756905Y-73316723D02*
X144709286Y-73126247D01*
X144709286Y-73126247D02*
X144709286Y-72983390D01*
X144709286Y-72983390D02*
X144756905Y-72792914D01*
X144756905Y-72792914D02*
X144804524Y-72697676D01*
X144804524Y-72697676D02*
X144899762Y-72602438D01*
X144899762Y-72602438D02*
X145042619Y-72554819D01*
X145042619Y-72554819D02*
X145137857Y-72554819D01*
X145137857Y-72554819D02*
X145280714Y-72602438D01*
X145280714Y-72602438D02*
X145328333Y-72650057D01*
X145804524Y-73554819D02*
X145995000Y-73554819D01*
X145995000Y-73554819D02*
X146090238Y-73507200D01*
X146090238Y-73507200D02*
X146137857Y-73459580D01*
X146137857Y-73459580D02*
X146233095Y-73316723D01*
X146233095Y-73316723D02*
X146280714Y-73126247D01*
X146280714Y-73126247D02*
X146280714Y-72745295D01*
X146280714Y-72745295D02*
X146233095Y-72650057D01*
X146233095Y-72650057D02*
X146185476Y-72602438D01*
X146185476Y-72602438D02*
X146090238Y-72554819D01*
X146090238Y-72554819D02*
X145899762Y-72554819D01*
X145899762Y-72554819D02*
X145804524Y-72602438D01*
X145804524Y-72602438D02*
X145756905Y-72650057D01*
X145756905Y-72650057D02*
X145709286Y-72745295D01*
X145709286Y-72745295D02*
X145709286Y-72983390D01*
X145709286Y-72983390D02*
X145756905Y-73078628D01*
X145756905Y-73078628D02*
X145804524Y-73126247D01*
X145804524Y-73126247D02*
X145899762Y-73173866D01*
X145899762Y-73173866D02*
X146090238Y-73173866D01*
X146090238Y-73173866D02*
X146185476Y-73126247D01*
X146185476Y-73126247D02*
X146233095Y-73078628D01*
X146233095Y-73078628D02*
X146280714Y-72983390D01*
X167392142Y-57289580D02*
X167344523Y-57337200D01*
X167344523Y-57337200D02*
X167201666Y-57384819D01*
X167201666Y-57384819D02*
X167106428Y-57384819D01*
X167106428Y-57384819D02*
X166963571Y-57337200D01*
X166963571Y-57337200D02*
X166868333Y-57241961D01*
X166868333Y-57241961D02*
X166820714Y-57146723D01*
X166820714Y-57146723D02*
X166773095Y-56956247D01*
X166773095Y-56956247D02*
X166773095Y-56813390D01*
X166773095Y-56813390D02*
X166820714Y-56622914D01*
X166820714Y-56622914D02*
X166868333Y-56527676D01*
X166868333Y-56527676D02*
X166963571Y-56432438D01*
X166963571Y-56432438D02*
X167106428Y-56384819D01*
X167106428Y-56384819D02*
X167201666Y-56384819D01*
X167201666Y-56384819D02*
X167344523Y-56432438D01*
X167344523Y-56432438D02*
X167392142Y-56480057D01*
X168344523Y-57384819D02*
X167773095Y-57384819D01*
X168058809Y-57384819D02*
X168058809Y-56384819D01*
X168058809Y-56384819D02*
X167963571Y-56527676D01*
X167963571Y-56527676D02*
X167868333Y-56622914D01*
X167868333Y-56622914D02*
X167773095Y-56670533D01*
X168915952Y-56813390D02*
X168820714Y-56765771D01*
X168820714Y-56765771D02*
X168773095Y-56718152D01*
X168773095Y-56718152D02*
X168725476Y-56622914D01*
X168725476Y-56622914D02*
X168725476Y-56575295D01*
X168725476Y-56575295D02*
X168773095Y-56480057D01*
X168773095Y-56480057D02*
X168820714Y-56432438D01*
X168820714Y-56432438D02*
X168915952Y-56384819D01*
X168915952Y-56384819D02*
X169106428Y-56384819D01*
X169106428Y-56384819D02*
X169201666Y-56432438D01*
X169201666Y-56432438D02*
X169249285Y-56480057D01*
X169249285Y-56480057D02*
X169296904Y-56575295D01*
X169296904Y-56575295D02*
X169296904Y-56622914D01*
X169296904Y-56622914D02*
X169249285Y-56718152D01*
X169249285Y-56718152D02*
X169201666Y-56765771D01*
X169201666Y-56765771D02*
X169106428Y-56813390D01*
X169106428Y-56813390D02*
X168915952Y-56813390D01*
X168915952Y-56813390D02*
X168820714Y-56861009D01*
X168820714Y-56861009D02*
X168773095Y-56908628D01*
X168773095Y-56908628D02*
X168725476Y-57003866D01*
X168725476Y-57003866D02*
X168725476Y-57194342D01*
X168725476Y-57194342D02*
X168773095Y-57289580D01*
X168773095Y-57289580D02*
X168820714Y-57337200D01*
X168820714Y-57337200D02*
X168915952Y-57384819D01*
X168915952Y-57384819D02*
X169106428Y-57384819D01*
X169106428Y-57384819D02*
X169201666Y-57337200D01*
X169201666Y-57337200D02*
X169249285Y-57289580D01*
X169249285Y-57289580D02*
X169296904Y-57194342D01*
X169296904Y-57194342D02*
X169296904Y-57003866D01*
X169296904Y-57003866D02*
X169249285Y-56908628D01*
X169249285Y-56908628D02*
X169201666Y-56861009D01*
X169201666Y-56861009D02*
X169106428Y-56813390D01*
D11*
X167685237Y-64514318D02*
X167685237Y-63244318D01*
X169015714Y-64393365D02*
X168955238Y-64453842D01*
X168955238Y-64453842D02*
X168773809Y-64514318D01*
X168773809Y-64514318D02*
X168652857Y-64514318D01*
X168652857Y-64514318D02*
X168471428Y-64453842D01*
X168471428Y-64453842D02*
X168350476Y-64332889D01*
X168350476Y-64332889D02*
X168289999Y-64211937D01*
X168289999Y-64211937D02*
X168229523Y-63970032D01*
X168229523Y-63970032D02*
X168229523Y-63788603D01*
X168229523Y-63788603D02*
X168289999Y-63546699D01*
X168289999Y-63546699D02*
X168350476Y-63425746D01*
X168350476Y-63425746D02*
X168471428Y-63304794D01*
X168471428Y-63304794D02*
X168652857Y-63244318D01*
X168652857Y-63244318D02*
X168773809Y-63244318D01*
X168773809Y-63244318D02*
X168955238Y-63304794D01*
X168955238Y-63304794D02*
X169015714Y-63365270D01*
X170225238Y-64514318D02*
X169499523Y-64514318D01*
X169862380Y-64514318D02*
X169862380Y-63244318D01*
X169862380Y-63244318D02*
X169741428Y-63425746D01*
X169741428Y-63425746D02*
X169620476Y-63546699D01*
X169620476Y-63546699D02*
X169499523Y-63607175D01*
D10*
X134489819Y-54736666D02*
X134013628Y-55069999D01*
X134489819Y-55308094D02*
X133489819Y-55308094D01*
X133489819Y-55308094D02*
X133489819Y-54927142D01*
X133489819Y-54927142D02*
X133537438Y-54831904D01*
X133537438Y-54831904D02*
X133585057Y-54784285D01*
X133585057Y-54784285D02*
X133680295Y-54736666D01*
X133680295Y-54736666D02*
X133823152Y-54736666D01*
X133823152Y-54736666D02*
X133918390Y-54784285D01*
X133918390Y-54784285D02*
X133966009Y-54831904D01*
X133966009Y-54831904D02*
X134013628Y-54927142D01*
X134013628Y-54927142D02*
X134013628Y-55308094D01*
X133489819Y-54403332D02*
X133489819Y-53736666D01*
X133489819Y-53736666D02*
X134489819Y-54165237D01*
X119140833Y-67729580D02*
X119093214Y-67777200D01*
X119093214Y-67777200D02*
X118950357Y-67824819D01*
X118950357Y-67824819D02*
X118855119Y-67824819D01*
X118855119Y-67824819D02*
X118712262Y-67777200D01*
X118712262Y-67777200D02*
X118617024Y-67681961D01*
X118617024Y-67681961D02*
X118569405Y-67586723D01*
X118569405Y-67586723D02*
X118521786Y-67396247D01*
X118521786Y-67396247D02*
X118521786Y-67253390D01*
X118521786Y-67253390D02*
X118569405Y-67062914D01*
X118569405Y-67062914D02*
X118617024Y-66967676D01*
X118617024Y-66967676D02*
X118712262Y-66872438D01*
X118712262Y-66872438D02*
X118855119Y-66824819D01*
X118855119Y-66824819D02*
X118950357Y-66824819D01*
X118950357Y-66824819D02*
X119093214Y-66872438D01*
X119093214Y-66872438D02*
X119140833Y-66920057D01*
X119474167Y-66824819D02*
X120093214Y-66824819D01*
X120093214Y-66824819D02*
X119759881Y-67205771D01*
X119759881Y-67205771D02*
X119902738Y-67205771D01*
X119902738Y-67205771D02*
X119997976Y-67253390D01*
X119997976Y-67253390D02*
X120045595Y-67301009D01*
X120045595Y-67301009D02*
X120093214Y-67396247D01*
X120093214Y-67396247D02*
X120093214Y-67634342D01*
X120093214Y-67634342D02*
X120045595Y-67729580D01*
X120045595Y-67729580D02*
X119997976Y-67777200D01*
X119997976Y-67777200D02*
X119902738Y-67824819D01*
X119902738Y-67824819D02*
X119617024Y-67824819D01*
X119617024Y-67824819D02*
X119521786Y-67777200D01*
X119521786Y-67777200D02*
X119474167Y-67729580D01*
D14*
%TO.C,C17*%
X168455000Y-66614420D02*
X168455000Y-66895580D01*
X169475000Y-66614420D02*
X169475000Y-66895580D01*
%TO.C,C10*%
X145369420Y-69170000D02*
X145650580Y-69170000D01*
X145369420Y-70190000D02*
X145650580Y-70190000D01*
%TO.C,C1*%
X127405580Y-67080000D02*
X127124420Y-67080000D01*
X127405580Y-68100000D02*
X127124420Y-68100000D01*
%TO.C,D6*%
X169425000Y-61250000D02*
X169425000Y-62560000D01*
X170645000Y-61250000D02*
X169425000Y-61250000D01*
X170645000Y-61250000D02*
X170645000Y-62560000D01*
%TO.C,C8*%
X139414420Y-71580000D02*
X139695580Y-71580000D01*
X139414420Y-72600000D02*
X139695580Y-72600000D01*
D15*
%TO.C,IC2*%
X137605000Y-60675000D02*
X140505000Y-60675000D01*
X137605000Y-61125000D02*
X137605000Y-60675000D01*
X140505000Y-60675000D02*
X140505000Y-61125000D01*
X140505000Y-61125000D02*
X137605000Y-61125000D01*
X140555000Y-59275000D02*
X140555000Y-60325000D01*
D14*
%TO.C,J4*%
X143610000Y-60430000D02*
X144815000Y-60430000D01*
X144815000Y-60130000D02*
X144815000Y-60430000D01*
X144815000Y-60130000D02*
X149035000Y-60130000D01*
X144815000Y-62050000D02*
X144815000Y-62350000D01*
X144815000Y-62350000D02*
X149035000Y-62350000D01*
X149035000Y-60130000D02*
X149035000Y-60430000D01*
X149035000Y-62050000D02*
X149035000Y-62350000D01*
D13*
%TO.C,U1*%
X138305000Y-55763000D02*
X138305000Y-38618000D01*
X140210000Y-57668000D02*
X154180000Y-57668000D01*
D16*
X142700000Y-36713000D02*
X142703728Y-35702728D01*
X143203728Y-35203000D02*
X151199000Y-35203000D01*
X151699000Y-35703000D02*
X151699000Y-36713000D01*
D13*
X154180000Y-36713000D02*
X140210000Y-36713000D01*
X156085000Y-55763000D02*
X156085000Y-38618000D01*
X138305000Y-38614000D02*
G75*
G02*
X140210000Y-36709000I1905001J-1D01*
G01*
X140210000Y-57668000D02*
G75*
G02*
X138305000Y-55763000I1J1905001D01*
G01*
D16*
X142703728Y-35702728D02*
G75*
G02*
X143203728Y-35203001I500018J-291D01*
G01*
X151199000Y-35203000D02*
G75*
G02*
X151699000Y-35703000I0J-500000D01*
G01*
D13*
X154180000Y-36713000D02*
G75*
G02*
X156085000Y-38618000I0J-1905000D01*
G01*
X156085000Y-55763000D02*
G75*
G02*
X154180000Y-57668000I-1905000J0D01*
G01*
D17*
X138347000Y-37129000D02*
G75*
G02*
X137843000Y-37129000I-252000J0D01*
G01*
X137843000Y-37129000D02*
G75*
G02*
X138347000Y-37129000I252000J0D01*
G01*
X139621000Y-37846000D02*
G75*
G02*
X139117000Y-37846000I-252000J0D01*
G01*
X139117000Y-37846000D02*
G75*
G02*
X139621000Y-37846000I252000J0D01*
G01*
D13*
%TO.C,J2*%
X170314693Y-57219239D02*
X170314693Y-57219239D01*
X170385404Y-57289949D02*
X170385404Y-57289949D01*
D15*
X175511928Y-63406423D02*
X172259237Y-60224443D01*
X176219035Y-62699316D02*
X175511928Y-63406423D01*
X179754569Y-50607790D02*
X172506724Y-57784924D01*
X181310204Y-49334998D02*
X179895990Y-50749212D01*
X182582996Y-56335355D02*
X184032565Y-54885786D01*
X183855788Y-54709010D02*
X185270002Y-53294796D01*
X184032565Y-54885786D02*
X179754569Y-50607790D01*
X185270002Y-53294796D02*
X181310204Y-49334998D01*
D13*
X170314693Y-57219239D02*
G75*
G02*
X170385405Y-57289950I35356J-35355D01*
G01*
X170385404Y-57289949D02*
G75*
G02*
X170314694Y-57219239I-35355J35355D01*
G01*
D14*
%TO.C,R12*%
X139062742Y-68627500D02*
X139537258Y-68627500D01*
X139062742Y-69672500D02*
X139537258Y-69672500D01*
%TO.C,R8*%
X135182742Y-49177500D02*
X135657258Y-49177500D01*
X135182742Y-50222500D02*
X135657258Y-50222500D01*
%TO.C,R6*%
X147707742Y-58397500D02*
X148182258Y-58397500D01*
X147707742Y-59442500D02*
X148182258Y-59442500D01*
%TO.C,JP3*%
X118177500Y-57560000D02*
X118177500Y-56960000D01*
X118727500Y-58760000D02*
X119327500Y-58760000D01*
X118827500Y-56260000D02*
X121627500Y-56260000D01*
X119027500Y-58460000D02*
X118727500Y-58760000D01*
X119027500Y-58460000D02*
X119327500Y-58760000D01*
X121627500Y-58260000D02*
X118827500Y-58260000D01*
X122277500Y-56960000D02*
X122277500Y-57560000D01*
X118177500Y-56960000D02*
G75*
G02*
X118877500Y-56260000I699999J1D01*
G01*
X118877500Y-58260000D02*
G75*
G02*
X118177500Y-57560000I-1J699999D01*
G01*
X121577500Y-56260000D02*
G75*
G02*
X122277500Y-56960000I0J-700000D01*
G01*
X122277500Y-57560000D02*
G75*
G02*
X121577500Y-58260000I-700000J0D01*
G01*
%TO.C,C2*%
X124505000Y-68180580D02*
X124505000Y-67899420D01*
X125525000Y-68180580D02*
X125525000Y-67899420D01*
%TO.C,R13*%
X113277742Y-85677500D02*
X113752258Y-85677500D01*
X113277742Y-86722500D02*
X113752258Y-86722500D01*
D15*
%TO.C,U4*%
X132240000Y-62010000D02*
X133390000Y-62010000D01*
X133740000Y-62010000D02*
X134490000Y-62010000D01*
X133740000Y-65010000D02*
X133740000Y-62010000D01*
X134490000Y-62010000D02*
X134490000Y-65010000D01*
X134490000Y-65010000D02*
X133740000Y-65010000D01*
D14*
%TO.C,C4*%
X122438080Y-68670000D02*
X122156920Y-68670000D01*
X122438080Y-69690000D02*
X122156920Y-69690000D01*
%TO.C,R9*%
X150747742Y-58397500D02*
X151222258Y-58397500D01*
X150747742Y-59442500D02*
X151222258Y-59442500D01*
%TO.C,R2*%
X127582500Y-70057258D02*
X127582500Y-69582742D01*
X128627500Y-70057258D02*
X128627500Y-69582742D01*
%TO.C,R1*%
X126012500Y-70227258D02*
X126012500Y-69752742D01*
X127057500Y-70227258D02*
X127057500Y-69752742D01*
%TO.C,C15*%
X136715000Y-65655580D02*
X136715000Y-65374420D01*
X137735000Y-65655580D02*
X137735000Y-65374420D01*
D15*
%TO.C,Q5*%
X104500000Y-73500000D02*
X104950000Y-73500000D01*
X104500000Y-76400000D02*
X104500000Y-73500000D01*
X104950000Y-73500000D02*
X104950000Y-76400000D01*
X104950000Y-76400000D02*
X104500000Y-76400000D01*
X106350000Y-76450000D02*
X105300000Y-76450000D01*
D14*
%TO.C,R4*%
X115031359Y-52120000D02*
X115338641Y-52120000D01*
X115031359Y-52880000D02*
X115338641Y-52880000D01*
%TO.C,C11*%
X131404420Y-73080000D02*
X131685580Y-73080000D01*
X131404420Y-74100000D02*
X131685580Y-74100000D01*
%TO.C,C6*%
X106185000Y-67880580D02*
X106185000Y-67599420D01*
X107205000Y-67880580D02*
X107205000Y-67599420D01*
%TO.C,D7*%
X179755000Y-64290000D02*
X179755000Y-65510000D01*
X179755000Y-64290000D02*
X181065000Y-64290000D01*
X179755000Y-65510000D02*
X181065000Y-65510000D01*
%TO.C,R5*%
X131768641Y-53800000D02*
X131461359Y-53800000D01*
X131768641Y-54560000D02*
X131461359Y-54560000D01*
%TO.C,U3*%
X131665000Y-67347500D02*
X135785000Y-67347500D01*
X131665000Y-67442500D02*
X131665000Y-67347500D01*
X131665000Y-72467500D02*
X131665000Y-72372500D01*
X135785000Y-67347500D02*
X135785000Y-67442500D01*
X135785000Y-72372500D02*
X135785000Y-72467500D01*
X135785000Y-72467500D02*
X131665000Y-72467500D01*
X131125000Y-67437500D02*
X130885000Y-67107500D01*
X131365000Y-67107500D01*
X131125000Y-67437500D01*
G36*
X131125000Y-67437500D02*
G01*
X130885000Y-67107500D01*
X131365000Y-67107500D01*
X131125000Y-67437500D01*
G37*
%TO.C,C14*%
X112455000Y-72010580D02*
X112455000Y-71729420D01*
X113475000Y-72010580D02*
X113475000Y-71729420D01*
%TO.C,R3*%
X116425000Y-57872742D02*
X116425000Y-58347258D01*
X117470000Y-57872742D02*
X117470000Y-58347258D01*
D11*
%TO.C,J6*%
X114074685Y-78630000D02*
X114074685Y-79693000D01*
X114074685Y-78630000D02*
X117054685Y-78630000D01*
X114074685Y-84630000D02*
X114074685Y-83601000D01*
X114074685Y-84630000D02*
X117054685Y-84630000D01*
X118924685Y-83536000D02*
X118924685Y-79727000D01*
X113343055Y-83928000D02*
G75*
G02*
X113222315Y-83928000I-60370J0D01*
G01*
X113222315Y-83928000D02*
G75*
G02*
X113343055Y-83928000I60370J0D01*
G01*
D14*
%TO.C,C5*%
X157365000Y-43515580D02*
X157365000Y-43234420D01*
X158385000Y-43515580D02*
X158385000Y-43234420D01*
D15*
%TO.C,IC3*%
X142195000Y-63040000D02*
X143695000Y-63040000D01*
X144045000Y-63170000D02*
X147245000Y-63170000D01*
X144045000Y-68070000D02*
X144045000Y-63170000D01*
X147245000Y-63170000D02*
X147245000Y-68070000D01*
X147245000Y-68070000D02*
X144045000Y-68070000D01*
D14*
%TO.C,D15*%
X121662500Y-53360000D02*
X123622500Y-53360000D01*
X121662500Y-54560000D02*
X123622500Y-54560000D01*
X123622500Y-54560000D02*
X123622500Y-53360000D01*
%TO.C,U2*%
X118555000Y-60510000D02*
X118610000Y-60510000D01*
X118555000Y-64630000D02*
X118555000Y-60510000D01*
X118610000Y-64630000D02*
X118555000Y-64630000D01*
X128620000Y-60510000D02*
X128675000Y-60510000D01*
X128675000Y-60510000D02*
X128675000Y-64630000D01*
X128675000Y-64630000D02*
X128620000Y-64630000D01*
X118605000Y-65170000D02*
X118275000Y-65410000D01*
X118275000Y-64930000D01*
X118605000Y-65170000D01*
G36*
X118605000Y-65170000D02*
G01*
X118275000Y-65410000D01*
X118275000Y-64930000D01*
X118605000Y-65170000D01*
G37*
%TO.C,C7*%
X112385000Y-56935580D02*
X112385000Y-56654420D01*
X113405000Y-56935580D02*
X113405000Y-56654420D01*
%TO.C,C9*%
X145635580Y-71160000D02*
X145354420Y-71160000D01*
X145635580Y-72180000D02*
X145354420Y-72180000D01*
%TO.C,C18*%
X168175580Y-54990000D02*
X167894420Y-54990000D01*
X168175580Y-56010000D02*
X167894420Y-56010000D01*
D15*
%TO.C,IC1*%
X162825000Y-56990000D02*
X166025000Y-56990000D01*
X162825000Y-61890000D02*
X162825000Y-56990000D01*
X166025000Y-56990000D02*
X166025000Y-61890000D01*
X166025000Y-61890000D02*
X162825000Y-61890000D01*
X167900000Y-62020000D02*
X166375000Y-62020000D01*
D14*
%TO.C,R7*%
X134942500Y-54807258D02*
X134942500Y-54332742D01*
X135987500Y-54807258D02*
X135987500Y-54332742D01*
%TO.C,C3*%
X122478080Y-66800000D02*
X122196920Y-66800000D01*
X122478080Y-67820000D02*
X122196920Y-67820000D01*
%TD*%
M02*
