%TF.GenerationSoftware,KiCad,Pcbnew,9.0.6-9.0.6~ubuntu24.04.1*%
%TF.CreationDate,2026-01-18T18:11:29+05:30*%
%TF.ProjectId,WeighingScalePCB,57656967-6869-46e6-9753-63616c655043,rev?*%
%TF.SameCoordinates,Original*%
%TF.FileFunction,Paste,Top*%
%TF.FilePolarity,Positive*%
%FSLAX46Y46*%
G04 Gerber Fmt 4.6, Leading zero omitted, Abs format (unit mm)*
G04 Created by KiCad (PCBNEW 9.0.6-9.0.6~ubuntu24.04.1) date 2026-01-18 18:11:29*
%MOMM*%
%LPD*%
G01*
G04 APERTURE LIST*
G04 Aperture macros list*
%AMRoundRect*
0 Rectangle with rounded corners*
0 $1 Rounding radius*
0 $2 $3 $4 $5 $6 $7 $8 $9 X,Y pos of 4 corners*
0 Add a 4 corners polygon primitive as box body*
4,1,4,$2,$3,$4,$5,$6,$7,$8,$9,$2,$3,0*
0 Add four circle primitives for the rounded corners*
1,1,$1+$1,$2,$3*
1,1,$1+$1,$4,$5*
1,1,$1+$1,$6,$7*
1,1,$1+$1,$8,$9*
0 Add four rect primitives between the rounded corners*
20,1,$1+$1,$2,$3,$4,$5,0*
20,1,$1+$1,$4,$5,$6,$7,0*
20,1,$1+$1,$6,$7,$8,$9,0*
20,1,$1+$1,$8,$9,$2,$3,0*%
%AMRotRect*
0 Rectangle, with rotation*
0 The origin of the aperture is its center*
0 $1 length*
0 $2 width*
0 $3 Rotation angle, in degrees counterclockwise*
0 Add horizontal line*
21,1,$1,$2,0,0,$3*%
G04 Aperture macros list end*
%ADD10RoundRect,0.225000X-0.250000X0.225000X-0.250000X-0.225000X0.250000X-0.225000X0.250000X0.225000X0*%
%ADD11RoundRect,0.225000X-0.225000X-0.250000X0.225000X-0.250000X0.225000X0.250000X-0.225000X0.250000X0*%
%ADD12RoundRect,0.225000X0.225000X0.250000X-0.225000X0.250000X-0.225000X-0.250000X0.225000X-0.250000X0*%
%ADD13RoundRect,0.050000X-0.250000X0.100000X-0.250000X-0.100000X0.250000X-0.100000X0.250000X0.100000X0*%
%ADD14R,0.600000X1.050000*%
%ADD15R,2.580000X1.000000*%
%ADD16RoundRect,0.500000X-0.875000X-0.500000X0.875000X-0.500000X0.875000X0.500000X-0.875000X0.500000X0*%
%ADD17RoundRect,0.275000X-0.275000X0.975000X-0.275000X-0.975000X0.275000X-0.975000X0.275000X0.975000X0*%
%ADD18C,1.700000*%
%ADD19RotRect,1.200000X2.500000X225.000000*%
%ADD20RoundRect,0.200000X-0.200000X-0.275000X0.200000X-0.275000X0.200000X0.275000X-0.200000X0.275000X0*%
%ADD21RoundRect,0.225000X0.250000X-0.225000X0.250000X0.225000X-0.250000X0.225000X-0.250000X-0.225000X0*%
%ADD22R,1.150000X0.600000*%
%ADD23RoundRect,0.200000X0.275000X-0.200000X0.275000X0.200000X-0.275000X0.200000X-0.275000X-0.200000X0*%
%ADD24R,1.050000X0.600000*%
%ADD25RoundRect,0.135000X-0.135000X-0.185000X0.135000X-0.185000X0.135000X0.185000X-0.135000X0.185000X0*%
%ADD26RoundRect,0.050000X-0.100000X-0.250000X0.100000X-0.250000X0.100000X0.250000X-0.100000X0.250000X0*%
%ADD27RoundRect,0.135000X0.135000X0.185000X-0.135000X0.185000X-0.135000X-0.185000X0.135000X-0.185000X0*%
%ADD28RoundRect,0.150000X-0.825000X-0.150000X0.825000X-0.150000X0.825000X0.150000X-0.825000X0.150000X0*%
%ADD29RoundRect,0.200000X-0.275000X0.200000X-0.275000X-0.200000X0.275000X-0.200000X0.275000X0.200000X0*%
%ADD30R,1.550000X0.600000*%
%ADD31R,1.800000X1.200000*%
%ADD32R,1.500000X0.650000*%
%ADD33RoundRect,0.150000X-0.150000X-0.200000X0.150000X-0.200000X0.150000X0.200000X-0.150000X0.200000X0*%
%ADD34R,2.000000X2.000000*%
%ADD35RoundRect,0.150000X0.150000X-0.825000X0.150000X0.825000X-0.150000X0.825000X-0.150000X-0.825000X0*%
%ADD36R,1.525000X0.650000*%
G04 APERTURE END LIST*
D10*
%TO.C,C17*%
X168965000Y-65980000D03*
X168965000Y-67530000D03*
%TD*%
D11*
%TO.C,C10*%
X144735000Y-69680000D03*
X146285000Y-69680000D03*
%TD*%
D12*
%TO.C,C1*%
X128040000Y-67590000D03*
X126490000Y-67590000D03*
%TD*%
D13*
%TO.C,D6*%
X170035000Y-61710000D03*
X170035000Y-62410000D03*
%TD*%
D11*
%TO.C,C8*%
X138780000Y-72090000D03*
X140330000Y-72090000D03*
%TD*%
D14*
%TO.C,IC2*%
X140005000Y-59800000D03*
X138105000Y-59800000D03*
X139055000Y-62000000D03*
%TD*%
D15*
%TO.C,J4*%
X144840000Y-61240000D03*
X149010000Y-61240000D03*
%TD*%
D16*
%TO.C,U1*%
X139140000Y-39630000D03*
X139140000Y-42170000D03*
X139140000Y-44710000D03*
X139140000Y-47250000D03*
X139140000Y-49790000D03*
X139140000Y-52330000D03*
X139140000Y-54870000D03*
X155305000Y-54870000D03*
X155305000Y-52330000D03*
X155305000Y-49790000D03*
X155305000Y-47250000D03*
X155305000Y-44710000D03*
X155305000Y-42170000D03*
X155305000Y-39630000D03*
D17*
X145413600Y-52781700D03*
X147953600Y-52781700D03*
D18*
X145921600Y-38608500D03*
X148461600Y-38608500D03*
X145921600Y-41148500D03*
X148461600Y-41148500D03*
X145921600Y-43688500D03*
X148461600Y-43688500D03*
X145921600Y-46228500D03*
X148369000Y-46171700D03*
%TD*%
D19*
%TO.C,J2*%
X171587486Y-58421320D03*
X176961497Y-62239697D03*
X179789924Y-59411270D03*
X181911245Y-57289949D03*
%TD*%
D20*
%TO.C,R12*%
X138475000Y-69150000D03*
X140125000Y-69150000D03*
%TD*%
%TO.C,R8*%
X134595000Y-49700000D03*
X136245000Y-49700000D03*
%TD*%
%TO.C,R6*%
X147120000Y-58920000D03*
X148770000Y-58920000D03*
%TD*%
D21*
%TO.C,C2*%
X125015000Y-68815000D03*
X125015000Y-67265000D03*
%TD*%
D20*
%TO.C,R13*%
X112690000Y-86200000D03*
X114340000Y-86200000D03*
%TD*%
D22*
%TO.C,U4*%
X132815000Y-62560000D03*
X132815000Y-63510000D03*
X132815000Y-64460000D03*
X135415000Y-64460000D03*
X135415000Y-62560000D03*
%TD*%
D12*
%TO.C,C4*%
X123072500Y-69180000D03*
X121522500Y-69180000D03*
%TD*%
D20*
%TO.C,R9*%
X150160000Y-58920000D03*
X151810000Y-58920000D03*
%TD*%
D23*
%TO.C,R2*%
X128105000Y-70645000D03*
X128105000Y-68995000D03*
%TD*%
%TO.C,R1*%
X126535000Y-70815000D03*
X126535000Y-69165000D03*
%TD*%
D21*
%TO.C,C15*%
X137225000Y-66290000D03*
X137225000Y-64740000D03*
%TD*%
D24*
%TO.C,Q5*%
X105825000Y-75900000D03*
X105825000Y-74000000D03*
X103625000Y-74950000D03*
%TD*%
D25*
%TO.C,R4*%
X114675000Y-52500000D03*
X115695000Y-52500000D03*
%TD*%
D11*
%TO.C,C11*%
X130770000Y-73590000D03*
X132320000Y-73590000D03*
%TD*%
D21*
%TO.C,C6*%
X106695000Y-68515000D03*
X106695000Y-66965000D03*
%TD*%
D26*
%TO.C,D7*%
X180215000Y-64900000D03*
X180915000Y-64900000D03*
%TD*%
D27*
%TO.C,R5*%
X132125000Y-54180000D03*
X131105000Y-54180000D03*
%TD*%
D28*
%TO.C,U3*%
X131250000Y-68002500D03*
X131250000Y-69272500D03*
X131250000Y-70542500D03*
X131250000Y-71812500D03*
X136200000Y-71812500D03*
X136200000Y-70542500D03*
X136200000Y-69272500D03*
X136200000Y-68002500D03*
%TD*%
D21*
%TO.C,C14*%
X112965000Y-72645000D03*
X112965000Y-71095000D03*
%TD*%
D29*
%TO.C,R3*%
X116947500Y-57285000D03*
X116947500Y-58935000D03*
%TD*%
D30*
%TO.C,J6*%
X114263685Y-83130000D03*
X114263685Y-82130000D03*
X114263685Y-81130000D03*
X114263685Y-80130000D03*
D31*
X118138685Y-84430000D03*
X118138685Y-78830000D03*
%TD*%
D21*
%TO.C,C5*%
X157875000Y-44150000D03*
X157875000Y-42600000D03*
%TD*%
D32*
%TO.C,IC3*%
X142945000Y-63715000D03*
X142945000Y-64985000D03*
X142945000Y-66255000D03*
X142945000Y-67525000D03*
X148345000Y-67525000D03*
X148345000Y-66255000D03*
X148345000Y-64985000D03*
X148345000Y-63715000D03*
%TD*%
D33*
%TO.C,D15*%
X123062500Y-53960000D03*
X121662500Y-53960000D03*
%TD*%
D34*
%TO.C,BZ1*%
X108975000Y-79540000D03*
X103475000Y-79540000D03*
X103475000Y-85040000D03*
X108975000Y-85040000D03*
%TD*%
D35*
%TO.C,U2*%
X119170000Y-65045000D03*
X120440000Y-65045000D03*
X121710000Y-65045000D03*
X122980000Y-65045000D03*
X124250000Y-65045000D03*
X125520000Y-65045000D03*
X126790000Y-65045000D03*
X128060000Y-65045000D03*
X128060000Y-60095000D03*
X126790000Y-60095000D03*
X125520000Y-60095000D03*
X124250000Y-60095000D03*
X122980000Y-60095000D03*
X121710000Y-60095000D03*
X120440000Y-60095000D03*
X119170000Y-60095000D03*
%TD*%
D21*
%TO.C,C7*%
X112895000Y-57570000D03*
X112895000Y-56020000D03*
%TD*%
D12*
%TO.C,C9*%
X146270000Y-71670000D03*
X144720000Y-71670000D03*
%TD*%
%TO.C,C18*%
X168810000Y-55500000D03*
X167260000Y-55500000D03*
%TD*%
D36*
%TO.C,IC1*%
X167137000Y-61345000D03*
X167137000Y-60075000D03*
X167137000Y-58805000D03*
X167137000Y-57535000D03*
X161713000Y-57535000D03*
X161713000Y-58805000D03*
X161713000Y-60075000D03*
X161713000Y-61345000D03*
%TD*%
D23*
%TO.C,R7*%
X135465000Y-55395000D03*
X135465000Y-53745000D03*
%TD*%
D12*
%TO.C,C3*%
X123112500Y-67310000D03*
X121562500Y-67310000D03*
%TD*%
M02*
