%TF.GenerationSoftware,KiCad,Pcbnew,9.0.6-9.0.6~ubuntu24.04.1*%
%TF.CreationDate,2026-01-18T18:19:51+05:30*%
%TF.ProjectId,WeighingScalePCB,57656967-6869-46e6-9753-63616c655043,rev?*%
%TF.SameCoordinates,Original*%
%TF.FileFunction,Legend,Bot*%
%TF.FilePolarity,Positive*%
%FSLAX46Y46*%
G04 Gerber Fmt 4.6, Leading zero omitted, Abs format (unit mm)*
G04 Created by KiCad (PCBNEW 9.0.6-9.0.6~ubuntu24.04.1) date 2026-01-18 18:19:51*
%MOMM*%
%LPD*%
G01*
G04 APERTURE LIST*
%ADD10C,0.100000*%
%ADD11C,0.254000*%
%ADD12C,0.150000*%
%ADD13C,0.200000*%
%ADD14C,0.120000*%
G04 APERTURE END LIST*
D10*
X128011904Y-54457419D02*
X127440476Y-54457419D01*
X127726190Y-55457419D02*
X127726190Y-54457419D01*
X127154761Y-54552657D02*
X127107142Y-54505038D01*
X127107142Y-54505038D02*
X127011904Y-54457419D01*
X127011904Y-54457419D02*
X126773809Y-54457419D01*
X126773809Y-54457419D02*
X126678571Y-54505038D01*
X126678571Y-54505038D02*
X126630952Y-54552657D01*
X126630952Y-54552657D02*
X126583333Y-54647895D01*
X126583333Y-54647895D02*
X126583333Y-54743133D01*
X126583333Y-54743133D02*
X126630952Y-54885990D01*
X126630952Y-54885990D02*
X127202380Y-55457419D01*
X127202380Y-55457419D02*
X126583333Y-55457419D01*
D11*
X133149318Y-40716667D02*
X134056461Y-40716667D01*
X134056461Y-40716667D02*
X134237889Y-40656190D01*
X134237889Y-40656190D02*
X134358842Y-40535238D01*
X134358842Y-40535238D02*
X134419318Y-40353809D01*
X134419318Y-40353809D02*
X134419318Y-40232857D01*
X134419318Y-41986667D02*
X134419318Y-41260952D01*
X134419318Y-41623809D02*
X133149318Y-41623809D01*
X133149318Y-41623809D02*
X133330746Y-41502857D01*
X133330746Y-41502857D02*
X133451699Y-41381905D01*
X133451699Y-41381905D02*
X133512175Y-41260952D01*
D12*
X144114580Y-43967142D02*
X144162200Y-43919523D01*
X144162200Y-43919523D02*
X144209819Y-43776666D01*
X144209819Y-43776666D02*
X144209819Y-43681428D01*
X144209819Y-43681428D02*
X144162200Y-43538571D01*
X144162200Y-43538571D02*
X144066961Y-43443333D01*
X144066961Y-43443333D02*
X143971723Y-43395714D01*
X143971723Y-43395714D02*
X143781247Y-43348095D01*
X143781247Y-43348095D02*
X143638390Y-43348095D01*
X143638390Y-43348095D02*
X143447914Y-43395714D01*
X143447914Y-43395714D02*
X143352676Y-43443333D01*
X143352676Y-43443333D02*
X143257438Y-43538571D01*
X143257438Y-43538571D02*
X143209819Y-43681428D01*
X143209819Y-43681428D02*
X143209819Y-43776666D01*
X143209819Y-43776666D02*
X143257438Y-43919523D01*
X143257438Y-43919523D02*
X143305057Y-43967142D01*
X144209819Y-44919523D02*
X144209819Y-44348095D01*
X144209819Y-44633809D02*
X143209819Y-44633809D01*
X143209819Y-44633809D02*
X143352676Y-44538571D01*
X143352676Y-44538571D02*
X143447914Y-44443333D01*
X143447914Y-44443333D02*
X143495533Y-44348095D01*
X143305057Y-45300476D02*
X143257438Y-45348095D01*
X143257438Y-45348095D02*
X143209819Y-45443333D01*
X143209819Y-45443333D02*
X143209819Y-45681428D01*
X143209819Y-45681428D02*
X143257438Y-45776666D01*
X143257438Y-45776666D02*
X143305057Y-45824285D01*
X143305057Y-45824285D02*
X143400295Y-45871904D01*
X143400295Y-45871904D02*
X143495533Y-45871904D01*
X143495533Y-45871904D02*
X143638390Y-45824285D01*
X143638390Y-45824285D02*
X144209819Y-45252857D01*
X144209819Y-45252857D02*
X144209819Y-45871904D01*
X144884580Y-48067142D02*
X144932200Y-48019523D01*
X144932200Y-48019523D02*
X144979819Y-47876666D01*
X144979819Y-47876666D02*
X144979819Y-47781428D01*
X144979819Y-47781428D02*
X144932200Y-47638571D01*
X144932200Y-47638571D02*
X144836961Y-47543333D01*
X144836961Y-47543333D02*
X144741723Y-47495714D01*
X144741723Y-47495714D02*
X144551247Y-47448095D01*
X144551247Y-47448095D02*
X144408390Y-47448095D01*
X144408390Y-47448095D02*
X144217914Y-47495714D01*
X144217914Y-47495714D02*
X144122676Y-47543333D01*
X144122676Y-47543333D02*
X144027438Y-47638571D01*
X144027438Y-47638571D02*
X143979819Y-47781428D01*
X143979819Y-47781428D02*
X143979819Y-47876666D01*
X143979819Y-47876666D02*
X144027438Y-48019523D01*
X144027438Y-48019523D02*
X144075057Y-48067142D01*
X144979819Y-49019523D02*
X144979819Y-48448095D01*
X144979819Y-48733809D02*
X143979819Y-48733809D01*
X143979819Y-48733809D02*
X144122676Y-48638571D01*
X144122676Y-48638571D02*
X144217914Y-48543333D01*
X144217914Y-48543333D02*
X144265533Y-48448095D01*
X143979819Y-49352857D02*
X143979819Y-49971904D01*
X143979819Y-49971904D02*
X144360771Y-49638571D01*
X144360771Y-49638571D02*
X144360771Y-49781428D01*
X144360771Y-49781428D02*
X144408390Y-49876666D01*
X144408390Y-49876666D02*
X144456009Y-49924285D01*
X144456009Y-49924285D02*
X144551247Y-49971904D01*
X144551247Y-49971904D02*
X144789342Y-49971904D01*
X144789342Y-49971904D02*
X144884580Y-49924285D01*
X144884580Y-49924285D02*
X144932200Y-49876666D01*
X144932200Y-49876666D02*
X144979819Y-49781428D01*
X144979819Y-49781428D02*
X144979819Y-49495714D01*
X144979819Y-49495714D02*
X144932200Y-49400476D01*
X144932200Y-49400476D02*
X144884580Y-49352857D01*
D10*
%TO.C,J1*%
X133095000Y-43890000D02*
X133095000Y-43890000D01*
X133195000Y-43890000D02*
X133195000Y-43890000D01*
D13*
X137345000Y-40890000D02*
X138745000Y-40890000D01*
X137345000Y-41690000D02*
X137345000Y-40890000D01*
X137345000Y-53390000D02*
X137345000Y-52590000D01*
X138745000Y-40890000D02*
X138745000Y-53390000D01*
X138745000Y-53390000D02*
X137345000Y-53390000D01*
D10*
X133095000Y-43890000D02*
G75*
G02*
X133195000Y-43890000I50000J0D01*
G01*
X133195000Y-43890000D02*
G75*
G02*
X133095000Y-43890000I-50000J0D01*
G01*
D14*
%TO.C,C12*%
X141815000Y-44750580D02*
X141815000Y-44469420D01*
X142835000Y-44750580D02*
X142835000Y-44469420D01*
%TO.C,C13*%
X142585000Y-48850580D02*
X142585000Y-48569420D01*
X143605000Y-48850580D02*
X143605000Y-48569420D01*
%TD*%
M02*
